{
.appVersion = "942";
DisplayStrings = (
"a \U00E1\U00E3/amacron \U00E4\U00E0/adblgrave  \U00E2/ahookabove/abreve/ainvertedbreve \U00E5/adotbelow/aogonek/aringacute/abreveacute/abrevedotbelow/abrevegrave/abrevehookabove/abrevetilde/acircumflexacute/acircumflexdotbelow/acircumflexgrave/acircumflexhookabove/acircumflextilde \012e\U00E9/ebreve/ecaron/ecedillabreve \U00EA/ecircumflexacute/ecircumflexdotbelow/ecircumflexgrave/ecircumflexhookabove/ecircumflextilde/edblgrave \U00EB/edotaccent/edotbelow \U00E8/ehookabove/einvertedbreve/emacron/emacronacute/emacrongrave/eogonek/etilde \012i/idotbelow/idotless \U00ED/ibreve \U00EE/idblgrave \U00EF/idieresisacute/idotaccent \U00EC/ihookabove/iinvertedbreve/imacron/iogonek/itilde \012o\U00F3/obreve \U00F4/ocircumflexacute/ocircumflexdotbelow/ocircumflexgrave/ocircumflexhookabove/ocircumflextilde/odblgrave \U00F6/odieresismacron/odotaccentmacron/odotbelow \U00F2/ohookabove/ohorn/ohungarumlaut/oinvertedbreve/omacron/omacronacute/omacrongrave/oogonek \U00F8\U00F5/otildeacute/otildedieresis/otildemacron \012u\U00FA/ubreve \U00FB/udblgrave \U00FC/udotbelow \U00F9/uhungarumlaut/uinvertedbreve/umacron/umacrondieresis/uogonek/uring/utilde/utildeacute \012\012\012aeoui/idotless .,/dieresiscomb/dotaccentcomb/acutecomb/hungarumlautcomb/gravecomb/dblgravecomb/macroncomb/tildecomb/caroncomb/circumflexcomb/breveinvertedcomb/brevecomb/ringcomb/hookabovecomb/caroncomb.alt \012dise\U00F1o gru\U00F1ir pi\U00F1\U00F3n se\U00F1al \U00F1\U00E1ngara\012a\U00E1rbol f\U00E9lix am\U00EDlcar canci\U00F3n rep\U00FAblica\012ping\U00FCino biling\U00FCe enag\U00FCillas f\U00FChrer i\U00EFi\012na\U00EFf\012Sof\U00EDa Sofia So/fi a\012\012",
"\U00B4/breve/caron/circumflex \U00A8/dotaccent `/hungarumlaut \U00AF/ring/tilde"
);
copyright = "Copyright 2011 The Dosis Project Authors (impallari@gmail.com)";
customParameters = (
{
name = licenseURL;
value = "http://scripts.sil.org/OFL";
},
{
name = trademark;

glyphs = (
{
color = 4;
glyphname = A;
lastChange = "2016-11-26 22:22:43 +0000";
layers = (
{
anchors = (
{
name = bottom;
position = "{268, 0}";
},
{
name = ogonek;
position = "{493, 10}";
},
{
name = top;
position = "{268, 730}";
}
);
background = {
anchors = (
{
name = bottom;
position = "{263, 0}";
},
{
name = ogonek;
position = "{471, 10}";
},
{
name = top;
position = "{263, 731}";
}
);
hints = (
{
horizontal = 1;
place = "{177, 36}";
},
{
horizontal = 1;
place = "{0, 21}";
target = up;
type = BottomGhost;
},
{
horizontal = 1;
place = "{737, -20}";
target = down;
type = TopGhost;
}
);
paths = (
{
closed = 1;
nodes = (
"53 0 OFFCURVE",
"60 4 OFFCURVE",
"63 13 CURVE",
"263 661 LINE",
"462 13 LINE SMOOTH",
"465 4 OFFCURVE",
"471 0 OFFCURVE",
"478 0 CURVE SMOOTH",
"488 0 OFFCURVE",
"498 8 OFFCURVE",
"498 17 CURVE SMOOTH",
"498 19 OFFCURVE",
"497 20 OFFCURVE",
"497 22 CURVE",
"282 723 LINE SMOOTH",
"279 732 OFFCURVE",
"271 737 OFFCURVE",
"263 737 CURVE SMOOTH",
"255 737 OFFCURVE",
"248 733 OFFCURVE",
"245 723 CURVE SMOOTH",
"28 22 LINE",
"27 20 OFFCURVE",
"27 18 OFFCURVE",
"27 16 CURVE SMOOTH",
"27 6 OFFCURVE",
"36 0 OFFCURVE",
"45 0 CURVE SMOOTH"
);
},
{
closed = 1;
nodes = (
"420 196 LINE",
"409 232 LINE",
"115 232 LINE",
"104 196 LINE"
);
}
);
};
layerId = UUID0;
paths = (
{
closed = 1;
nodes = (
"53 0 OFFCURVE",
"60 4 OFFCURVE",
"63 13 CURVE SMOOTH",
"268 660 LINE",
"472 13 LINE",
"475 4 OFFCURVE",
"481 0 OFFCURVE",
"488 0 CURVE SMOOTH",
"498 0 OFFCURVE",
"508 8 OFFCURVE",
"508 17 CURVE SMOOTH",
"508 19 OFFCURVE",
"507 20 OFFCURVE",
"507 22 CURVE",
"287 722 LINE SMOOTH",
"284 731 OFFCURVE",
"276 736 OFFCURVE",
"268 736 CURVE SMOOTH",
"260 736 OFFCURVE",
"253 732 OFFCURVE",
"250 722 CURVE SMOOTH",
"28 22 LINE",
"27 20 OFFCURVE",
"27 18 OFFCURVE",
"27 16 CURVE SMOOTH",
"27 6 OFFCURVE",
"36 0 OFFCURVE",
"45 0 CURVE SMOOTH"
);
},
{
closed = 1;
nodes = (
"429 210 LINE",
"418 246 LINE",
"116 246 LINE",
"105 210 LINE"
);
}
);
width = 535;
},
{
anchors = (
{
name = bottom;
position = "{301, 0}";
},
{
name = ogonek;
position = "{522, 10}";
},
{
name = top;
position = "{301, 730}";
}
);
background = {
anchors = (
{
name = bottom;
position = "{301, 0}";
},
{
name = ogonek;
position = "{541, 10}";
},
{
name = top;
position = "{301, 731}";
}
);
paths = (
{
closed = 1;
nodes = (
"130 0 OFFCURVE",
"150 8 OFFCURVE",
"156 29 CURVE SMOOTH",
"300 542 LINE",
"445 29 LINE SMOOTH",
"451 8 OFFCURVE",
"471 0 OFFCURVE",
"496 0 CURVE SMOOTH",
"539 0 OFFCURVE",
"596 27 OFFCURVE",
"596 64 CURVE SMOOTH",
"596 67 OFFCURVE",
"595 71 OFFCURVE",
"594 75 CURVE",
"402 685 LINE SMOOTH",
"391 720 OFFCURVE",
"346 737 OFFCURVE",
"300 737 CURVE SMOOTH",
"254 737 OFFCURVE",
"209 720 OFFCURVE",
"198 685 CURVE SMOOTH",
"7 75 LINE",
"6 71 OFFCURVE",
"5 67 OFFCURVE",
"5 64 CURVE SMOOTH",
"5 27 OFFCURVE",
"62 0 OFFCURVE",
"105 0 CURVE SMOOTH"
);
},
{
closed = 1;
nodes = (
"426 154 LINE",
"393 274 LINE",
"207 274 LINE",
"175 154 LINE"
);
}
);
};
hints = (
{
horizontal = 1;
place = "{154, 120}";
},
{
horizontal = 1;
place = "{0, 21}";
target = up;
type = BottomGhost;
},
{
horizontal = 1;
place = "{737, -20}";
target = down;
type = TopGhost;
}
);
layerId = "228CC867-ECE3-4F82-B853-1E58141B916C";
paths = (
{
closed = 1;
nodes = (
"115 0 OFFCURVE",
"148 4 OFFCURVE",
"156 32 CURVE SMOOTH",
"300 541 LINE",
"444 32 LINE SMOOTH",
"452 4 OFFCURVE",
"486 0 OFFCURVE",
"520 0 CURVE SMOOTH",
"577 0 OFFCURVE",
"598 11 OFFCURVE",
"598 41 CURVE SMOOTH",
"598 56 OFFCURVE",
"593 76 OFFCURVE",
"585 102 CURVE SMOOTH",
"402 684 LINE SMOOTH",
"391 719 OFFCURVE",
"346 736 OFFCURVE",
"300 736 CURVE SMOOTH",
"254 736 OFFCURVE",
"209 719 OFFCURVE",
"198 684 CURVE SMOOTH",
"19 102 LINE SMOOTH",
"11 76 OFFCURVE",
"6 56 OFFCURVE",
"6 41 CURVE SMOOTH",
"6 12 OFFCURVE",
"24 0 OFFCURVE",
"82 0 CURVE SMOOTH"
);
},
{
closed = 1;
nodes = (
"426 154 LINE",
"393 274 LINE",
"207 274 LINE",
"175 154 LINE"
);
}
);
width = 602;
},
{
anchors = (
{
name = bottom;
position = "{300, 0}";
},
{
name = ogonek;
position = "{540, 10}";
},
{
name = top;
position = "{300, 731}";
}
);
associatedMasterId = "228CC867-ECE3-4F82-B853-1E58141B916C";
background = {
anchors = (
{
name = bottom;
position = "{295, 0}";
},
{
name = ogonek;
position = "{530, 10}";
},
{
name = top;
position = "{295, 731}";
}
);
paths = (
{
closed = 1;
nodes = (
"129 0 OFFCURVE",
"149 8 OFFCURVE",
"155 29 CURVE SMOOTH",
"189 154 LINE",
"400 154 LINE",
"434 29 LINE SMOOTH",
"440 8 OFFCURVE",
"460 0 OFFCURVE",
"485 0 CURVE SMOOTH",
"528 0 OFFCURVE",
"585 27 OFFCURVE",
"585 64 CURVE SMOOTH",
"585 67 OFFCURVE",
"584 71 OFFCURVE",
"583 75 CURVE",
"396 685 LINE SMOOTH",
"385 720 OFFCURVE",
"340 737 OFFCURVE",
"294 737 CURVE SMOOTH",
"248 737 OFFCURVE",
"203 720 OFFCURVE",
"192 685 CURVE SMOOTH",
"6 75 LINE",
"5 71 OFFCURVE",
"4 67 OFFCURVE",
"4 64 CURVE SMOOTH",
"4 27 OFFCURVE",
"61 0 OFFCURVE",
"104 0 CURVE SMOOTH"
);
},
{
closed = 1;
nodes = (
"294 542 LINE",
"367 274 LINE",
"221 274 LINE"
);
}
);
};
hints = (
{
horizontal = 1;
place = "{154, 120}";
},
{
horizontal = 1;
place = "{0, 21}";
target = up;
type = BottomGhost;
},
{
horizontal = 1;
place = "{737, -20}";
target = down;
type = TopGhost;
}
);
layerId = "81D0F872-2E27-4824-A0D4-5AA57057A309";
name = "Nov 18 16, 03:15";
paths = (
{
closed = 1;
nodes = (
"129 0 OFFCURVE",
"149 8 OFFCURVE",
"155 29 CURVE SMOOTH",
"299 542 LINE",
"444 29 LINE SMOOTH",
"450 8 OFFCURVE",
"470 0 OFFCURVE",
"495 0 CURVE SMOOTH",
"538 0 OFFCURVE",
"595 27 OFFCURVE",
"595 64 CURVE SMOOTH",
"595 67 OFFCURVE",
"594 71 OFFCURVE",
"593 75 CURVE",
"401 685 LINE SMOOTH",
"390 720 OFFCURVE",
"345 737 OFFCURVE",
"299 737 CURVE SMOOTH",
"253 737 OFFCURVE",
"208 720 OFFCURVE",
"197 685 CURVE SMOOTH",
"6 75 LINE",
"5 71 OFFCURVE",
"4 67 OFFCURVE",
"4 64 CURVE SMOOTH",
"4 27 OFFCURVE",
"61 0 OFFCURVE",
"104 0 CURVE SMOOTH"
);
},
{
closed = 1;
nodes = (
"425 154 LINE",
"392 274 LINE",
"206 274 LINE",
"174 154 LINE"
);
}
);
width = 599;
}
);
leftKerningGroup = A;
rightKerningGroup = A;
unicode = 0041;
},
{
color = 0;
glyphname = AE;
lastChange = "2016-11-26 22:32:13 +0000";
layers = (
{
anchors = (
{
name = bottom;
position = "{344, 0}";
},
{
name = top;
position = "{344, 730}";
}
);
background = {
paths = (
{
closed = 1;
nodes = (
"119 0 OFFCURVE",
"121 10 OFFCURVE",
"121 23 CURVE SMOOTH",
"121 348 LINE",
"368 348 LINE",
"368 18 LINE SMOOTH",
"368 6 OFFCURVE",
"377 0 OFFCURVE",
"386 0 CURVE SMOOTH",
"641 0 LINE SMOOTH",
"653 0 OFFCURVE",
"658 9 OFFCURVE",
"658 17 CURVE SMOOTH",
"658 27 OFFCURVE",
"652 36 OFFCURVE",
"641 36 CURVE SMOOTH",
"404 36 LINE",
"404 348 LINE",
"564 348 LINE SMOOTH",
"576 348 OFFCURVE",
"581 357 OFFCURVE",
"581 365 CURVE SMOOTH",
"581 375 OFFCURVE",
"575 384 OFFCURVE",
"564 384 CURVE SMOOTH",
"404 384 LINE",
"404 695 LINE",
"641 695 LINE SMOOTH",
"652 695 OFFCURVE",
"658 704 OFFCURVE",
"658 714 CURVE SMOOTH",
"658 722 OFFCURVE",
"653 731 OFFCURVE",
"641 731 CURVE SMOOTH",
"281 731 LINE SMOOTH",
"171 731 OFFCURVE",
"85 675 OFFCURVE",
"85 525 CURVE SMOOTH",
"85 23 LINE SMOOTH",
"85 10 OFFCURVE",
"90 0 OFFCURVE",
"103 0 CURVE SMOOTH"
);
},
{
closed = 1;
nodes = (
"121 525 LINE SMOOTH",
"121 641 OFFCURVE",
"181 695 OFFCURVE",
"281 695 CURVE SMOOTH",
"368 695 LINE",
"368 384 LINE",
"121 384 LINE"
);
}
);
};
hints = (
{
place = "{79, 36}";
},
{
place = "{362, 36}";
},
{
horizontal = 1;
place = "{0, 36}";
},
{
horizontal = 1;
place = "{348, 36}";
},
{
horizontal = 1;
place = "{695, 36}";
}
);
layerId = UUID0;
paths = (
{
closed = 1;
nodes = (
"119 0 OFFCURVE",
"121 10 OFFCURVE",
"121 23 CURVE SMOOTH",
"121 348 LINE",
"368 348 LINE",
"368 18 LINE SMOOTH",
"368 6 OFFCURVE",
"377 0 OFFCURVE",
"386 0 CURVE SMOOTH",
"641 0 LINE SMOOTH",
"653 0 OFFCURVE",
"658 9 OFFCURVE",
"658 17 CURVE SMOOTH",
"658 27 OFFCURVE",
"652 36 OFFCURVE",
"641 36 CURVE SMOOTH",
"404 36 LINE",
"404 348 LINE",
"564 348 LINE SMOOTH",
"576 348 OFFCURVE",
"581 357 OFFCURVE",
"581 365 CURVE SMOOTH",
"581 375 OFFCURVE",
"575 384 OFFCURVE",
"564 384 CURVE SMOOTH",
"404 384 LINE",
"404 695 LINE",
"641 695 LINE SMOOTH",
"652 695 OFFCURVE",
"658 704 OFFCURVE",
"658 714 CURVE SMOOTH",
"658 722 OFFCURVE",
"653 731 OFFCURVE",
"641 731 CURVE SMOOTH",
"281 731 LINE SMOOTH",
"171 731 OFFCURVE",
"85 675 OFFCURVE",
"85 525 CURVE SMOOTH",
"85 23 LINE SMOOTH",
"85 10 OFFCURVE",
"90 0 OFFCURVE",
"103 0 CURVE SMOOTH"
);
},
{
closed = 1;
nodes = (
"121 525 LINE SMOOTH",
"121 641 OFFCURVE",
"181 695 OFFCURVE",
"281 695 CURVE SMOOTH",
"368 695 LINE",
"368 384 LINE",
"121 384 LINE"
);
}
);
width = 688;
},
{
anchors = (
{
name = bottom;
position = "{409, 0}";
},
{
name = top;
position = "{409, 730}";
}
);
background = {
paths = (
{
closed = 1;
nodes = (
"188 0 OFFCURVE",
"197 23 OFFCURVE",
"197 53 CURVE SMOOTH",
"197 306 LINE",
"374 306 LINE",
"374 48 LINE SMOOTH",
"374 16 OFFCURVE",
"408 0 OFFCURVE",
"442 0 CURVE SMOOTH",
"756 0 LINE SMOOTH",
"789 0 OFFCURVE",
"803 35 OFFCURVE",
"803 67 CURVE SMOOTH",
"803 104 OFFCURVE",
"786 136 OFFCURVE",
"756 136 CURVE SMOOTH",
"530 136 LINE",
"530 306 LINE",
"638 306 LINE SMOOTH",
"671 306 OFFCURVE",
"685 338 OFFCURVE",
"685 365 CURVE SMOOTH",
"685 397 OFFCURVE",
"668 426 OFFCURVE",
"638 426 CURVE SMOOTH",
"530 426 LINE",
"530 595 LINE",
"756 595 LINE SMOOTH",
"786 595 OFFCURVE",
"803 627 OFFCURVE",
"803 664 CURVE SMOOTH",
"803 696 OFFCURVE",
"789 731 OFFCURVE",
"756 731 CURVE SMOOTH",
"287 731 LINE SMOOTH",
"155 731 OFFCURVE",
"51 667 OFFCURVE",
"51 495 CURVE SMOOTH",
"51 53 LINE SMOOTH",
"51 23 OFFCURVE",
"70 0 OFFCURVE",
"119 0 CURVE SMOOTH"
);
},
{
closed = 1;
nodes = (
"197 495 LINE SMOOTH",
"197 563 OFFCURVE",
"231 595 OFFCURVE",
"287 595 CURVE SMOOTH",
"374 595 LINE",
"374 426 LINE",
"197 426 LINE"
);
}
);
};
hints = (
{
place = "{51, 146}";
},
{
place = "{374, 156}";
},
{
horizontal = 1;
place = "{0, 136}";
},
{
horizontal = 1;
place = "{306, 120}";
},
{
horizontal = 1;
place = "{595, 136}";
}
);
layerId = "228CC867-ECE3-4F82-B853-1E58141B916C";
paths = (
{
closed = 1;
nodes = (
"188 0 OFFCURVE",
"197 23 OFFCURVE",
"197 53 CURVE SMOOTH",
"197 306 LINE",
"374 306 LINE",
"374 48 LINE SMOOTH",
"374 16 OFFCURVE",
"408 0 OFFCURVE",
"442 0 CURVE SMOOTH",
"756 0 LINE SMOOTH",
"789 0 OFFCURVE",
"803 35 OFFCURVE",
"803 67 CURVE SMOOTH",
"803 104 OFFCURVE",
"786 136 OFFCURVE",
"756 136 CURVE SMOOTH",
"530 136 LINE",
"530 306 LINE",
"638 306 LINE SMOOTH",
"671 306 OFFCURVE",
"685 338 OFFCURVE",
"685 365 CURVE SMOOTH",
"685 397 OFFCURVE",
"668 426 OFFCURVE",
"638 426 CURVE SMOOTH",
"530 426 LINE",
"530 595 LINE",
"756 595 LINE SMOOTH",
"786 595 OFFCURVE",
"803 627 OFFCURVE",
"803 664 CURVE SMOOTH",
"803 696 OFFCURVE",
"789 731 OFFCURVE",
"756 731 CURVE SMOOTH",
"287 731 LINE SMOOTH",
"155 731 OFFCURVE",
"51 667 OFFCURVE",
"51 495 CURVE SMOOTH",
"51 53 LINE SMOOTH",
"51 23 OFFCURVE",
"70 0 OFFCURVE",
"119 0 CURVE SMOOTH"
);
},
{
closed = 1;
nodes = (
"197 495 LINE SMOOTH",
"197 563 OFFCURVE",
"231 595 OFFCURVE",
"287 595 CURVE SMOOTH",
"374 595 LINE",
"374 426 LINE",
"197 426 LINE"
);
}
);
width = 817;
}
);
leftKerningGroup = AE;
rightKerningGroup = E;
unicode = 00C6;
},
{
color = 4;
glyphname = B;
lastChange = "2016-11-26 19:38:57 +0000";
layers = (
{
anchors = (
{
name = bottom;
position = "{261, 0}";
},
{
name = top;
position = "{261, 730}";
}
);
background = {
paths = (
{
closed = 1;
nodes = (
"285 0 LINE SMOOTH",
"395 0 OFFCURVE",
"481 53 OFFCURVE",
"481 203 CURVE SMOOTH",
"481 220 LINE SMOOTH",
"481 323 OFFCURVE",
"440 370 OFFCURVE",
"378 396 CURVE",
"429 418 OFFCURVE",
"463 478 OFFCURVE",
"463 564 CURVE SMOOTH",
"463 704 OFFCURVE",
"374 731 OFFCURVE",
"258 731 CURVE SMOOTH",
"108 731 LINE SMOOTH",
"99 731 OFFCURVE",
"90 725 OFFCURVE",
"90 713 CURVE SMOOTH",
"90 17 LINE SMOOTH",
"90 8 OFFCURVE",
"97 0 OFFCURVE",
"108 0 CURVE SMOOTH"
);
},
{
closed = 1;
nodes = (
"126 378 LINE",
"285 378 LINE SMOOTH",
"385 378 OFFCURVE",
"445 336 OFFCURVE",
"445 220 CURVE SMOOTH",
"445 203 LINE SMOOTH",
"445 87 OFFCURVE",
"385 36 OFFCURVE",
"285 36 CURVE SMOOTH",
"126 36 LINE"
);
},
{
closed = 1;
nodes = (
"126 695 LINE",
"260 695 LINE SMOOTH",
"357 695 OFFCURVE",
"427 675 OFFCURVE",
"427 564 CURVE SMOOTH",
"427 448 OFFCURVE",
"375 414 OFFCURVE",
"265 414 CURVE SMOOTH",
"126 414 LINE"
);
}
);
};
hints = (
{
place = "{83, 36}";
},
{
place = "{420, 36}";
},
{
place = "{438, 36}";
},
{
horizontal = 1;
place = "{0, 36}";
},
{
horizontal = 1;
place = "{378, 36}";
},
{
horizontal = 1;
place = "{695, 36}";
}
);
layerId = UUID0;
paths = (
{
closed = 1;
nodes = (
"276 0 LINE SMOOTH",
"380 0 OFFCURVE",
"461 50 OFFCURVE",
"461 193 CURVE SMOOTH",
"461 210 LINE SMOOTH",
"461 313 OFFCURVE",
"422 360 OFFCURVE",
"364 386 CURVE",
"412 408 OFFCURVE",
"444 468 OFFCURVE",
"444 555 CURVE SMOOTH",
"444 702 OFFCURVE",
"360 730 OFFCURVE",
"250 730 CURVE SMOOTH",
"108 730 LINE SMOOTH",
"99 730 OFFCURVE",
"90 724 OFFCURVE",
"90 712 CURVE SMOOTH",
"90 17 LINE SMOOTH",
"90 8 OFFCURVE",
"97 0 OFFCURVE",
"108 0 CURVE SMOOTH"
);
},
{
closed = 1;
nodes = (
"126 368 LINE",
"275 368 LINE SMOOTH",
"369 368 OFFCURVE",
"425 326 OFFCURVE",
"425 210 CURVE SMOOTH",
"425 193 LINE SMOOTH",
"425 84 OFFCURVE",
"369 36 OFFCURVE",
"275 36 CURVE SMOOTH",
"126 36 LINE"
);
},
{
closed = 1;
nodes = (
"126 694 LINE",
"252 694 LINE SMOOTH",
"343 694 OFFCURVE",
"408 673 OFFCURVE",
"408 555 CURVE SMOOTH",
"408 438 OFFCURVE",
"359 404 OFFCURVE",
"257 404 CURVE SMOOTH",
"126 404 LINE"
);
}
);
width = 518;
},
{
anchors = (
{
name = bottom;
position = "{283, 0}";
},
{
name = top;
position = "{283, 730}";
}
);
background = {
paths = (
{
closed = 1;
nodes = (
"344 0 LINE SMOOTH",
"457 0 OFFCURVE",
"545 57 OFFCURVE",
"545 215 CURVE SMOOTH",
"545 236 LINE SMOOTH",
"545 336 OFFCURVE",
"503 373 OFFCURVE",
"442 396 CURVE",
"495 419 OFFCURVE",
"527 472 OFFCURVE",
"527 553 CURVE SMOOTH",
"527 695 OFFCURVE",
"427 731 OFFCURVE",
"327 731 CURVE SMOOTH",
"122 731 LINE SMOOTH",
"88 731 OFFCURVE",
"54 715 OFFCURVE",
"54 683 CURVE SMOOTH",
"54 47 LINE SMOOTH",
"54 22 OFFCURVE",
"80 0 OFFCURVE",
"122 0 CURVE SMOOTH"
);
},
{
closed = 1;
nodes = (
"209 336 LINE",
"309 336 LINE SMOOTH",
"359 336 OFFCURVE",
"389 312 OFFCURVE",
"389 244 CURVE SMOOTH",
"389 228 LINE SMOOTH",
"389 164 OFFCURVE",
"359 136 OFFCURVE",
"309 136 CURVE SMOOTH",
"209 136 LINE"
);
},
{
closed = 1;
nodes = (
"209 595 LINE",
"314 595 LINE SMOOTH",
"352 595 OFFCURVE",
"371 560 OFFCURVE",
"371 525 CURVE SMOOTH",
"371 491 OFFCURVE",
"352 456 OFFCURVE",
"314 456 CURVE SMOOTH",
"209 456 LINE"
);
}
);
};
hints = (
{
place = "{54, 155}";
},
{
place = "{371, 156}";
},
{
place = "{389, 156}";
},
{
horizontal = 1;
place = "{0, 136}";
},
{
horizontal = 1;
place = "{336, 120}";
},
{
horizontal = 1;
place = "{595, 136}";
}
);
layerId = "228CC867-ECE3-4F82-B853-1E58141B916C";
paths = (
{
closed = 1;
nodes = (
"341 0 LINE SMOOTH",
"452 0 OFFCURVE",
"539 74 OFFCURVE",
"539 205 CURVE SMOOTH",
"539 226 LINE SMOOTH",
"539 324 OFFCURVE",
"502 360 OFFCURVE",
"447 382 CURVE",
"494 407 OFFCURVE",
"521 466 OFFCURVE",
"521 545 CURVE SMOOTH",
"521 694 OFFCURVE",
"425 730 OFFCURVE",
"325 730 CURVE SMOOTH",
"122 730 LINE SMOOTH",
"88 730 OFFCURVE",
"54 714 OFFCURVE",
"54 682 CURVE SMOOTH",
"54 47 LINE SMOOTH",
"54 22 OFFCURVE",
"80 0 OFFCURVE",
"122 0 CURVE SMOOTH"
);
},
{
closed = 1;
nodes = (
"209 322 LINE",
"306 322 LINE SMOOTH",
"354 322 OFFCURVE",
"383 298 OFFCURVE",
"383 230 CURVE SMOOTH",
"383 214 LINE SMOOTH",
"383 157 OFFCURVE",
"354 132 OFFCURVE",
"306 132 CURVE SMOOTH",
"209 132 LINE"
);
},
{
closed = 1;
nodes = (
"209 598 LINE",
"312 598 LINE SMOOTH",
"348 598 OFFCURVE",
"365 562 OFFCURVE",
"365 523 CURVE SMOOTH",
"365 483 OFFCURVE",
"347 440 OFFCURVE",
"312 440 CURVE SMOOTH",
"209 440 LINE"
);
}
);
width = 566;
}
);
leftKerningGroup = I;
unicode = 0042;
},
{
color = 4;
glyphname = C;
lastChange = "2016-11-26 22:32:38 +0000";
layers = (
{
anchors = (
{
name = bottom;
position = "{283, 0}";
},
{
name = top;
position = "{283, 730}";
}
);
background = {
paths = (
{
closed = 1;
nodes = (
"406 -6 OFFCURVE",
"473 73 OFFCURVE",
"473 150 CURVE SMOOTH",
"473 173 OFFCURVE",
"467 179 OFFCURVE",
"455 179 CURVE SMOOTH",
"440 179 OFFCURVE",
"438 170 OFFCURVE",
"437 161 CURVE",
"429 109 OFFCURVE",
"416 30 OFFCURVE",
"284 30 CURVE SMOOTH",
"175 30 OFFCURVE",
"118 83 OFFCURVE",
"118 200 CURVE SMOOTH",
"118 525 LINE SMOOTH",
"118 641 OFFCURVE",
"175 695 OFFCURVE",
"280 695 CURVE SMOOTH",
"410 695 OFFCURVE",
"434 612 OFFCURVE",
"437 564 CURVE",
"437 557 OFFCURVE",
"438 546 OFFCURVE",
"455 546 CURVE SMOOTH",
"467 546 OFFCURVE",
"473 551 OFFCURVE",
"473 574 CURVE SMOOTH",
"473 652 OFFCURVE",
"409 731 OFFCURVE",
"281 731 CURVE SMOOTH",
"173 731 OFFCURVE",
"82 675 OFFCURVE",
"82 525 CURVE SMOOTH",
"82 200 LINE SMOOTH",
"82 50 OFFCURVE",
"171 -6 OFFCURVE",
"278 -6 CURVE SMOOTH"
);
}
);
};
hints = (
{
place = "{76, 36}";
},
{
place = "{431, 36}";
},
{
horizontal = 1;
place = "{-6, 36}";
},
{
horizontal = 1;
place = "{546, 185}";
},
{
horizontal = 1;
place = "{695, 36}";
},
{
horizontal = 1;
place = "{-6, 185}";
}
);
layerId = UUID0;
paths = (
{
closed = 1;
nodes = (
"405 -6 OFFCURVE",
"465 66 OFFCURVE",
"465 155 CURVE SMOOTH",
"465 181 OFFCURVE",
"460 187 OFFCURVE",
"447 187 CURVE SMOOTH",
"431 187 OFFCURVE",
"429 177 OFFCURVE",
"429 169 CURVE SMOOTH",
"429 109 OFFCURVE",
"415 30 OFFCURVE",
"281 30 CURVE SMOOTH",
"173 30 OFFCURVE",
"118 82 OFFCURVE",
"118 200 CURVE SMOOTH",
"118 530 LINE SMOOTH",
"118 650 OFFCURVE",
"173 700 OFFCURVE",
"282 700 CURVE SMOOTH",
"415 700 OFFCURVE",
"429 626 OFFCURVE",
"429 566 CURVE SMOOTH",
"429 558 OFFCURVE",
"431 544 OFFCURVE",
"448 544 CURVE SMOOTH",
"461 544 OFFCURVE",
"465 551 OFFCURVE",
"465 576 CURVE SMOOTH",
"465 659 OFFCURVE",
"419 736 OFFCURVE",
"284 736 CURVE SMOOTH",
"168 736 OFFCURVE",
"82 680 OFFCURVE",
"82 530 CURVE SMOOTH",
"82 200 LINE SMOOTH",
"82 50 OFFCURVE",
"168 -6 OFFCURVE",
"279 -6 CURVE SMOOTH"
);
}
);
width = 514;
},
{
anchors = (
{
name = bottom;
position = "{281, 0}";
},
{
name = top;
position = "{281, 730}";
}
);
background = {
paths = (
{
closed = 1;
nodes = (
"429 -6 OFFCURVE",
"537 70 OFFCURVE",
"537 203 CURVE SMOOTH",
"537 263 OFFCURVE",
"512 277 OFFCURVE",
"458 277 CURVE SMOOTH",
"418 277 OFFCURVE",
"384 267 OFFCURVE",
"381 230 CURVE SMOOTH",
"378 191 OFFCURVE",
"373 130 OFFCURVE",
"293 130 CURVE SMOOTH",
"235 130 OFFCURVE",
"202 162 OFFCURVE",
"202 230 CURVE SMOOTH",
"202 495 LINE SMOOTH",
"202 563 OFFCURVE",
"235 595 OFFCURVE",
"292 595 CURVE SMOOTH",
"377 595 OFFCURVE",
"380 531 OFFCURVE",
"381 505 CURVE SMOOTH",
"383 469 OFFCURVE",
"417 458 OFFCURVE",
"459 458 CURVE SMOOTH",
"512 458 OFFCURVE",
"537 472 OFFCURVE",
"537 532 CURVE SMOOTH",
"537 659 OFFCURVE",
"429 731 OFFCURVE",
"286 731 CURVE SMOOTH",
"155 731 OFFCURVE",
"46 667 OFFCURVE",
"46 495 CURVE SMOOTH",
"46 230 LINE SMOOTH",
"46 58 OFFCURVE",
"155 -6 OFFCURVE",
"286 -6 CURVE SMOOTH"
);
}
);
};
hints = (
{
place = "{46, 156}";
},
{
place = "{381, 156}";
},
{
horizontal = 1;
place = "{-6, 136}";
},
{
horizontal = 1;
place = "{595, 136}";
}
);
layerId = "228CC867-ECE3-4F82-B853-1E58141B916C";
paths = (
{
closed = 1;
nodes = (
"429 -6 OFFCURVE",
"537 70 OFFCURVE",
"537 203 CURVE SMOOTH",
"537 263 OFFCURVE",
"512 277 OFFCURVE",
"458 277 CURVE SMOOTH",
"418 277 OFFCURVE",
"384 267 OFFCURVE",
"381 230 CURVE SMOOTH",
"378 191 OFFCURVE",
"373 130 OFFCURVE",
"293 130 CURVE SMOOTH",
"235 130 OFFCURVE",
"202 162 OFFCURVE",
"202 230 CURVE SMOOTH",
"202 500 LINE SMOOTH",
"202 568 OFFCURVE",
"235 600 OFFCURVE",
"292 600 CURVE SMOOTH",
"377 600 OFFCURVE",
"380 536 OFFCURVE",
"381 510 CURVE SMOOTH",
"382 474 OFFCURVE",
"417 463 OFFCURVE",
"459 463 CURVE SMOOTH",
"512 463 OFFCURVE",
"537 477 OFFCURVE",
"537 537 CURVE SMOOTH",
"537 664 OFFCURVE",
"429 736 OFFCURVE",
"286 736 CURVE SMOOTH",
"155 736 OFFCURVE",
"46 672 OFFCURVE",
"46 500 CURVE SMOOTH",
"46 230 LINE SMOOTH",
"46 58 OFFCURVE",
"155 -6 OFFCURVE",
"286 -6 CURVE SMOOTH"
);
}
);
width = 562;
},
{
associatedMasterId = UUID0;
background = {
paths = (
{
closed = 1;
nodes = (
"400 -6 OFFCURVE",
"467 73 OFFCURVE",
"467 150 CURVE SMOOTH",
"467 173 OFFCURVE",
"461 179 OFFCURVE",
"449 179 CURVE SMOOTH",
"434 179 OFFCURVE",
"432 170 OFFCURVE",
"431 161 CURVE",
"423 109 OFFCURVE",
"410 30 OFFCURVE",
"278 30 CURVE SMOOTH",
"169 30 OFFCURVE",
"112 83 OFFCURVE",
"112 200 CURVE SMOOTH",
"112 525 LINE SMOOTH",
"112 641 OFFCURVE",
"169 695 OFFCURVE",
"274 695 CURVE SMOOTH",
"404 695 OFFCURVE",
"428 612 OFFCURVE",
"431 564 CURVE",
"431 557 OFFCURVE",
"432 546 OFFCURVE",
"449 546 CURVE SMOOTH",
"461 546 OFFCURVE",
"467 551 OFFCURVE",
"467 574 CURVE SMOOTH",
"467 652 OFFCURVE",
"403 731 OFFCURVE",
"275 731 CURVE SMOOTH",
"167 731 OFFCURVE",
"76 675 OFFCURVE",
"76 525 CURVE SMOOTH",
"76 200 LINE SMOOTH",
"76 50 OFFCURVE",
"165 -6 OFFCURVE",
"272 -6 CURVE SMOOTH"
);
}
);
};
hints = (
{
place = "{76, 36}";
},
{
place = "{431, 36}";
},
{
horizontal = 1;
place = "{-6, 36}";
},
{
horizontal = 1;
place = "{546, 185}";
},
{
horizontal = 1;
place = "{695, 36}";
},
{
horizontal = 1;
place = "{-6, 185}";
}
);
layerId = "E4E6DC42-5CDA-4BE3-A7A9-C366989BEEBB";
name = "Nov 17 16, 20:41";
paths = (
{
closed = 1;
nodes = (
"400 -6 OFFCURVE",
"467 73 OFFCURVE",
"467 150 CURVE SMOOTH",
"467 173 OFFCURVE",
"461 179 OFFCURVE",
"449 179 CURVE SMOOTH",
"434 179 OFFCURVE",
"432 170 OFFCURVE",
"431 161 CURVE",
"423 109 OFFCURVE",
"410 30 OFFCURVE",
"278 30 CURVE SMOOTH",
"169 30 OFFCURVE",
"112 83 OFFCURVE",
"112 200 CURVE SMOOTH",
"112 525 LINE SMOOTH",
"112 641 OFFCURVE",
"169 695 OFFCURVE",
"274 695 CURVE SMOOTH",
"404 695 OFFCURVE",
"428 612 OFFCURVE",
"431 564 CURVE",
"431 557 OFFCURVE",
"432 546 OFFCURVE",
"449 546 CURVE SMOOTH",
"461 546 OFFCURVE",
"467 551 OFFCURVE",
"467 574 CURVE SMOOTH",
"467 652 OFFCURVE",
"403 731 OFFCURVE",
"275 731 CURVE SMOOTH",
"167 731 OFFCURVE",
"76 675 OFFCURVE",
"76 525 CURVE SMOOTH",
"76 200 LINE SMOOTH",
"76 50 OFFCURVE",
"165 -6 OFFCURVE",
"272 -6 CURVE SMOOTH"
);
}
);
width = 512;
}
);
leftKerningGroup = O;
rightKerningGroup = C;
unicode = 0043;
},
{
color = 4;
glyphname = D;
lastChange = "2016-11-26 19:50:02 +0000";
layers = (
{
anchors = (
{
name = bottom;
position = "{287, 0}";
},
{
name = center;
position = "{287, 365}";
},
{
name = top;
position = "{287, 730}";
}
);
background = {
paths = (
{
closed = 1;
nodes = (
"285 0 LINE SMOOTH",
"395 0 OFFCURVE",
"481 56 OFFCURVE",
"481 206 CURVE SMOOTH",
"481 525 LINE SMOOTH",
"481 675 OFFCURVE",
"395 731 OFFCURVE",
"285 731 CURVE SMOOTH",
"108 731 LINE SMOOTH",
"97 731 OFFCURVE",
"90 723 OFFCURVE",
"90 714 CURVE SMOOTH",
"90 17 LINE SMOOTH",
"90 8 OFFCURVE",
"97 0 OFFCURVE",
"108 0 CURVE SMOOTH"
);
},
{
closed = 1;
nodes = (
"126 695 LINE",
"285 695 LINE SMOOTH",
"385 695 OFFCURVE",
"445 641 OFFCURVE",
"445 525 CURVE SMOOTH",
"445 206 LINE SMOOTH",
"445 90 OFFCURVE",
"385 36 OFFCURVE",
"285 36 CURVE SMOOTH",
"126 36 LINE"
);
}
);
};
hints = (
{
place = "{83, 36}";
},
{
place = "{438, 36}";
},
{
horizontal = 1;
place = "{0, 36}";
},
{
horizontal = 1;
place = "{695, 36}";
}
);
layerId = UUID0;
paths = (
{
closed = 1;
nodes = (
"255 0 LINE SMOOTH",
"387 0 OFFCURVE",
"491 67 OFFCURVE",
"491 246 CURVE SMOOTH",
"491 484 LINE SMOOTH",
"491 663 OFFCURVE",
"387 730 OFFCURVE",
"255 730 CURVE SMOOTH",
"108 730 LINE SMOOTH",
"97 730 OFFCURVE",
"90 722 OFFCURVE",
"90 713 CURVE SMOOTH",
"90 17 LINE SMOOTH",
"90 8 OFFCURVE",
"97 0 OFFCURVE",
"108 0 CURVE SMOOTH"
);
},
{
closed = 1;
nodes = (
"126 694 LINE",
"255 694 LINE SMOOTH",
"380 694 OFFCURVE",
"455 627 OFFCURVE",
"455 484 CURVE SMOOTH",
"455 246 LINE SMOOTH",
"455 103 OFFCURVE",
"380 36 OFFCURVE",
"255 36 CURVE SMOOTH",
"126 36 LINE"
);
}
);
width = 573;
},
{
anchors = (
{
name = bottom;
position = "{295, 0}";
},
{
name = center;
position = "{295, 365}";
},
{
name = top;
position = "{295, 730}";
}
);
background = {
paths = (
{
closed = 1;
nodes = (
"299 0 LINE SMOOTH",
"437 0 OFFCURVE",
"545 64 OFFCURVE",
"545 236 CURVE SMOOTH",
"545 495 LINE SMOOTH",
"545 667 OFFCURVE",
"437 731 OFFCURVE",
"299 731 CURVE SMOOTH",
"122 731 LINE SMOOTH",
"81 731 OFFCURVE",
"54 709 OFFCURVE",
"54 684 CURVE SMOOTH",
"54 47 LINE SMOOTH",
"54 22 OFFCURVE",
"81 0 OFFCURVE",
"122 0 CURVE SMOOTH"
);
},
{
closed = 1;
nodes = (
"210 595 LINE",
"299 595 LINE SMOOTH",
"355 595 OFFCURVE",
"389 563 OFFCURVE",
"389 495 CURVE SMOOTH",
"389 236 LINE SMOOTH",
"389 168 OFFCURVE",
"355 136 OFFCURVE",
"299 136 CURVE SMOOTH",
"210 136 LINE"
);
}
);
};
hints = (
{
place = "{54, 156}";
},
{
place = "{389, 156}";
},
{
horizontal = 1;
place = "{0, 136}";
},
{
horizontal = 1;
place = "{595, 136}";
}
);
layerId = "228CC867-ECE3-4F82-B853-1E58141B916C";
paths = (
{
closed = 1;
nodes = (
"286 0 LINE SMOOTH",
"435 0 OFFCURVE",
"552 69 OFFCURVE",
"552 256 CURVE SMOOTH",
"552 454 LINE SMOOTH",
"552 655 OFFCURVE",
"435 730 OFFCURVE",
"286 730 CURVE SMOOTH",
"122 730 LINE SMOOTH",
"81 730 OFFCURVE",
"54 708 OFFCURVE",
"54 683 CURVE SMOOTH",
"54 47 LINE SMOOTH",
"54 22 OFFCURVE",
"81 0 OFFCURVE",
"122 0 CURVE SMOOTH"
);
},
{
closed = 1;
nodes = (
"210 594 LINE",
"286 594 LINE SMOOTH",
"354 594 OFFCURVE",
"396 549 OFFCURVE",
"396 454 CURVE SMOOTH",
"396 256 LINE SMOOTH",
"396 174 OFFCURVE",
"354 136 OFFCURVE",
"286 136 CURVE SMOOTH",
"210 136 LINE"
);
}
);
width = 597;
}
);
leftKerningGroup = I;
rightKerningGroup = O;
unicode = 0044;
},
{
color = 7;
glyphname = Eth;
lastChange = "2016-11-26 21:45:09 +0000";
layers = (
{
background = {
paths = (
{
closed = 1;
nodes = (
"288 0 LINE SMOOTH",
"398 0 OFFCURVE",
"484 56 OFFCURVE",
"484 206 CURVE SMOOTH",
"484 525 LINE SMOOTH",
"484 675 OFFCURVE",
"398 731 OFFCURVE",
"288 731 CURVE SMOOTH",
"111 731 LINE SMOOTH",
"100 731 OFFCURVE",
"93 723 OFFCURVE",
"93 714 CURVE SMOOTH",
"93 402 LINE",
"20 402 LINE SMOOTH",
"10 402 OFFCURVE",
"3 394 OFFCURVE",
"3 384 CURVE SMOOTH",
"3 374 OFFCURVE",
"10 367 OFFCURVE",
"20 367 CURVE SMOOTH",
"93 367 LINE",
"93 17 LINE SMOOTH",
"93 8 OFFCURVE",
"100 0 OFFCURVE",
"111 0 CURVE SMOOTH"
);
},
{
closed = 1;
nodes = (
"129 367 LINE",
"260 367 LINE SMOOTH",
"269 367 OFFCURVE",
"278 374 OFFCURVE",
"278 384 CURVE SMOOTH",
"278 394 OFFCURVE",
"269 402 OFFCURVE",
"260 402 CURVE SMOOTH",
"129 402 LINE",
"129 695 LINE",
"288 695 LINE SMOOTH",
"388 695 OFFCURVE",
"448 641 OFFCURVE",
"448 525 CURVE SMOOTH",
"448 206 LINE SMOOTH",
"448 90 OFFCURVE",
"388 36 OFFCURVE",
"288 36 CURVE SMOOTH",
"129 36 LINE"
);
}
);
};
hints = (
{
place = "{93, 36}";
},
{
place = "{448, 36}";
},
{
horizontal = 1;
place = "{0, 36}";
},
{
horizontal = 1;
place = "{367, 35}";
},
{
horizontal = 1;
place = "{695, 36}";
}
);
layerId = UUID0;
paths = (
{
closed = 1;
nodes = (
"288 0 LINE SMOOTH",
"398 0 OFFCURVE",
"484 56 OFFCURVE",
"484 206 CURVE SMOOTH",
"484 525 LINE SMOOTH",
"484 675 OFFCURVE",
"398 731 OFFCURVE",
"288 731 CURVE SMOOTH",
"111 731 LINE SMOOTH",
"100 731 OFFCURVE",
"93 723 OFFCURVE",
"93 714 CURVE SMOOTH",
"93 402 LINE",
"20 402 LINE SMOOTH",
"10 402 OFFCURVE",
"3 394 OFFCURVE",
"3 384 CURVE SMOOTH",
"3 374 OFFCURVE",
"10 367 OFFCURVE",
"20 367 CURVE SMOOTH",
"93 367 LINE",
"93 17 LINE SMOOTH",
"93 8 OFFCURVE",
"100 0 OFFCURVE",
"111 0 CURVE SMOOTH"
);
},
{
closed = 1;
nodes = (
"129 367 LINE",
"260 367 LINE SMOOTH",
"269 367 OFFCURVE",
"278 374 OFFCURVE",
"278 384 CURVE SMOOTH",
"278 394 OFFCURVE",
"269 402 OFFCURVE",
"260 402 CURVE SMOOTH",
"129 402 LINE",
"129 695 LINE",
"288 695 LINE SMOOTH",
"388 695 OFFCURVE",
"448 641 OFFCURVE",
"448 525 CURVE SMOOTH",
"448 206 LINE SMOOTH",
"448 90 OFFCURVE",
"388 36 OFFCURVE",
"288 36 CURVE SMOOTH",
"129 36 LINE"
);
}
);
width = 566;
},
{
background = {
paths = (
{
closed = 1;
nodes = (
"305 0 LINE SMOOTH",
"443 0 OFFCURVE",
"551 64 OFFCURVE",
"551 236 CURVE SMOOTH",
"551 495 LINE SMOOTH",
"551 667 OFFCURVE",
"443 731 OFFCURVE",
"305 731 CURVE SMOOTH",
"128 731 LINE SMOOTH",
"87 731 OFFCURVE",
"60 709 OFFCURVE",
"60 684 CURVE SMOOTH",
"60 437 LINE",
"28 437 LINE SMOOTH",
"3 437 OFFCURVE",
"-10 409 OFFCURVE",
"-10 382 CURVE SMOOTH",
"-10 354 OFFCURVE",
"3 327 OFFCURVE",
"28 327 CURVE SMOOTH",
"60 327 LINE",
"60 47 LINE SMOOTH",
"60 22 OFFCURVE",
"87 0 OFFCURVE",
"128 0 CURVE SMOOTH"
);
},
{
closed = 1;
nodes = (
"216 327 LINE",
"278 327 LINE SMOOTH",
"303 327 OFFCURVE",
"316 353 OFFCURVE",
"316 382 CURVE SMOOTH",
"316 409 OFFCURVE",
"303 437 OFFCURVE",
"278 437 CURVE SMOOTH",
"216 437 LINE",
"216 595 LINE",
"305 595 LINE SMOOTH",
"361 595 OFFCURVE",
"395 563 OFFCURVE",
"395 495 CURVE SMOOTH",
"395 236 LINE SMOOTH",
"395 168 OFFCURVE",
"361 136 OFFCURVE",
"305 136 CURVE SMOOTH",
"216 136 LINE"
);
}
);
};
hints = (
{
place = "{-10, 226}";
},
{
place = "{60, 156}";
},
{
place = "{395, 156}";
},
{
horizontal = 1;
place = "{0, 136}";
},
{
horizontal = 1;
place = "{327, 110}";
},
{
horizontal = 1;
place = "{595, 136}";
}
);
layerId = "228CC867-ECE3-4F82-B853-1E58141B916C";
paths = (
{
closed = 1;
nodes = (
"305 0 LINE SMOOTH",
"443 0 OFFCURVE",
"551 64 OFFCURVE",
"551 236 CURVE SMOOTH",
"551 495 LINE SMOOTH",
"551 667 OFFCURVE",
"443 731 OFFCURVE",
"305 731 CURVE SMOOTH",
"128 731 LINE SMOOTH",
"87 731 OFFCURVE",
"60 709 OFFCURVE",
"60 684 CURVE SMOOTH",
"60 437 LINE",
"28 437 LINE SMOOTH",
"3 437 OFFCURVE",
"-10 409 OFFCURVE",
"-10 382 CURVE SMOOTH",
"-10 354 OFFCURVE",
"3 327 OFFCURVE",
"28 327 CURVE SMOOTH",
"60 327 LINE",
"60 47 LINE SMOOTH",
"60 22 OFFCURVE",
"87 0 OFFCURVE",
"128 0 CURVE SMOOTH"
);
},
{
closed = 1;
nodes = (
"216 327 LINE",
"278 327 LINE SMOOTH",
"303 327 OFFCURVE",
"316 353 OFFCURVE",
"316 382 CURVE SMOOTH",
"316 409 OFFCURVE",
"303 437 OFFCURVE",
"278 437 CURVE SMOOTH",
"216 437 LINE",
"216 595 LINE",
"305 595 LINE SMOOTH",
"361 595 OFFCURVE",
"395 563 OFFCURVE",
"395 495 CURVE SMOOTH",
"395 236 LINE SMOOTH",
"395 168 OFFCURVE",
"361 136 OFFCURVE",
"305 136 CURVE SMOOTH",
"216 136 LINE"
);
}
);
width = 596;
}
);
leftKerningGroup = I;
rightKerningGroup = O;
unicode = 00D0;
},
{
color = 7;
glyphname = Dcroat;
lastChange = "2016-11-26 21:45:09 +0000";
layers = (
{
background = {
paths = (
{
closed = 1;
nodes = (
"288 0 LINE SMOOTH",
"398 0 OFFCURVE",
"484 56 OFFCURVE",
"484 206 CURVE SMOOTH",
"484 525 LINE SMOOTH",
"484 675 OFFCURVE",
"398 731 OFFCURVE",
"288 731 CURVE SMOOTH",
"111 731 LINE SMOOTH",
"100 731 OFFCURVE",
"93 723 OFFCURVE",
"93 714 CURVE SMOOTH",
"93 402 LINE",
"20 402 LINE SMOOTH",
"10 402 OFFCURVE",
"3 394 OFFCURVE",
"3 384 CURVE SMOOTH",
"3 374 OFFCURVE",
"10 367 OFFCURVE",
"20 367 CURVE SMOOTH",
"93 367 LINE",
"93 17 LINE SMOOTH",
"93 8 OFFCURVE",
"100 0 OFFCURVE",
"111 0 CURVE SMOOTH"
);
},
{
closed = 1;
nodes = (
"129 367 LINE",
"260 367 LINE SMOOTH",
"269 367 OFFCURVE",
"278 374 OFFCURVE",
"278 384 CURVE SMOOTH",
"278 394 OFFCURVE",
"269 402 OFFCURVE",
"260 402 CURVE SMOOTH",
"129 402 LINE",
"129 695 LINE",
"288 695 LINE SMOOTH",
"388 695 OFFCURVE",
"448 641 OFFCURVE",
"448 525 CURVE SMOOTH",
"448 206 LINE SMOOTH",
"448 90 OFFCURVE",
"388 36 OFFCURVE",
"288 36 CURVE SMOOTH",
"129 36 LINE"
);
}
);
};
hints = (
{
place = "{93, 36}";
},
{
place = "{448, 36}";
},
{
horizontal = 1;
place = "{0, 36}";
},
{
horizontal = 1;
place = "{367, 35}";
},
{
horizontal = 1;
place = "{695, 36}";
}
);
layerId = UUID0;
paths = (
{
closed = 1;
nodes = (
"288 0 LINE SMOOTH",
"398 0 OFFCURVE",
"484 56 OFFCURVE",
"484 206 CURVE SMOOTH",
"484 525 LINE SMOOTH",
"484 675 OFFCURVE",
"398 731 OFFCURVE",
"288 731 CURVE SMOOTH",
"111 731 LINE SMOOTH",
"100 731 OFFCURVE",
"93 723 OFFCURVE",
"93 714 CURVE SMOOTH",
"93 402 LINE",
"20 402 LINE SMOOTH",
"10 402 OFFCURVE",
"3 394 OFFCURVE",
"3 384 CURVE SMOOTH",
"3 374 OFFCURVE",
"10 367 OFFCURVE",
"20 367 CURVE SMOOTH",
"93 367 LINE",
"93 17 LINE SMOOTH",
"93 8 OFFCURVE",
"100 0 OFFCURVE",
"111 0 CURVE SMOOTH"
);
},
{
closed = 1;
nodes = (
"129 367 LINE",
"260 367 LINE SMOOTH",
"269 367 OFFCURVE",
"278 374 OFFCURVE",
"278 384 CURVE SMOOTH",
"278 394 OFFCURVE",
"269 402 OFFCURVE",
"260 402 CURVE SMOOTH",
"129 402 LINE",
"129 695 LINE",
"288 695 LINE SMOOTH",
"388 695 OFFCURVE",
"448 641 OFFCURVE",
"448 525 CURVE SMOOTH",
"448 206 LINE SMOOTH",
"448 90 OFFCURVE",
"388 36 OFFCURVE",
"288 36 CURVE SMOOTH",
"129 36 LINE"
);
}
);
width = 566;
},
{
background = {
paths = (
{
closed = 1;
nodes = (
"305 0 LINE SMOOTH",
"443 0 OFFCURVE",
"551 64 OFFCURVE",
"551 236 CURVE SMOOTH",
"551 495 LINE SMOOTH",
"551 667 OFFCURVE",
"443 731 OFFCURVE",
"305 731 CURVE SMOOTH",
"128 731 LINE SMOOTH",
"87 731 OFFCURVE",
"60 709 OFFCURVE",
"60 684 CURVE SMOOTH",
"60 437 LINE",
"28 437 LINE SMOOTH",
"3 437 OFFCURVE",
"-10 409 OFFCURVE",
"-10 382 CURVE SMOOTH",
"-10 354 OFFCURVE",
"3 327 OFFCURVE",
"28 327 CURVE SMOOTH",
"60 327 LINE",
"60 47 LINE SMOOTH",
"60 22 OFFCURVE",
"87 0 OFFCURVE",
"128 0 CURVE SMOOTH"
);
},
{
closed = 1;
nodes = (
"216 327 LINE",
"278 327 LINE SMOOTH",
"303 327 OFFCURVE",
"316 353 OFFCURVE",
"316 382 CURVE SMOOTH",
"316 409 OFFCURVE",
"303 437 OFFCURVE",
"278 437 CURVE SMOOTH",
"216 437 LINE",
"216 595 LINE",
"305 595 LINE SMOOTH",
"361 595 OFFCURVE",
"395 563 OFFCURVE",
"395 495 CURVE SMOOTH",
"395 236 LINE SMOOTH",
"395 168 OFFCURVE",
"361 136 OFFCURVE",
"305 136 CURVE SMOOTH",
"216 136 LINE"
);
}
);
};
hints = (
{
place = "{-10, 226}";
},
{
place = "{60, 156}";
},
{
place = "{395, 156}";
},
{
horizontal = 1;
place = "{0, 136}";
},
{
horizontal = 1;
place = "{327, 110}";
},
{
horizontal = 1;
place = "{595, 136}";
}
);
layerId = "228CC867-ECE3-4F82-B853-1E58141B916C";
paths = (
{
closed = 1;
nodes = (
"305 0 LINE SMOOTH",
"443 0 OFFCURVE",
"551 64 OFFCURVE",
"551 236 CURVE SMOOTH",
"551 495 LINE SMOOTH",
"551 667 OFFCURVE",
"443 731 OFFCURVE",
"305 731 CURVE SMOOTH",
"128 731 LINE SMOOTH",
"87 731 OFFCURVE",
"60 709 OFFCURVE",
"60 684 CURVE SMOOTH",
"60 437 LINE",
"28 437 LINE SMOOTH",
"3 437 OFFCURVE",
"-10 409 OFFCURVE",
"-10 382 CURVE SMOOTH",
"-10 354 OFFCURVE",
"3 327 OFFCURVE",
"28 327 CURVE SMOOTH",
"60 327 LINE",
"60 47 LINE SMOOTH",
"60 22 OFFCURVE",
"87 0 OFFCURVE",
"128 0 CURVE SMOOTH"
);
},
{
closed = 1;
nodes = (
"216 327 LINE",
"278 327 LINE SMOOTH",
"303 327 OFFCURVE",
"316 353 OFFCURVE",
"316 382 CURVE SMOOTH",
"316 409 OFFCURVE",
"303 437 OFFCURVE",
"278 437 CURVE SMOOTH",
"216 437 LINE",
"216 595 LINE",
"305 595 LINE SMOOTH",
"361 595 OFFCURVE",
"395 563 OFFCURVE",
"395 495 CURVE SMOOTH",
"395 236 LINE SMOOTH",
"395 168 OFFCURVE",
"361 136 OFFCURVE",
"305 136 CURVE SMOOTH",
"216 136 LINE"
);
}
);
width = 596;
}
);
leftKerningGroup = I;
rightKerningGroup = O;
unicode = 0110;
},
{
color = 4;
glyphname = E;
lastChange = "2016-11-26 19:38:57 +0000";
layers = (
{
anchors = (
{
name = bottom;
position = "{235, 0}";
},
{
name = ogonek;
position = "{416, 10}";
},
{
name = top;
position = "{235, 730}";
},
{
name = topleft;
position = "{27, 730}";
}
);
background = {
anchors = (
{
name = bottom;
position = "{256, 0}";
},
{
name = ogonek;
position = "{455, 10}";
},
{
name = top;
position = "{292, 731}";
},
{
name = topleft;
position = "{27, 731}";
}
);
paths = (
{
closed = 1;
nodes = (
"464 0 LINE SMOOTH",
"476 0 OFFCURVE",
"481 9 OFFCURVE",
"481 17 CURVE SMOOTH",
"481 27 OFFCURVE",
"475 36 OFFCURVE",
"464 36 CURVE SMOOTH",
"126 36 LINE",
"126 348 LINE",
"286 348 LINE SMOOTH",
"298 348 OFFCURVE",
"303 357 OFFCURVE",
"303 365 CURVE SMOOTH",
"303 375 OFFCURVE",
"297 384 OFFCURVE",
"286 384 CURVE SMOOTH",
"126 384 LINE",
"126 695 LINE",
"464 695 LINE SMOOTH",
"475 695 OFFCURVE",
"481 704 OFFCURVE",
"481 714 CURVE SMOOTH",
"481 722 OFFCURVE",
"476 731 OFFCURVE",
"464 731 CURVE SMOOTH",
"108 731 LINE SMOOTH",
"99 731 OFFCURVE",
"90 725 OFFCURVE",
"90 713 CURVE SMOOTH",
"90 18 LINE SMOOTH",
"90 6 OFFCURVE",
"99 0 OFFCURVE",
"108 0 CURVE SMOOTH"
);
}
);
};
hints = (
{
place = "{83, 36}";
},
{
horizontal = 1;
place = "{0, 36}";
},
{
horizontal = 1;
place = "{348, 36}";
},
{
horizontal = 1;
place = "{695, 36}";
}
);
layerId = UUID0;
paths = (
{
closed = 1;
nodes = (
"422 0 LINE SMOOTH",
"433 0 OFFCURVE",
"438 9 OFFCURVE",
"438 17 CURVE SMOOTH",
"438 27 OFFCURVE",
"432 36 OFFCURVE",
"422 36 CURVE SMOOTH",
"126 36 LINE",
"126 348 LINE",
"310 348 LINE SMOOTH",
"322 348 OFFCURVE",
"326 357 OFFCURVE",
"326 365 CURVE SMOOTH",
"326 375 OFFCURVE",
"321 384 OFFCURVE",
"310 384 CURVE SMOOTH",
"126 384 LINE",
"126 694 LINE",
"422 694 LINE SMOOTH",
"432 694 OFFCURVE",
"438 703 OFFCURVE",
"438 713 CURVE SMOOTH",
"438 721 OFFCURVE",
"433 730 OFFCURVE",
"422 730 CURVE SMOOTH",
"108 730 LINE SMOOTH",
"99 730 OFFCURVE",
"90 724 OFFCURVE",
"90 712 CURVE SMOOTH",
"90 18 LINE SMOOTH",
"90 6 OFFCURVE",
"99 0 OFFCURVE",
"108 0 CURVE SMOOTH"
);
}
);
width = 464;
},
{
anchors = (
{
name = bottom;
position = "{255, 0}";
},
{
name = ogonek;
position = "{458, 10}";
},
{
name = top;
position = "{255, 730}";
},
{
name = topleft;
position = "{20, 730}";
}
);
background = {
anchors = (
{
name = bottom;
position = "{270, 0}";
},
{
name = ogonek;
position = "{485, 10}";
},
{
name = top;
position = "{270, 731}";
},
{
name = topleft;
position = "{20, 731}";
}
);
paths = (
{
closed = 1;
nodes = (
"478 0 LINE SMOOTH",
"511 0 OFFCURVE",
"525 35 OFFCURVE",
"525 67 CURVE SMOOTH",
"525 104 OFFCURVE",
"508 136 OFFCURVE",
"478 136 CURVE SMOOTH",
"210 136 LINE",
"210 306 LINE",
"360 306 LINE SMOOTH",
"393 306 OFFCURVE",
"407 338 OFFCURVE",
"407 365 CURVE SMOOTH",
"407 397 OFFCURVE",
"390 426 OFFCURVE",
"360 426 CURVE SMOOTH",
"210 426 LINE",
"210 595 LINE",
"478 595 LINE SMOOTH",
"508 595 OFFCURVE",
"525 627 OFFCURVE",
"525 664 CURVE SMOOTH",
"525 696 OFFCURVE",
"511 731 OFFCURVE",
"478 731 CURVE SMOOTH",
"122 731 LINE SMOOTH",
"88 731 OFFCURVE",
"54 715 OFFCURVE",
"54 683 CURVE SMOOTH",
"54 48 LINE SMOOTH",
"54 16 OFFCURVE",
"88 0 OFFCURVE",
"122 0 CURVE SMOOTH"
);
}
);
};
hints = (
{
place = "{54, 156}";
},
{
horizontal = 1;
place = "{0, 136}";
},
{
horizontal = 1;
place = "{306, 120}";
},
{
horizontal = 1;
place = "{595, 136}";
}
);
layerId = "228CC867-ECE3-4F82-B853-1E58141B916C";
paths = (
{
closed = 1;
nodes = (
"449 0 LINE SMOOTH",
"481 0 OFFCURVE",
"495 35 OFFCURVE",
"495 67 CURVE SMOOTH",
"495 104 OFFCURVE",
"478 136 OFFCURVE",
"449 136 CURVE SMOOTH",
"210 136 LINE",
"210 306 LINE",
"371 306 LINE SMOOTH",
"404 306 OFFCURVE",
"417 338 OFFCURVE",
"417 365 CURVE SMOOTH",
"417 397 OFFCURVE",
"401 426 OFFCURVE",
"371 426 CURVE SMOOTH",
"210 426 LINE",
"210 594 LINE",
"449 594 LINE SMOOTH",
"478 594 OFFCURVE",
"495 626 OFFCURVE",
"495 663 CURVE SMOOTH",
"495 695 OFFCURVE",
"481 730 OFFCURVE",
"449 730 CURVE SMOOTH",
"122 730 LINE SMOOTH",
"88 730 OFFCURVE",
"54 714 OFFCURVE",
"54 682 CURVE SMOOTH",
"54 48 LINE SMOOTH",
"54 16 OFFCURVE",
"88 0 OFFCURVE",
"122 0 CURVE SMOOTH"
);
}
);
width = 509;
}
);
leftKerningGroup = I;
rightKerningGroup = E;
unicode = 0045;
},
{
color = 4;
glyphname = F;
lastChange = "2016-11-26 19:38:57 +0000";
layers = (
{
anchors = (
{
name = bottom;
position = "{224, 0}";
},
{
name = top;
position = "{224, 730}";
}
);
background = {
paths = (
{
closed = 1;
nodes = (
"117 0 OFFCURVE",
"126 5 OFFCURVE",
"126 17 CURVE SMOOTH",
"126 348 LINE",
"286 348 LINE SMOOTH",
"298 348 OFFCURVE",
"303 357 OFFCURVE",
"303 365 CURVE SMOOTH",
"303 375 OFFCURVE",
"297 384 OFFCURVE",
"286 384 CURVE SMOOTH",
"126 384 LINE",
"126 695 LINE",
"464 695 LINE SMOOTH",
"475 695 OFFCURVE",
"481 704 OFFCURVE",
"481 714 CURVE SMOOTH",
"481 722 OFFCURVE",
"476 731 OFFCURVE",
"464 731 CURVE SMOOTH",
"108 731 LINE SMOOTH",
"99 731 OFFCURVE",
"90 725 OFFCURVE",
"90 713 CURVE SMOOTH",
"90 17 LINE SMOOTH",
"90 5 OFFCURVE",
"99 0 OFFCURVE",
"108 0 CURVE SMOOTH"
);
}
);
};
hints = (
{
place = "{83, 36}";
},
{
horizontal = 1;
place = "{348, 36}";
},
{
horizontal = 1;
place = "{695, 36}";
},
{
horizontal = 1;
place = "{0, 21}";
target = up;
type = BottomGhost;
}
);
layerId = UUID0;
paths = (
{
closed = 1;
nodes = (
"117 0 OFFCURVE",
"126 5 OFFCURVE",
"126 17 CURVE SMOOTH",
"126 348 LINE",
"289 348 LINE SMOOTH",
"301 348 OFFCURVE",
"305 357 OFFCURVE",
"305 365 CURVE SMOOTH",
"305 375 OFFCURVE",
"300 384 OFFCURVE",
"289 384 CURVE SMOOTH",
"126 384 LINE",
"126 694 LINE",
"409 694 LINE SMOOTH",
"419 694 OFFCURVE",
"425 703 OFFCURVE",
"425 713 CURVE SMOOTH",
"425 721 OFFCURVE",
"420 730 OFFCURVE",
"409 730 CURVE SMOOTH",
"108 730 LINE SMOOTH",
"99 730 OFFCURVE",
"90 724 OFFCURVE",
"90 712 CURVE SMOOTH",
"90 17 LINE SMOOTH",
"90 5 OFFCURVE",
"99 0 OFFCURVE",
"108 0 CURVE SMOOTH"
);
}
);
width = 441;
},
{
anchors = (
{
name = bottom;
position = "{243, 0}";
},
{
name = top;
position = "{243, 730}";
}
);
background = {
paths = (
{
closed = 1;
nodes = (
"171 0 OFFCURVE",
"210 16 OFFCURVE",
"210 48 CURVE SMOOTH",
"210 306 LINE",
"361 306 LINE SMOOTH",
"394 306 OFFCURVE",
"408 338 OFFCURVE",
"408 365 CURVE SMOOTH",
"408 397 OFFCURVE",
"391 426 OFFCURVE",
"361 426 CURVE SMOOTH",
"210 426 LINE",
"210 595 LINE",
"469 595 LINE SMOOTH",
"499 595 OFFCURVE",
"516 627 OFFCURVE",
"516 664 CURVE SMOOTH",
"516 696 OFFCURVE",
"502 731 OFFCURVE",
"469 731 CURVE SMOOTH",
"122 731 LINE SMOOTH",
"88 731 OFFCURVE",
"54 715 OFFCURVE",
"54 683 CURVE SMOOTH",
"54 48 LINE SMOOTH",
"54 16 OFFCURVE",
"93 0 OFFCURVE",
"132 0 CURVE SMOOTH"
);
}
);
};
hints = (
{
place = "{54, 156}";
},
{
horizontal = 1;
place = "{306, 120}";
},
{
horizontal = 1;
place = "{595, 136}";
},
{
horizontal = 1;
place = "{0, 21}";
target = up;
type = BottomGhost;
}
);
layerId = "228CC867-ECE3-4F82-B853-1E58141B916C";
paths = (
{
closed = 1;
nodes = (
"171 0 OFFCURVE",
"210 16 OFFCURVE",
"210 48 CURVE SMOOTH",
"210 306 LINE",
"350 306 LINE SMOOTH",
"382 306 OFFCURVE",
"396 338 OFFCURVE",
"396 365 CURVE SMOOTH",
"396 397 OFFCURVE",
"379 426 OFFCURVE",
"350 426 CURVE SMOOTH",
"210 426 LINE",
"210 594 LINE",
"440 594 LINE SMOOTH",
"469 594 OFFCURVE",
"486 626 OFFCURVE",
"486 663 CURVE SMOOTH",
"486 695 OFFCURVE",
"472 730 OFFCURVE",
"440 730 CURVE SMOOTH",
"122 730 LINE SMOOTH",
"88 730 OFFCURVE",
"54 714 OFFCURVE",
"54 682 CURVE SMOOTH",
"54 48 LINE SMOOTH",
"54 16 OFFCURVE",
"93 0 OFFCURVE",
"132 0 CURVE SMOOTH"
);
}
);
width = 485;
}
);
leftKerningGroup = I;
unicode = 0046;
},
{
color = 4;
glyphname = G;
lastChange = "2016-11-26 19:38:57 +0000";
layers = (
{
anchors = (
{
name = bottom;
position = "{278, 0}";
},
{
name = top;
position = "{278, 730}";
}
);
background = {
paths = (
{
closed = 1;
nodes = (
"387 -6 OFFCURVE",
"473 50 OFFCURVE",
"473 200 CURVE SMOOTH",
"473 365 LINE SMOOTH",
"473 375 OFFCURVE",
"467 384 OFFCURVE",
"456 384 CURVE SMOOTH",
"278 384 LINE SMOOTH",
"267 384 OFFCURVE",
"261 375 OFFCURVE",
"261 366 CURVE SMOOTH",
"261 357 OFFCURVE",
"267 348 OFFCURVE",
"278 348 CURVE SMOOTH",
"437 348 LINE",
"437 200 LINE SMOOTH",
"437 84 OFFCURVE",
"377 30 OFFCURVE",
"277 30 CURVE SMOOTH",
"177 30 OFFCURVE",
"118 84 OFFCURVE",
"118 200 CURVE SMOOTH",
"118 525 LINE SMOOTH",
"118 641 OFFCURVE",
"177 695 OFFCURVE",
"277 695 CURVE SMOOTH",
"365 695 OFFCURVE",
"425 654 OFFCURVE",
"437 564 CURVE",
"438 552 OFFCURVE",
"446 546 OFFCURVE",
"455 546 CURVE SMOOTH",
"464 546 OFFCURVE",
"473 552 OFFCURVE",
"473 566 CURVE SMOOTH",
"473 658 OFFCURVE",
"400 731 OFFCURVE",
"277 731 CURVE SMOOTH",
"167 731 OFFCURVE",
"82 675 OFFCURVE",
"82 525 CURVE SMOOTH",
"82 200 LINE SMOOTH",
"82 50 OFFCURVE",
"167 -6 OFFCURVE",
"277 -6 CURVE SMOOTH"
);
}
);
};
hints = (
{
place = "{76, 36}";
},
{
place = "{431, 36}";
},
{
horizontal = 1;
place = "{-6, 36}";
},
{
horizontal = 1;
place = "{348, 36}";
},
{
horizontal = 1;
place = "{695, 36}";
}
);
layerId = UUID0;
paths = (
{
closed = 1;
nodes = (
"396 -6 OFFCURVE",
"485 50 OFFCURVE",
"485 200 CURVE SMOOTH",
"485 365 LINE SMOOTH",
"485 375 OFFCURVE",
"479 384 OFFCURVE",
"468 384 CURVE SMOOTH",
"284 384 LINE SMOOTH",
"273 384 OFFCURVE",
"266 375 OFFCURVE",
"266 366 CURVE SMOOTH",
"266 357 OFFCURVE",
"273 348 OFFCURVE",
"284 348 CURVE SMOOTH",
"449 348 LINE",
"449 200 LINE SMOOTH",
"449 84 OFFCURVE",
"387 30 OFFCURVE",
"283 30 CURVE SMOOTH",
"179 30 OFFCURVE",
"118 84 OFFCURVE",
"118 200 CURVE SMOOTH",
"118 530 LINE SMOOTH",
"118 646 OFFCURVE",
"184 700 OFFCURVE",
"297 700 CURVE SMOOTH",
"380 700 OFFCURVE",
"442 659 OFFCURVE",
"449 569 CURVE SMOOTH",
"450 556 OFFCURVE",
"458 551 OFFCURVE",
"467 551 CURVE SMOOTH",
"476 551 OFFCURVE",
"485 557 OFFCURVE",
"485 571 CURVE SMOOTH",
"485 663 OFFCURVE",
"415 736 OFFCURVE",
"297 736 CURVE SMOOTH",
"176 736 OFFCURVE",
"82 680 OFFCURVE",
"82 530 CURVE SMOOTH",
"82 200 LINE SMOOTH",
"82 50 OFFCURVE",
"170 -6 OFFCURVE",
"283 -6 CURVE SMOOTH"
);
}
);
width = 554;
},
{
anchors = (
{
name = bottom;
position = "{294, 0}";
},
{
name = top;
position = "{294, 730}";
}
);
background = {
paths = (
{
closed = 1;
nodes = (
"429 -6 OFFCURVE",
"537 58 OFFCURVE",
"537 230 CURVE SMOOTH",
"537 335 LINE SMOOTH",
"537 361 OFFCURVE",
"520 384 OFFCURVE",
"490 384 CURVE SMOOTH",
"322 384 LINE SMOOTH",
"292 384 OFFCURVE",
"275 353 OFFCURVE",
"275 324 CURVE SMOOTH",
"275 293 OFFCURVE",
"292 264 OFFCURVE",
"322 264 CURVE SMOOTH",
"381 264 LINE",
"381 230 LINE SMOOTH",
"381 162 OFFCURVE",
"347 130 OFFCURVE",
"291 130 CURVE SMOOTH",
"235 130 OFFCURVE",
"202 162 OFFCURVE",
"202 230 CURVE SMOOTH",
"202 495 LINE SMOOTH",
"202 563 OFFCURVE",
"235 595 OFFCURVE",
"292 595 CURVE SMOOTH",
"377 595 OFFCURVE",
"380 541 OFFCURVE",
"381 505 CURVE SMOOTH",
"382 469 OFFCURVE",
"417 458 OFFCURVE",
"459 458 CURVE SMOOTH",
"512 458 OFFCURVE",
"537 472 OFFCURVE",
"537 532 CURVE SMOOTH",
"537 659 OFFCURVE",
"429 731 OFFCURVE",
"286 731 CURVE SMOOTH",
"155 731 OFFCURVE",
"46 667 OFFCURVE",
"46 495 CURVE SMOOTH",
"46 230 LINE SMOOTH",
"46 58 OFFCURVE",
"153 -6 OFFCURVE",
"291 -6 CURVE SMOOTH"
);
}
);
};
hints = (
{
place = "{46, 156}";
},
{
place = "{381, 156}";
},
{
horizontal = 1;
place = "{-6, 136}";
},
{
horizontal = 1;
place = "{264, 120}";
},
{
horizontal = 1;
place = "{595, 136}";
}
);
layerId = "228CC867-ECE3-4F82-B853-1E58141B916C";
paths = (
{
closed = 1;
nodes = (
"440 -6 OFFCURVE",
"551 58 OFFCURVE",
"551 230 CURVE SMOOTH",
"551 335 LINE SMOOTH",
"551 361 OFFCURVE",
"534 384 OFFCURVE",
"504 384 CURVE SMOOTH",
"329 384 LINE SMOOTH",
"298 384 OFFCURVE",
"281 353 OFFCURVE",
"281 324 CURVE SMOOTH",
"281 293 OFFCURVE",
"298 264 OFFCURVE",
"329 264 CURVE SMOOTH",
"395 264 LINE",
"395 230 LINE SMOOTH",
"395 162 OFFCURVE",
"358 130 OFFCURVE",
"298 130 CURVE SMOOTH",
"238 130 OFFCURVE",
"202 162 OFFCURVE",
"202 230 CURVE SMOOTH",
"202 500 LINE SMOOTH",
"202 568 OFFCURVE",
"238 600 OFFCURVE",
"300 600 CURVE SMOOTH",
"388 600 OFFCURVE",
"394 546 OFFCURVE",
"395 510 CURVE SMOOTH",
"396 474 OFFCURVE",
"431 463 OFFCURVE",
"473 463 CURVE SMOOTH",
"526 463 OFFCURVE",
"551 477 OFFCURVE",
"551 537 CURVE SMOOTH",
"551 664 OFFCURVE",
"441 736 OFFCURVE",
"294 736 CURVE SMOOTH",
"158 736 OFFCURVE",
"46 672 OFFCURVE",
"46 500 CURVE SMOOTH",
"46 230 LINE SMOOTH",
"46 58 OFFCURVE",
"156 -6 OFFCURVE",
"298 -6 CURVE SMOOTH"
);
}
);
width = 587;
}
);
leftKerningGroup = O;
rightKerningGroup = G;
unicode = 0047;
},
{
color = 4;
glyphname = H;
lastChange = "2016-11-26 19:38:57 +0000";
layers = (
{
anchors = (
{
name = bottom;
position = "{291, 0}";
},
{
name = center;
position = "{291, 365}";
},
{
name = top;
position = "{291, 730}";
},
{
name = topleft;
position = "{27, 730}";
}
);
background = {
paths = (
{
closed = 1;
nodes = (
"117 0 OFFCURVE",
"126 6 OFFCURVE",
"126 18 CURVE SMOOTH",
"126 361 LINE",
"445 361 LINE",
"445 18 LINE SMOOTH",
"445 6 OFFCURVE",
"454 0 OFFCURVE",
"463 0 CURVE SMOOTH",
"472 0 OFFCURVE",
"481 6 OFFCURVE",
"481 18 CURVE SMOOTH",
"481 714 LINE SMOOTH",
"481 726 OFFCURVE",
"472 731 OFFCURVE",
"463 731 CURVE SMOOTH",
"454 731 OFFCURVE",
"445 726 OFFCURVE",
"445 714 CURVE SMOOTH",
"445 397 LINE",
"126 397 LINE",
"126 714 LINE SMOOTH",
"126 726 OFFCURVE",
"117 731 OFFCURVE",
"108 731 CURVE SMOOTH",
"99 731 OFFCURVE",
"90 726 OFFCURVE",
"90 714 CURVE SMOOTH",
"90 18 LINE SMOOTH",
"90 6 OFFCURVE",
"99 0 OFFCURVE",
"108 0 CURVE SMOOTH"
);
}
);
};
hints = (
{
place = "{83, 36}";
},
{
place = "{438, 36}";
},
{
horizontal = 1;
place = "{361, 36}";
},
{
horizontal = 1;
place = "{0, 21}";
target = up;
type = BottomGhost;
},
{
horizontal = 1;
place = "{731, -20}";
target = down;
type = TopGhost;
}
);
layerId = UUID0;
paths = (
{
closed = 1;
nodes = (
"117 0 OFFCURVE",
"126 6 OFFCURVE",
"126 18 CURVE SMOOTH",
"126 361 LINE",
"455 361 LINE",
"455 18 LINE SMOOTH",
"455 6 OFFCURVE",
"464 0 OFFCURVE",
"473 0 CURVE SMOOTH",
"482 0 OFFCURVE",
"491 6 OFFCURVE",
"491 18 CURVE SMOOTH",
"491 713 LINE SMOOTH",
"491 725 OFFCURVE",
"482 730 OFFCURVE",
"473 730 CURVE SMOOTH",
"464 730 OFFCURVE",
"455 725 OFFCURVE",
"455 713 CURVE SMOOTH",
"455 397 LINE",
"126 397 LINE",
"126 713 LINE SMOOTH",
"126 725 OFFCURVE",
"117 730 OFFCURVE",
"108 730 CURVE SMOOTH",
"99 730 OFFCURVE",
"90 725 OFFCURVE",
"90 713 CURVE SMOOTH",
"90 18 LINE SMOOTH",
"90 6 OFFCURVE",
"99 0 OFFCURVE",
"108 0 CURVE SMOOTH"
);
}
);
width = 581;
},
{
anchors = (
{
name = bottom;
position = "{316, 0}";
},
{
name = center;
position = "{316, 365}";
},
{
name = top;
position = "{316, 730}";
},
{
name = topleft;
position = "{20, 730}";
}
);
background = {
paths = (
{
closed = 1;
nodes = (
"171 0 OFFCURVE",
"210 16 OFFCURVE",
"210 48 CURVE SMOOTH",
"210 319 LINE",
"409 319 LINE",
"409 48 LINE SMOOTH",
"409 16 OFFCURVE",
"448 0 OFFCURVE",
"487 0 CURVE SMOOTH",
"526 0 OFFCURVE",
"565 16 OFFCURVE",
"565 48 CURVE SMOOTH",
"565 684 LINE SMOOTH",
"565 717 OFFCURVE",
"526 731 OFFCURVE",
"487 731 CURVE SMOOTH",
"448 731 OFFCURVE",
"409 717 OFFCURVE",
"409 684 CURVE SMOOTH",
"409 439 LINE",
"210 439 LINE",
"210 684 LINE SMOOTH",
"210 717 OFFCURVE",
"171 731 OFFCURVE",
"132 731 CURVE SMOOTH",
"93 731 OFFCURVE",
"54 717 OFFCURVE",
"54 684 CURVE SMOOTH",
"54 48 LINE SMOOTH",
"54 16 OFFCURVE",
"93 0 OFFCURVE",
"132 0 CURVE SMOOTH"
);
}
);
};
hints = (
{
place = "{54, 156}";
},
{
place = "{409, 156}";
},
{
horizontal = 1;
place = "{319, 120}";
},
{
horizontal = 1;
place = "{0, 21}";
target = up;
type = BottomGhost;
},
{
horizontal = 1;
place = "{731, -20}";
target = down;
type = TopGhost;
}
);
layerId = "228CC867-ECE3-4F82-B853-1E58141B916C";
paths = (
{
closed = 1;
nodes = (
"171 0 OFFCURVE",
"210 16 OFFCURVE",
"210 48 CURVE SMOOTH",
"210 319 LINE",
"421 319 LINE",
"421 48 LINE SMOOTH",
"421 16 OFFCURVE",
"460 0 OFFCURVE",
"499 0 CURVE SMOOTH",
"538 0 OFFCURVE",
"577 16 OFFCURVE",
"577 48 CURVE SMOOTH",
"577 683 LINE SMOOTH",
"577 716 OFFCURVE",
"538 730 OFFCURVE",
"499 730 CURVE SMOOTH",
"460 730 OFFCURVE",
"421 716 OFFCURVE",
"421 683 CURVE SMOOTH",
"421 439 LINE",
"210 439 LINE",
"210 683 LINE SMOOTH",
"210 716 OFFCURVE",
"171 730 OFFCURVE",
"132 730 CURVE SMOOTH",
"93 730 OFFCURVE",
"54 716 OFFCURVE",
"54 683 CURVE SMOOTH",
"54 48 LINE SMOOTH",
"54 16 OFFCURVE",
"93 0 OFFCURVE",
"132 0 CURVE SMOOTH"
);
}
);
width = 631;
}
);
leftKerningGroup = I;
rightKerningGroup = I;
unicode = 0048;
},
{
color = 7;
glyphname = Hbar;
lastChange = "2016-11-26 21:45:09 +0000";
layers = (
{
background = {
paths = (
{
closed = 1;
nodes = (
"112 0 OFFCURVE",
"121 6 OFFCURVE",
"121 18 CURVE SMOOTH",
"121 361 LINE",
"440 361 LINE",
"440 18 LINE SMOOTH",
"440 6 OFFCURVE",
"449 0 OFFCURVE",
"458 0 CURVE SMOOTH",
"467 0 OFFCURVE",
"476 6 OFFCURVE",
"476 18 CURVE SMOOTH",
"476 543 LINE",
"520 543 LINE SMOOTH",
"529 543 OFFCURVE",
"538 550 OFFCURVE",
"538 560 CURVE SMOOTH",
"538 570 OFFCURVE",
"529 578 OFFCURVE",
"520 578 CURVE SMOOTH",
"476 578 LINE",
"476 714 LINE SMOOTH",
"476 726 OFFCURVE",
"467 731 OFFCURVE",
"458 731 CURVE SMOOTH",
"449 731 OFFCURVE",
"440 726 OFFCURVE",
"440 714 CURVE SMOOTH",
"440 578 LINE",
"121 578 LINE",
"121 714 LINE SMOOTH",
"121 726 OFFCURVE",
"112 731 OFFCURVE",
"103 731 CURVE SMOOTH",
"94 731 OFFCURVE",
"85 726 OFFCURVE",
"85 714 CURVE SMOOTH",
"85 578 LINE",
"40 578 LINE SMOOTH",
"30 578 OFFCURVE",
"23 570 OFFCURVE",
"23 560 CURVE SMOOTH",
"23 550 OFFCURVE",
"30 543 OFFCURVE",
"40 543 CURVE SMOOTH",
"85 543 LINE",
"85 18 LINE SMOOTH",
"85 6 OFFCURVE",
"94 0 OFFCURVE",
"103 0 CURVE SMOOTH"
);
},
{
closed = 1;
nodes = (
"121 543 LINE",
"440 543 LINE",
"440 397 LINE",
"121 397 LINE"
);
}
);
};
hints = (
{
place = "{83, 36}";
},
{
place = "{438, 36}";
},
{
horizontal = 1;
place = "{361, 36}";
},
{
horizontal = 1;
place = "{543, 35}";
},
{
horizontal = 1;
place = "{543, 188}";
},
{
horizontal = 1;
place = "{0, 21}";
target = up;
type = BottomGhost;
}
);
layerId = UUID0;
paths = (
{
closed = 1;
nodes = (
"112 0 OFFCURVE",
"121 6 OFFCURVE",
"121 18 CURVE SMOOTH",
"121 361 LINE",
"440 361 LINE",
"440 18 LINE SMOOTH",
"440 6 OFFCURVE",
"449 0 OFFCURVE",
"458 0 CURVE SMOOTH",
"467 0 OFFCURVE",
"476 6 OFFCURVE",
"476 18 CURVE SMOOTH",
"476 543 LINE",
"520 543 LINE SMOOTH",
"529 543 OFFCURVE",
"538 550 OFFCURVE",
"538 560 CURVE SMOOTH",
"538 570 OFFCURVE",
"529 578 OFFCURVE",
"520 578 CURVE SMOOTH",
"476 578 LINE",
"476 714 LINE SMOOTH",
"476 726 OFFCURVE",
"467 731 OFFCURVE",
"458 731 CURVE SMOOTH",
"449 731 OFFCURVE",
"440 726 OFFCURVE",
"440 714 CURVE SMOOTH",
"440 578 LINE",
"121 578 LINE",
"121 714 LINE SMOOTH",
"121 726 OFFCURVE",
"112 731 OFFCURVE",
"103 731 CURVE SMOOTH",
"94 731 OFFCURVE",
"85 726 OFFCURVE",
"85 714 CURVE SMOOTH",
"85 578 LINE",
"40 578 LINE SMOOTH",
"30 578 OFFCURVE",
"23 570 OFFCURVE",
"23 560 CURVE SMOOTH",
"23 550 OFFCURVE",
"30 543 OFFCURVE",
"40 543 CURVE SMOOTH",
"85 543 LINE",
"85 18 LINE SMOOTH",
"85 6 OFFCURVE",
"94 0 OFFCURVE",
"103 0 CURVE SMOOTH"
);
},
{
closed = 1;
nodes = (
"121 543 LINE",
"440 543 LINE",
"440 397 LINE",
"121 397 LINE"
);
}
);
width = 561;
},
{
background = {
paths = (
{
closed = 1;
nodes = (
"173 0 OFFCURVE",
"212 16 OFFCURVE",
"212 48 CURVE SMOOTH",
"212 319 LINE",
"411 319 LINE",
"411 48 LINE SMOOTH",
"411 16 OFFCURVE",
"450 0 OFFCURVE",
"489 0 CURVE SMOOTH",
"528 0 OFFCURVE",
"567 16 OFFCURVE",
"567 48 CURVE SMOOTH",
"567 532 LINE",
"571 532 LINE SMOOTH",
"596 532 OFFCURVE",
"607 555 OFFCURVE",
"607 581 CURVE SMOOTH",
"607 605 OFFCURVE",
"596 630 OFFCURVE",
"571 630 CURVE SMOOTH",
"567 630 LINE",
"567 684 LINE SMOOTH",
"567 717 OFFCURVE",
"528 731 OFFCURVE",
"489 731 CURVE SMOOTH",
"450 731 OFFCURVE",
"411 717 OFFCURVE",
"411 684 CURVE SMOOTH",
"411 630 LINE",
"212 630 LINE",
"212 684 LINE SMOOTH",
"212 717 OFFCURVE",
"173 731 OFFCURVE",
"134 731 CURVE SMOOTH",
"95 731 OFFCURVE",
"56 717 OFFCURVE",
"56 684 CURVE SMOOTH",
"56 630 LINE",
"52 630 LINE SMOOTH",
"27 630 OFFCURVE",
"15 605 OFFCURVE",
"15 581 CURVE SMOOTH",
"15 556 OFFCURVE",
"27 532 OFFCURVE",
"52 532 CURVE SMOOTH",
"56 532 LINE",
"56 48 LINE SMOOTH",
"56 16 OFFCURVE",
"95 0 OFFCURVE",
"134 0 CURVE SMOOTH"
);
},
{
closed = 1;
nodes = (
"212 532 LINE",
"411 532 LINE",
"411 439 LINE",
"212 439 LINE"
);
}
);
};
hints = (
{
place = "{15, 197}";
},
{
place = "{56, 156}";
},
{
place = "{411, 156}";
},
{
place = "{411, 196}";
},
{
horizontal = 1;
place = "{319, 120}";
},
{
horizontal = 1;
place = "{532, 98}";
},
{
horizontal = 1;
place = "{532, 199}";
},
{
horizontal = 1;
place = "{0, 21}";
target = up;
type = BottomGhost;
}
);
layerId = "228CC867-ECE3-4F82-B853-1E58141B916C";
paths = (
{
closed = 1;
nodes = (
"173 0 OFFCURVE",
"212 16 OFFCURVE",
"212 48 CURVE SMOOTH",
"212 319 LINE",
"411 319 LINE",
"411 48 LINE SMOOTH",
"411 16 OFFCURVE",
"450 0 OFFCURVE",
"489 0 CURVE SMOOTH",
"528 0 OFFCURVE",
"567 16 OFFCURVE",
"567 48 CURVE SMOOTH",
"567 532 LINE",
"571 532 LINE SMOOTH",
"596 532 OFFCURVE",
"607 555 OFFCURVE",
"607 581 CURVE SMOOTH",
"607 605 OFFCURVE",
"596 630 OFFCURVE",
"571 630 CURVE SMOOTH",
"567 630 LINE",
"567 684 LINE SMOOTH",
"567 717 OFFCURVE",
"528 731 OFFCURVE",
"489 731 CURVE SMOOTH",
"450 731 OFFCURVE",
"411 717 OFFCURVE",
"411 684 CURVE SMOOTH",
"411 630 LINE",
"212 630 LINE",
"212 684 LINE SMOOTH",
"212 717 OFFCURVE",
"173 731 OFFCURVE",
"134 731 CURVE SMOOTH",
"95 731 OFFCURVE",
"56 717 OFFCURVE",
"56 684 CURVE SMOOTH",
"56 630 LINE",
"52 630 LINE SMOOTH",
"27 630 OFFCURVE",
"15 605 OFFCURVE",
"15 581 CURVE SMOOTH",
"15 556 OFFCURVE",
"27 532 OFFCURVE",
"52 532 CURVE SMOOTH",
"56 532 LINE",
"56 48 LINE SMOOTH",
"56 16 OFFCURVE",
"95 0 OFFCURVE",
"134 0 CURVE SMOOTH"
);
},
{
closed = 1;
nodes = (
"212 532 LINE",
"411 532 LINE",
"411 439 LINE",
"212 439 LINE"
);
}
);
width = 623;
}
);
leftKerningGroup = I;
rightKerningGroup = I;
unicode = 0126;
},
{
color = 4;
glyphname = I;
lastChange = "2016-11-26 19:38:57 +0000";
layers = (
{
anchors = (
{
name = bottom;
position = "{108, 0}";
},
{
name = ogonek;
position = "{189, 10}";
},
{
name = top;
position = "{108, 730}";
},
{
name = topleft;
position = "{27, 730}";
}
);
background = {
anchors = (
{
name = bottom;
position = "{108, 0}";
},
{
name = ogonek;
position = "{189, 10}";
},
{
name = top;
position = "{108, 731}";
},
{
name = topleft;
position = "{27, 731}";
}
);
paths = (
{
closed = 1;
nodes = (
"117 0 OFFCURVE",
"126 6 OFFCURVE",
"126 18 CURVE SMOOTH",
"126 714 LINE SMOOTH",
"126 726 OFFCURVE",
"117 731 OFFCURVE",
"108 731 CURVE SMOOTH",
"99 731 OFFCURVE",
"90 726 OFFCURVE",
"90 714 CURVE SMOOTH",
"90 18 LINE SMOOTH",
"90 6 OFFCURVE",
"99 0 OFFCURVE",
"108 0 CURVE SMOOTH"
);
}
);
};
hints = (
{
place = "{83, 36}";
},
{
horizontal = 1;
place = "{0, 21}";
target = up;
type = BottomGhost;
},
{
horizontal = 1;
place = "{731, -20}";
target = down;
type = TopGhost;
}
);
layerId = UUID0;
paths = (
{
closed = 1;
nodes = (
"117 0 OFFCURVE",
"126 6 OFFCURVE",
"126 18 CURVE SMOOTH",
"126 713 LINE SMOOTH",
"126 725 OFFCURVE",
"117 730 OFFCURVE",
"108 730 CURVE SMOOTH",
"99 730 OFFCURVE",
"90 725 OFFCURVE",
"90 713 CURVE SMOOTH",
"90 18 LINE SMOOTH",
"90 6 OFFCURVE",
"99 0 OFFCURVE",
"108 0 CURVE SMOOTH"
);
}
);
width = 216;
},
{
anchors = (
{
name = bottom;
position = "{132, 0}";
},
{
name = ogonek;
position = "{238, 10}";
},
{
name = top;
position = "{132, 730}";
},
{
name = topleft;
position = "{20, 730}";
}
);
background = {
anchors = (
{
name = bottom;
position = "{132, 0}";
},
{
name = ogonek;
position = "{238, 10}";
},
{
name = top;
position = "{132, 731}";
},
{
name = topleft;
position = "{20, 731}";
}
);
paths = (
{
closed = 1;
nodes = (
"171 0 OFFCURVE",
"210 16 OFFCURVE",
"210 48 CURVE SMOOTH",
"210 684 LINE SMOOTH",
"210 717 OFFCURVE",
"171 731 OFFCURVE",
"132 731 CURVE SMOOTH",
"93 731 OFFCURVE",
"54 717 OFFCURVE",
"54 684 CURVE SMOOTH",
"54 48 LINE SMOOTH",
"54 16 OFFCURVE",
"93 0 OFFCURVE",
"132 0 CURVE SMOOTH"
);
}
);
};
hints = (
{
place = "{54, 156}";
},
{
horizontal = 1;
place = "{0, 21}";
target = up;
type = BottomGhost;
},
{
horizontal = 1;
place = "{731, -20}";
target = down;
type = TopGhost;
}
);
layerId = "228CC867-ECE3-4F82-B853-1E58141B916C";
paths = (
{
closed = 1;
nodes = (
"171 0 OFFCURVE",
"210 16 OFFCURVE",
"210 48 CURVE SMOOTH",
"210 683 LINE SMOOTH",
"210 716 OFFCURVE",
"171 730 OFFCURVE",
"132 730 CURVE SMOOTH",
"93 730 OFFCURVE",
"54 716 OFFCURVE",
"54 683 CURVE SMOOTH",
"54 48 LINE SMOOTH",
"54 16 OFFCURVE",
"93 0 OFFCURVE",
"132 0 CURVE SMOOTH"
);
}
);
width = 264;
}
);
leftKerningGroup = I;
rightKerningGroup = I;
unicode = 0049;
},
{
color = 4;
glyphname = J;
lastChange = "2016-11-26 19:38:57 +0000";
layers = (
{
anchors = (
{
name = bottom;
position = "{230, 0}";
},
{
name = top;
position = "{230, 730}";
}
);
background = {
paths = (
{
closed = 1;
nodes = (
"334 -6 OFFCURVE",
"419 50 OFFCURVE",
"419 200 CURVE SMOOTH",
"419 713 LINE SMOOTH",
"419 725 OFFCURVE",
"410 731 OFFCURVE",
"401 731 CURVE SMOOTH",
"224 731 LINE SMOOTH",
"212 731 OFFCURVE",
"207 722 OFFCURVE",
"207 714 CURVE SMOOTH",
"207 704 OFFCURVE",
"213 695 OFFCURVE",
"224 695 CURVE SMOOTH",
"383 695 LINE",
"383 200 LINE SMOOTH",
"383 84 OFFCURVE",
"324 30 OFFCURVE",
"224 30 CURVE SMOOTH",
"136 30 OFFCURVE",
"64 72 OFFCURVE",
"64 161 CURVE SMOOTH",
"64 173 OFFCURVE",
"54 179 OFFCURVE",
"45 179 CURVE SMOOTH",
"36 179 OFFCURVE",
"28 173 OFFCURVE",
"28 159 CURVE SMOOTH",
"28 67 OFFCURVE",
"101 -6 OFFCURVE",
"224 -6 CURVE SMOOTH"
);
}
);
};
hints = (
{
place = "{26, 36}";
},
{
place = "{381, 36}";
},
{
horizontal = 1;
place = "{-6, 36}";
},
{
horizontal = 1;
place = "{695, 36}";
}
);
layerId = UUID0;
paths = (
{
closed = 1;
nodes = (
"303 -6 OFFCURVE",
"379 50 OFFCURVE",
"379 200 CURVE SMOOTH",
"379 712 LINE SMOOTH",
"379 724 OFFCURVE",
"370 730 OFFCURVE",
"361 730 CURVE SMOOTH",
"204 730 LINE SMOOTH",
"193 730 OFFCURVE",
"188 721 OFFCURVE",
"188 713 CURVE SMOOTH",
"188 703 OFFCURVE",
"194 694 OFFCURVE",
"204 694 CURVE SMOOTH",
"343 694 LINE",
"343 200 LINE SMOOTH",
"343 84 OFFCURVE",
"291 30 OFFCURVE",
"204 30 CURVE SMOOTH",
"126 30 OFFCURVE",
"64 72 OFFCURVE",
"64 161 CURVE SMOOTH",
"63 173 OFFCURVE",
"54 179 OFFCURVE",
"45 179 CURVE SMOOTH",
"36 179 OFFCURVE",
"28 173 OFFCURVE",
"28 159 CURVE SMOOTH",
"28 67 OFFCURVE",
"94 -6 OFFCURVE",
"204 -6 CURVE SMOOTH"
);
}
);
width = 464;
},
{
anchors = (
{
name = bottom;
position = "{264, 0}";
},
{
name = top;
position = "{264, 730}";
}
);
background = {
paths = (
{
closed = 1;
nodes = (
"388 -6 OFFCURVE",
"497 58 OFFCURVE",
"497 230 CURVE SMOOTH",
"497 683 LINE SMOOTH",
"497 715 OFFCURVE",
"463 731 OFFCURVE",
"429 731 CURVE SMOOTH",
"254 731 LINE SMOOTH",
"221 731 OFFCURVE",
"207 696 OFFCURVE",
"207 664 CURVE SMOOTH",
"207 627 OFFCURVE",
"224 595 OFFCURVE",
"254 595 CURVE SMOOTH",
"341 595 LINE",
"341 230 LINE SMOOTH",
"341 162 OFFCURVE",
"308 130 OFFCURVE",
"250 130 CURVE SMOOTH",
"170 130 OFFCURVE",
"165 191 OFFCURVE",
"162 230 CURVE SMOOTH",
"159 267 OFFCURVE",
"125 277 OFFCURVE",
"85 277 CURVE SMOOTH",
"31 277 OFFCURVE",
"6 263 OFFCURVE",
"6 203 CURVE SMOOTH",
"6 70 OFFCURVE",
"114 -6 OFFCURVE",
"257 -6 CURVE SMOOTH"
);
}
);
};
hints = (
{
place = "{6, 156}";
},
{
place = "{341, 156}";
},
{
horizontal = 1;
place = "{-6, 136}";
},
{
horizontal = 1;
place = "{595, 136}";
}
);
layerId = "228CC867-ECE3-4F82-B853-1E58141B916C";
paths = (
{
closed = 1;
nodes = (
"372 -6 OFFCURVE",
"477 58 OFFCURVE",
"477 230 CURVE SMOOTH",
"477 682 LINE SMOOTH",
"477 714 OFFCURVE",
"443 730 OFFCURVE",
"409 730 CURVE SMOOTH",
"243 730 LINE SMOOTH",
"205 730 OFFCURVE",
"189 698 OFFCURVE",
"189 663 CURVE SMOOTH",
"189 623 OFFCURVE",
"209 594 OFFCURVE",
"243 594 CURVE SMOOTH",
"321 594 LINE",
"321 230 LINE SMOOTH",
"321 162 OFFCURVE",
"292 130 OFFCURVE",
"240 130 CURVE SMOOTH",
"165 130 OFFCURVE",
"165 191 OFFCURVE",
"162 230 CURVE SMOOTH",
"159 267 OFFCURVE",
"125 277 OFFCURVE",
"85 277 CURVE SMOOTH",
"31 277 OFFCURVE",
"6 263 OFFCURVE",
"6 203 CURVE SMOOTH",
"6 70 OFFCURVE",
"111 -6 OFFCURVE",
"247 -6 CURVE SMOOTH"
);
}
);
width = 528;
}
);
leftKerningGroup = J;
rightKerningGroup = J;
unicode = 004A;
},
{
color = 4;
glyphname = K;
lastChange = "2016-11-26 19:38:57 +0000";
layers = (
{
anchors = (
{
name = bottom;
position = "{261, 0}";
},
{
name = top;
position = "{261, 730}";
}
);
background = {
paths = (
{
closed = 1;
nodes = (
"477 702 LINE",
"480 705 OFFCURVE",
"481 709 OFFCURVE",
"481 712 CURVE SMOOTH",
"481 722 OFFCURVE",
"472 731 OFFCURVE",
"463 731 CURVE SMOOTH",
"458 731 OFFCURVE",
"452 729 OFFCURVE",
"449 725 CURVE SMOOTH",
"117 311 LINE",
"117 254 LINE"
);
},
{
closed = 1;
nodes = (
"117 0 OFFCURVE",
"126 6 OFFCURVE",
"126 18 CURVE SMOOTH",
"126 714 LINE SMOOTH",
"126 726 OFFCURVE",
"117 731 OFFCURVE",
"108 731 CURVE SMOOTH",
"99 731 OFFCURVE",
"90 726 OFFCURVE",
"90 714 CURVE SMOOTH",
"90 18 LINE SMOOTH",
"90 6 OFFCURVE",
"99 0 OFFCURVE",
"108 0 CURVE SMOOTH"
);
},
{
closed = 1;
nodes = (
"498 0 OFFCURVE",
"507 8 OFFCURVE",
"507 18 CURVE SMOOTH",
"507 21 OFFCURVE",
"506 24 OFFCURVE",
"504 27 CURVE SMOOTH",
"241 423 LINE",
"217 393 LINE",
"473 9 LINE SMOOTH",
"477 3 OFFCURVE",
"483 0 OFFCURVE",
"488 0 CURVE SMOOTH"
);
}
);
};
guideLines = (
{
position = "{133, 486}";
},
{
position = "{133, 243}";
}
);
hints = (
{
place = "{83, 36}";
},
{
horizontal = 1;
place = "{0, 21}";
target = up;
type = BottomGhost;
},
{
horizontal = 1;
place = "{731, -20}";
target = down;
type = TopGhost;
}
);
layerId = UUID0;
paths = (
{
closed = 1;
nodes = (
"477 701 LINE",
"480 704 OFFCURVE",
"481 708 OFFCURVE",
"481 711 CURVE SMOOTH",
"481 721 OFFCURVE",
"472 730 OFFCURVE",
"463 730 CURVE SMOOTH",
"458 730 OFFCURVE",
"452 728 OFFCURVE",
"449 724 CURVE SMOOTH",
"119 305 LINE",
"119 248 LINE"
);
},
{
closed = 1;
nodes = (
"117 0 OFFCURVE",
"126 6 OFFCURVE",
"126 18 CURVE SMOOTH",
"126 713 LINE SMOOTH",
"126 725 OFFCURVE",
"117 730 OFFCURVE",
"108 730 CURVE SMOOTH",
"99 730 OFFCURVE",
"90 725 OFFCURVE",
"90 713 CURVE SMOOTH",
"90 18 LINE SMOOTH",
"90 6 OFFCURVE",
"99 0 OFFCURVE",
"108 0 CURVE SMOOTH"
);
},
{
closed = 1;
nodes = (
"498 0 OFFCURVE",
"507 8 OFFCURVE",
"507 18 CURVE SMOOTH",
"507 21 OFFCURVE",
"506 24 OFFCURVE",
"504 27 CURVE SMOOTH",
"230 406 LINE",
"206 377 LINE",
"473 9 LINE SMOOTH",
"477 3 OFFCURVE",
"483 0 OFFCURVE",
"488 0 CURVE SMOOTH"
);
}
);
width = 516;
},
{
anchors = (
{
name = bottom;
position = "{284, 0}";
},
{
name = top;
position = "{284, 730}";
}
);
background = {
paths = (
{
closed = 1;
nodes = (
"520 621 LINE SMOOTH",
"528 632 OFFCURVE",
"530 643 OFFCURVE",
"530 651 CURVE SMOOTH",
"530 690 OFFCURVE",
"478 731 OFFCURVE",
"438 731 CURVE SMOOTH",
"422 731 OFFCURVE",
"408 725 OFFCURVE",
"397 709 CURVE SMOOTH",
"201 431 LINE",
"200 216 LINE"
);
},
{
closed = 1;
nodes = (
"171 0 OFFCURVE",
"210 16 OFFCURVE",
"210 48 CURVE SMOOTH",
"210 684 LINE SMOOTH",
"210 717 OFFCURVE",
"171 731 OFFCURVE",
"132 731 CURVE SMOOTH",
"93 731 OFFCURVE",
"54 717 OFFCURVE",
"54 684 CURVE SMOOTH",
"54 48 LINE SMOOTH",
"54 16 OFFCURVE",
"93 0 OFFCURVE",
"132 0 CURVE SMOOTH"
);
},
{
closed = 1;
nodes = (
"522 -6 OFFCURVE",
"571 33 OFFCURVE",
"571 72 CURVE SMOOTH",
"571 81 OFFCURVE",
"568 90 OFFCURVE",
"563 98 CURVE SMOOTH",
"347 428 LINE",
"243 296 LINE",
"423 23 LINE SMOOTH",
"436 2 OFFCURVE",
"456 -6 OFFCURVE",
"477 -6 CURVE SMOOTH"
);
}
);
};
guideLines = (
{
position = "{126, 486}";
},
{
position = "{126, 243}";
}
);
hints = (
{
place = "{54, 156}";
},
{
horizontal = 1;
place = "{0, 21}";
target = up;
type = BottomGhost;
},
{
horizontal = 1;
place = "{-6, 21}";
target = up;
type = BottomGhost;
},
{
horizontal = 1;
place = "{731, -20}";
target = down;
type = TopGhost;
}
);
layerId = "228CC867-ECE3-4F82-B853-1E58141B916C";
paths = (
{
closed = 1;
nodes = (
"515 634 LINE SMOOTH",
"529 653 OFFCURVE",
"536 667 OFFCURVE",
"536 682 CURVE SMOOTH",
"536 711 OFFCURVE",
"505 730 OFFCURVE",
"463 730 CURVE SMOOTH",
"430 730 OFFCURVE",
"394 716 OFFCURVE",
"376 691 CURVE SMOOTH",
"112 320 LINE",
"205 220 LINE"
);
},
{
closed = 1;
nodes = (
"171 0 OFFCURVE",
"210 16 OFFCURVE",
"210 48 CURVE SMOOTH",
"210 683 LINE SMOOTH",
"210 716 OFFCURVE",
"171 730 OFFCURVE",
"132 730 CURVE SMOOTH",
"93 730 OFFCURVE",
"54 716 OFFCURVE",
"54 683 CURVE SMOOTH",
"54 48 LINE SMOOTH",
"54 16 OFFCURVE",
"93 0 OFFCURVE",
"132 0 CURVE SMOOTH"
);
},
{
closed = 1;
nodes = (
"539 0 OFFCURVE",
"574 18 OFFCURVE",
"574 55 CURVE SMOOTH",
"574 69 OFFCURVE",
"566 83 OFFCURVE",
"556 98 CURVE SMOOTH",
"326 429 LINE",
"196 366 LINE",
"411 38 LINE SMOOTH",
"429 11 OFFCURVE",
"467 0 OFFCURVE",
"500 0 CURVE SMOOTH"
);
}
);
width = 568;
},
{
associatedMasterId = "228CC867-ECE3-4F82-B853-1E58141B916C";
background = {
paths = (
{
closed = 1;
nodes = (
"171 0 OFFCURVE",
"210 16 OFFCURVE",
"210 48 CURVE SMOOTH",
"210 229 LINE",
"252 283 LINE",
"423 23 LINE SMOOTH",
"436 2 OFFCURVE",
"456 -6 OFFCURVE",
"477 -6 CURVE SMOOTH",
"522 -6 OFFCURVE",
"571 33 OFFCURVE",
"571 72 CURVE SMOOTH",
"571 81 OFFCURVE",
"568 90 OFFCURVE",
"563 98 CURVE SMOOTH",
"356 415 LINE",
"520 621 LINE",
"528 632 OFFCURVE",
"530 643 OFFCURVE",
"530 651 CURVE SMOOTH",
"530 690 OFFCURVE",
"478 731 OFFCURVE",
"438 731 CURVE SMOOTH",
"422 731 OFFCURVE",
"408 725 OFFCURVE",
"397 709 CURVE SMOOTH",
"210 444 LINE",
"210 684 LINE SMOOTH",
"210 717 OFFCURVE",
"171 731 OFFCURVE",
"132 731 CURVE SMOOTH",
"93 731 OFFCURVE",
"54 717 OFFCURVE",
"54 684 CURVE SMOOTH",
"54 48 LINE SMOOTH",
"54 16 OFFCURVE",
"93 0 OFFCURVE",
"132 0 CURVE SMOOTH"
);
}
);
};
hints = (
{
place = "{54, 156}";
},
{
horizontal = 1;
place = "{0, 21}";
target = up;
type = BottomGhost;
},
{
horizontal = 1;
place = "{-6, 21}";
target = up;
type = BottomGhost;
},
{
horizontal = 1;
place = "{731, -20}";
target = down;
type = TopGhost;
}
);
layerId = "6CE2ED8C-9E8B-404C-8117-43DC028C0256";
name = "Nov 18 16, 03:51";
paths = (
{
closed = 1;
nodes = (
"171 0 OFFCURVE",
"210 16 OFFCURVE",
"210 48 CURVE SMOOTH",
"210 229 LINE",
"252 283 LINE",
"423 23 LINE SMOOTH",
"436 2 OFFCURVE",
"456 -6 OFFCURVE",
"477 -6 CURVE SMOOTH",
"522 -6 OFFCURVE",
"571 33 OFFCURVE",
"571 72 CURVE SMOOTH",
"571 81 OFFCURVE",
"568 90 OFFCURVE",
"563 98 CURVE SMOOTH",
"356 415 LINE",
"520 621 LINE",
"528 632 OFFCURVE",
"530 643 OFFCURVE",
"530 651 CURVE SMOOTH",
"530 690 OFFCURVE",
"478 731 OFFCURVE",
"438 731 CURVE SMOOTH",
"422 731 OFFCURVE",
"408 725 OFFCURVE",
"397 709 CURVE SMOOTH",
"210 444 LINE",
"210 684 LINE SMOOTH",
"210 717 OFFCURVE",
"171 731 OFFCURVE",
"132 731 CURVE SMOOTH",
"93 731 OFFCURVE",
"54 717 OFFCURVE",
"54 684 CURVE SMOOTH",
"54 48 LINE SMOOTH",
"54 16 OFFCURVE",
"93 0 OFFCURVE",
"132 0 CURVE SMOOTH"
);
}
);
width = 566;
},
{
associatedMasterId = UUID0;
background = {
paths = (
{
closed = 1;
nodes = (
"110 0 OFFCURVE",
"119 6 OFFCURVE",
"119 18 CURVE SMOOTH",
"119 265 LINE",
"215 385 LINE",
"466 9 LINE SMOOTH",
"470 3 OFFCURVE",
"476 0 OFFCURVE",
"481 0 CURVE SMOOTH",
"491 0 OFFCURVE",
"500 8 OFFCURVE",
"500 18 CURVE SMOOTH",
"500 21 OFFCURVE",
"499 24 OFFCURVE",
"497 27 CURVE SMOOTH",
"239 415 LINE",
"470 702 LINE",
"473 705 OFFCURVE",
"474 709 OFFCURVE",
"474 712 CURVE SMOOTH",
"474 722 OFFCURVE",
"465 731 OFFCURVE",
"456 731 CURVE SMOOTH",
"451 731 OFFCURVE",
"445 729 OFFCURVE",
"442 725 CURVE SMOOTH",
"119 322 LINE",
"119 714 LINE SMOOTH",
"119 726 OFFCURVE",
"110 731 OFFCURVE",
"101 731 CURVE SMOOTH",
"92 731 OFFCURVE",
"83 726 OFFCURVE",
"83 714 CURVE SMOOTH",
"83 18 LINE SMOOTH",
"83 6 OFFCURVE",
"92 0 OFFCURVE",
"101 0 CURVE SMOOTH"
);
}
);
};
guideLines = (
{
position = "{126, 486}";
},
{
position = "{126, 243}";
}
);
hints = (
{
place = "{83, 36}";
},
{
horizontal = 1;
place = "{0, 21}";
target = up;
type = BottomGhost;
},
{
horizontal = 1;
place = "{731, -20}";
target = down;
type = TopGhost;
}
);
layerId = "DB9A9AA8-6079-44B6-9990-87393FB76B32";
name = "Nov 18 16, 03:59";
paths = (
{
closed = 1;
nodes = (
"470 702 LINE",
"473 705 OFFCURVE",
"474 709 OFFCURVE",
"474 712 CURVE SMOOTH",
"474 722 OFFCURVE",
"465 731 OFFCURVE",
"456 731 CURVE SMOOTH",
"451 731 OFFCURVE",
"445 729 OFFCURVE",
"442 725 CURVE SMOOTH",
"110 311 LINE",
"110 254 LINE"
);
},
{
closed = 1;
nodes = (
"110 0 OFFCURVE",
"119 6 OFFCURVE",
"119 18 CURVE SMOOTH",
"119 714 LINE SMOOTH",
"119 726 OFFCURVE",
"110 731 OFFCURVE",
"101 731 CURVE SMOOTH",
"92 731 OFFCURVE",
"83 726 OFFCURVE",
"83 714 CURVE SMOOTH",
"83 18 LINE SMOOTH",
"83 6 OFFCURVE",
"92 0 OFFCURVE",
"101 0 CURVE SMOOTH"
);
},
{
closed = 1;
nodes = (
"491 0 OFFCURVE",
"500 8 OFFCURVE",
"500 18 CURVE SMOOTH",
"500 21 OFFCURVE",
"499 24 OFFCURVE",
"497 27 CURVE SMOOTH",
"234 423 LINE",
"210 393 LINE",
"466 9 LINE SMOOTH",
"470 3 OFFCURVE",
"476 0 OFFCURVE",
"481 0 CURVE SMOOTH"
);
}
);
width = 508;
},
{
associatedMasterId = "228CC867-ECE3-4F82-B853-1E58141B916C";
background = {
paths = (
{
closed = 1;
nodes = (
"520 621 LINE SMOOTH",
"528 632 OFFCURVE",
"530 643 OFFCURVE",
"530 651 CURVE SMOOTH",
"530 690 OFFCURVE",
"478 731 OFFCURVE",
"438 731 CURVE SMOOTH",
"422 731 OFFCURVE",
"408 725 OFFCURVE",
"397 709 CURVE SMOOTH",
"201 431 LINE",
"200 216 LINE"
);
},
{
closed = 1;
nodes = (
"171 0 OFFCURVE",
"210 16 OFFCURVE",
"210 48 CURVE SMOOTH",
"210 684 LINE SMOOTH",
"210 717 OFFCURVE",
"171 731 OFFCURVE",
"132 731 CURVE SMOOTH",
"93 731 OFFCURVE",
"54 717 OFFCURVE",
"54 684 CURVE SMOOTH",
"54 48 LINE SMOOTH",
"54 16 OFFCURVE",
"93 0 OFFCURVE",
"132 0 CURVE SMOOTH"
);
},
{
closed = 1;
nodes = (
"522 -6 OFFCURVE",
"571 33 OFFCURVE",
"571 72 CURVE SMOOTH",
"571 81 OFFCURVE",
"568 90 OFFCURVE",
"563 98 CURVE SMOOTH",
"347 428 LINE",
"243 296 LINE",
"423 23 LINE SMOOTH",
"436 2 OFFCURVE",
"456 -6 OFFCURVE",
"477 -6 CURVE SMOOTH"
);
}
);
};
guideLines = (
{
position = "{126, 486}";
},
{
position = "{126, 243}";
}
);
hints = (
{
place = "{54, 156}";
},
{
horizontal = 1;
place = "{0, 21}";
target = up;
type = BottomGhost;
},
{
horizontal = 1;
place = "{-6, 21}";
target = up;
type = BottomGhost;
},
{
horizontal = 1;
place = "{731, -20}";
target = down;
type = TopGhost;
}
);
layerId = "8F5E53FA-A683-42E1-95B3-254F264C27D6";
name = "Nov 18 16, 04:02";
paths = (
{
closed = 1;
nodes = (
"514 635 LINE SMOOTH",
"529 654 OFFCURVE",
"535 668 OFFCURVE",
"535 683 CURVE SMOOTH",
"535 712 OFFCURVE",
"504 731 OFFCURVE",
"462 731 CURVE SMOOTH",
"429 731 OFFCURVE",
"394 717 OFFCURVE",
"375 692 CURVE SMOOTH",
"111 335 LINE",
"210 243 LINE"
);
},
{
closed = 1;
nodes = (
"171 0 OFFCURVE",
"210 16 OFFCURVE",
"210 48 CURVE SMOOTH",
"210 684 LINE SMOOTH",
"210 717 OFFCURVE",
"171 731 OFFCURVE",
"132 731 CURVE SMOOTH",
"93 731 OFFCURVE",
"54 717 OFFCURVE",
"54 684 CURVE SMOOTH",
"54 48 LINE SMOOTH",
"54 16 OFFCURVE",
"93 0 OFFCURVE",
"132 0 CURVE SMOOTH"
);
},
{
closed = 1;
nodes = (
"539 0 OFFCURVE",
"574 18 OFFCURVE",
"574 55 CURVE SMOOTH",
"574 69 OFFCURVE",
"568 84 OFFCURVE",
"556 98 CURVE SMOOTH",
"287 415 LINE",
"157 352 LINE",
"411 38 LINE SMOOTH",
"432 13 OFFCURVE",
"467 0 OFFCURVE",
"500 0 CURVE SMOOTH"
);
}
);
width = 566;
}
);
leftKerningGroup = I;
rightKerningGroup = K;
unicode = 004B;
},
{
color = 4;
glyphname = L;
lastChange = "2016-11-26 19:38:57 +0000";
layers = (
{
anchors = (
{
name = bottom;
position = "{215, 0}";
},
{
name = center;
position = "{215, 365}";
},
{
name = top;
position = "{215, 730}";
},
{
name = topright;
position = "{403, 730}";
}
);
background = {
paths = (
{
closed = 1;
nodes = (
"430 0 LINE SMOOTH",
"440 0 OFFCURVE",
"445 9 OFFCURVE",
"445 18 CURVE SMOOTH",
"445 27 OFFCURVE",
"440 36 OFFCURVE",
"430 36 CURVE SMOOTH",
"126 36 LINE",
"126 714 LINE SMOOTH",
"126 726 OFFCURVE",
"117 731 OFFCURVE",
"108 731 CURVE SMOOTH",
"99 731 OFFCURVE",
"90 726 OFFCURVE",
"90 714 CURVE SMOOTH",
"90 18 LINE SMOOTH",
"90 6 OFFCURVE",
"99 0 OFFCURVE",
"108 0 CURVE SMOOTH"
);
}
);
};
hints = (
{
place = "{83, 36}";
},
{
horizontal = 1;
place = "{0, 36}";
},
{
horizontal = 1;
place = "{731, -20}";
target = down;
type = TopGhost;
}
);
layerId = UUID0;
paths = (
{
closed = 1;
nodes = (
"394 0 LINE SMOOTH",
"404 0 OFFCURVE",
"409 9 OFFCURVE",
"409 18 CURVE SMOOTH",
"409 27 OFFCURVE",
"404 36 OFFCURVE",
"394 36 CURVE SMOOTH",
"126 36 LINE",
"126 713 LINE SMOOTH",
"126 725 OFFCURVE",
"117 730 OFFCURVE",
"108 730 CURVE SMOOTH",
"99 730 OFFCURVE",
"90 725 OFFCURVE",
"90 713 CURVE SMOOTH",
"90 18 LINE SMOOTH",
"90 6 OFFCURVE",
"99 0 OFFCURVE",
"108 0 CURVE SMOOTH"
);
}
);
width = 424;
},
{
anchors = (
{
name = bottom;
position = "{231, 0}";
},
{
name = center;
position = "{231, 365}";
},
{
name = top;
position = "{231, 730}";
},
{
name = topright;
position = "{442, 730}";
}
);
background = {
paths = (
{
closed = 1;
nodes = (
"438 0 LINE SMOOTH",
"468 0 OFFCURVE",
"483 34 OFFCURVE",
"483 68 CURVE SMOOTH",
"483 102 OFFCURVE",
"468 136 OFFCURVE",
"438 136 CURVE SMOOTH",
"210 136 LINE",
"210 684 LINE SMOOTH",
"210 717 OFFCURVE",
"171 731 OFFCURVE",
"132 731 CURVE SMOOTH",
"93 731 OFFCURVE",
"54 717 OFFCURVE",
"54 684 CURVE SMOOTH",
"54 48 LINE SMOOTH",
"54 16 OFFCURVE",
"88 0 OFFCURVE",
"122 0 CURVE SMOOTH"
);
}
);
};
hints = (
{
place = "{54, 156}";
},
{
horizontal = 1;
place = "{0, 136}";
},
{
horizontal = 1;
place = "{731, -20}";
target = down;
type = TopGhost;
}
);
layerId = "228CC867-ECE3-4F82-B853-1E58141B916C";
paths = (
{
closed = 1;
nodes = (
"409 0 LINE SMOOTH",
"438 0 OFFCURVE",
"453 34 OFFCURVE",
"453 68 CURVE SMOOTH",
"453 102 OFFCURVE",
"438 136 OFFCURVE",
"409 136 CURVE SMOOTH",
"210 136 LINE",
"210 683 LINE SMOOTH",
"210 716 OFFCURVE",
"171 730 OFFCURVE",
"132 730 CURVE SMOOTH",
"93 730 OFFCURVE",
"54 716 OFFCURVE",
"54 683 CURVE SMOOTH",
"54 48 LINE SMOOTH",
"54 16 OFFCURVE",
"88 0 OFFCURVE",
"122 0 CURVE SMOOTH"
);
}
);
width = 462;
}
);
leftKerningGroup = I;
rightKerningGroup = L;
unicode = 004C;
},
{
color = 7;
glyphname = Lcaron;
lastChange = "2016-11-26 21:45:09 +0000";
layers = (
{
background = {
paths = (
{
closed = 1;
nodes = (
"430 0 LINE SMOOTH",
"440 0 OFFCURVE",
"445 9 OFFCURVE",
"445 18 CURVE SMOOTH",
"445 27 OFFCURVE",
"440 36 OFFCURVE",
"430 36 CURVE SMOOTH",
"126 36 LINE",
"126 714 LINE SMOOTH",
"126 726 OFFCURVE",
"117 731 OFFCURVE",
"108 731 CURVE SMOOTH",
"99 731 OFFCURVE",
"90 726 OFFCURVE",
"90 714 CURVE SMOOTH",
"90 18 LINE SMOOTH",
"90 6 OFFCURVE",
"99 0 OFFCURVE",
"108 0 CURVE SMOOTH"
);
},
{
closed = 1;
nodes = (
"324 598 OFFCURVE",
"330 602 OFFCURVE",
"333 608 CURVE SMOOTH",
"349 640 OFFCURVE",
"366 689 OFFCURVE",
"366 705 CURVE SMOOTH",
"366 725 OFFCURVE",
"350 741 OFFCURVE",
"331 741 CURVE SMOOTH",
"310 741 OFFCURVE",
"295 725 OFFCURVE",
"295 705 CURVE SMOOTH",
"295 689 OFFCURVE",
"306 674 OFFCURVE",
"322 670 CURVE",
"304 619 LINE",
"303 617 OFFCURVE",
"303 615 OFFCURVE",
"303 613 CURVE SMOOTH",
"303 604 OFFCURVE",
"311 598 OFFCURVE",
"319 598 CURVE SMOOTH"
);
}
);
};
hints = (
{
place = "{83, 36}";
},
{
place = "{288, 71}";
},
{
horizontal = 1;
place = "{0, 36}";
},
{
horizontal = 1;
place = "{731, -20}";
target = down;
type = TopGhost;
},
{
horizontal = 1;
place = "{741, -20}";
target = down;
type = TopGhost;
}
);
layerId = UUID0;
paths = (
{
closed = 1;
nodes = (
"430 0 LINE SMOOTH",
"440 0 OFFCURVE",
"445 9 OFFCURVE",
"445 18 CURVE SMOOTH",
"445 27 OFFCURVE",
"440 36 OFFCURVE",
"430 36 CURVE SMOOTH",
"126 36 LINE",
"126 714 LINE SMOOTH",
"126 726 OFFCURVE",
"117 731 OFFCURVE",
"108 731 CURVE SMOOTH",
"99 731 OFFCURVE",
"90 726 OFFCURVE",
"90 714 CURVE SMOOTH",
"90 18 LINE SMOOTH",
"90 6 OFFCURVE",
"99 0 OFFCURVE",
"108 0 CURVE SMOOTH"
);
},
{
closed = 1;
nodes = (
"324 598 OFFCURVE",
"330 602 OFFCURVE",
"333 608 CURVE SMOOTH",
"349 640 OFFCURVE",
"366 689 OFFCURVE",
"366 705 CURVE SMOOTH",
"366 725 OFFCURVE",
"350 741 OFFCURVE",
"331 741 CURVE SMOOTH",
"310 741 OFFCURVE",
"295 725 OFFCURVE",
"295 705 CURVE SMOOTH",
"295 689 OFFCURVE",
"306 674 OFFCURVE",
"322 670 CURVE",
"304 619 LINE",
"303 617 OFFCURVE",
"303 615 OFFCURVE",
"303 613 CURVE SMOOTH",
"303 604 OFFCURVE",
"311 598 OFFCURVE",
"319 598 CURVE SMOOTH"
);
}
);
width = 461;
},
{
background = {
paths = (
{
closed = 1;
nodes = (
"438 0 LINE SMOOTH",
"468 0 OFFCURVE",
"483 34 OFFCURVE",
"483 68 CURVE SMOOTH",
"483 102 OFFCURVE",
"468 136 OFFCURVE",
"438 136 CURVE SMOOTH",
"210 136 LINE",
"210 684 LINE SMOOTH",
"210 717 OFFCURVE",
"171 731 OFFCURVE",
"132 731 CURVE SMOOTH",
"93 731 OFFCURVE",
"54 717 OFFCURVE",
"54 684 CURVE SMOOTH",
"54 48 LINE SMOOTH",
"54 16 OFFCURVE",
"88 0 OFFCURVE",
"122 0 CURVE SMOOTH"
);
},
{
closed = 1;
nodes = (
"385 487 OFFCURVE",
"398 491 OFFCURVE",
"404 505 CURVE SMOOTH",
"463 642 OFFCURVE",
"466 653 OFFCURVE",
"466 665 CURVE SMOOTH",
"466 706 OFFCURVE",
"431 741 OFFCURVE",
"389 741 CURVE SMOOTH",
"347 741 OFFCURVE",
"313 706 OFFCURVE",
"313 664 CURVE SMOOTH",
"313 635 OFFCURVE",
"329 610 OFFCURVE",
"353 596 CURVE",
"328 542 LINE SMOOTH",
"325 536 OFFCURVE",
"324 531 OFFCURVE",
"324 526 CURVE SMOOTH",
"324 501 OFFCURVE",
"353 487 OFFCURVE",
"374 487 CURVE SMOOTH"
);
}
);
};
hints = (
{
place = "{54, 156}";
},
{
place = "{313, 153}";
},
{
horizontal = 1;
place = "{0, 136}";
},
{
horizontal = 1;
place = "{487, 244}";
},
{
horizontal = 1;
place = "{741, -20}";
target = down;
type = TopGhost;
}
);
layerId = "228CC867-ECE3-4F82-B853-1E58141B916C";
paths = (
{
closed = 1;
nodes = (
"438 0 LINE SMOOTH",
"468 0 OFFCURVE",
"483 34 OFFCURVE",
"483 68 CURVE SMOOTH",
"483 102 OFFCURVE",
"468 136 OFFCURVE",
"438 136 CURVE SMOOTH",
"210 136 LINE",
"210 684 LINE SMOOTH",
"210 717 OFFCURVE",
"171 731 OFFCURVE",
"132 731 CURVE SMOOTH",
"93 731 OFFCURVE",
"54 717 OFFCURVE",
"54 684 CURVE SMOOTH",
"54 48 LINE SMOOTH",
"54 16 OFFCURVE",
"88 0 OFFCURVE",
"122 0 CURVE SMOOTH"
);
},
{
closed = 1;
nodes = (
"385 487 OFFCURVE",
"398 491 OFFCURVE",
"404 505 CURVE SMOOTH",
"463 642 OFFCURVE",
"466 653 OFFCURVE",
"466 665 CURVE SMOOTH",
"466 706 OFFCURVE",
"431 741 OFFCURVE",
"389 741 CURVE SMOOTH",
"347 741 OFFCURVE",
"313 706 OFFCURVE",
"313 664 CURVE SMOOTH",
"313 635 OFFCURVE",
"329 610 OFFCURVE",
"353 596 CURVE",
"328 542 LINE SMOOTH",
"325 536 OFFCURVE",
"324 531 OFFCURVE",
"324 526 CURVE SMOOTH",
"324 501 OFFCURVE",
"353 487 OFFCURVE",
"374 487 CURVE SMOOTH"
);
}
);
width = 494;
}
);
leftKerningGroup = I;
rightKerningGroup = L;
unicode = 013D;
},
{
color = 7;
glyphname = Ldot;
lastChange = "2016-11-26 21:45:09 +0000";
layers = (
{
background = {
paths = (
{
closed = 1;
nodes = (
"430 0 LINE SMOOTH",
"440 0 OFFCURVE",
"445 9 OFFCURVE",
"445 18 CURVE SMOOTH",
"445 27 OFFCURVE",
"440 36 OFFCURVE",
"430 36 CURVE SMOOTH",
"126 36 LINE",
"126 714 LINE SMOOTH",
"126 726 OFFCURVE",
"117 731 OFFCURVE",
"108 731 CURVE SMOOTH",
"99 731 OFFCURVE",
"90 726 OFFCURVE",
"90 714 CURVE SMOOTH",
"90 18 LINE SMOOTH",
"90 6 OFFCURVE",
"99 0 OFFCURVE",
"108 0 CURVE SMOOTH"
);
},
{
closed = 1;
nodes = (
"348 385 OFFCURVE",
"364 402 OFFCURVE",
"364 421 CURVE SMOOTH",
"364 441 OFFCURVE",
"348 457 OFFCURVE",
"329 457 CURVE SMOOTH",
"308 457 OFFCURVE",
"293 441 OFFCURVE",
"293 421 CURVE SMOOTH",
"293 402 OFFCURVE",
"308 385 OFFCURVE",
"329 385 CURVE SMOOTH"
);
}
);
};
hints = (
{
place = "{83, 36}";
},
{
place = "{286, 71}";
},
{
horizontal = 1;
place = "{0, 36}";
},
{
horizontal = 1;
place = "{385, 72}";
},
{
horizontal = 1;
place = "{731, -20}";
target = down;
type = TopGhost;
}
);
layerId = UUID0;
paths = (
{
closed = 1;
nodes = (
"430 0 LINE SMOOTH",
"440 0 OFFCURVE",
"445 9 OFFCURVE",
"445 18 CURVE SMOOTH",
"445 27 OFFCURVE",
"440 36 OFFCURVE",
"430 36 CURVE SMOOTH",
"126 36 LINE",
"126 714 LINE SMOOTH",
"126 726 OFFCURVE",
"117 731 OFFCURVE",
"108 731 CURVE SMOOTH",
"99 731 OFFCURVE",
"90 726 OFFCURVE",
"90 714 CURVE SMOOTH",
"90 18 LINE SMOOTH",
"90 6 OFFCURVE",
"99 0 OFFCURVE",
"108 0 CURVE SMOOTH"
);
},
{
closed = 1;
nodes = (
"348 385 OFFCURVE",
"364 402 OFFCURVE",
"364 421 CURVE SMOOTH",
"364 441 OFFCURVE",
"348 457 OFFCURVE",
"329 457 CURVE SMOOTH",
"308 457 OFFCURVE",
"293 441 OFFCURVE",
"293 421 CURVE SMOOTH",
"293 402 OFFCURVE",
"308 385 OFFCURVE",
"329 385 CURVE SMOOTH"
);
}
);
width = 461;
},
{
background = {
paths = (
{
closed = 1;
nodes = (
"438 0 LINE SMOOTH",
"468 0 OFFCURVE",
"483 34 OFFCURVE",
"483 68 CURVE SMOOTH",
"483 102 OFFCURVE",
"468 136 OFFCURVE",
"438 136 CURVE SMOOTH",
"210 136 LINE",
"210 684 LINE SMOOTH",
"210 717 OFFCURVE",
"171 731 OFFCURVE",
"132 731 CURVE SMOOTH",
"93 731 OFFCURVE",
"54 717 OFFCURVE",
"54 684 CURVE SMOOTH",
"54 48 LINE SMOOTH",
"54 16 OFFCURVE",
"88 0 OFFCURVE",
"122 0 CURVE SMOOTH"
);
},
{
closed = 1;
nodes = (
"427 349 OFFCURVE",
"463 383 OFFCURVE",
"463 421 CURVE SMOOTH",
"463 459 OFFCURVE",
"427 492 OFFCURVE",
"382 492 CURVE SMOOTH",
"336 492 OFFCURVE",
"300 459 OFFCURVE",
"300 421 CURVE SMOOTH",
"300 383 OFFCURVE",
"336 349 OFFCURVE",
"382 349 CURVE SMOOTH"
);
}
);
};
hints = (
{
place = "{54, 156}";
},
{
place = "{300, 163}";
},
{
horizontal = 1;
place = "{0, 136}";
},
{
horizontal = 1;
place = "{349, 143}";
},
{
horizontal = 1;
place = "{731, -20}";
target = down;
type = TopGhost;
}
);
layerId = "228CC867-ECE3-4F82-B853-1E58141B916C";
paths = (
{
closed = 1;
nodes = (
"438 0 LINE SMOOTH",
"468 0 OFFCURVE",
"483 34 OFFCURVE",
"483 68 CURVE SMOOTH",
"483 102 OFFCURVE",
"468 136 OFFCURVE",
"438 136 CURVE SMOOTH",
"210 136 LINE",
"210 684 LINE SMOOTH",
"210 717 OFFCURVE",
"171 731 OFFCURVE",
"132 731 CURVE SMOOTH",
"93 731 OFFCURVE",
"54 717 OFFCURVE",
"54 684 CURVE SMOOTH",
"54 48 LINE SMOOTH",
"54 16 OFFCURVE",
"88 0 OFFCURVE",
"122 0 CURVE SMOOTH"
);
},
{
closed = 1;
nodes = (
"427 349 OFFCURVE",
"463 383 OFFCURVE",
"463 421 CURVE SMOOTH",
"463 459 OFFCURVE",
"427 492 OFFCURVE",
"382 492 CURVE SMOOTH",
"336 492 OFFCURVE",
"300 459 OFFCURVE",
"300 421 CURVE SMOOTH",
"300 383 OFFCURVE",
"336 349 OFFCURVE",
"382 349 CURVE SMOOTH"
);
}
);
width = 493;
}
);
rightKerningGroup = L;
unicode = 013F;
},
{
color = 7;
glyphname = Lslash;
lastChange = "2016-11-26 21:45:09 +0000";
layers = (
{
background = {
paths = (
{
closed = 1;
nodes = (
"429 0 LINE SMOOTH",
"439 0 OFFCURVE",
"444 9 OFFCURVE",
"444 18 CURVE SMOOTH",
"444 27 OFFCURVE",
"439 36 OFFCURVE",
"429 36 CURVE SMOOTH",
"125 36 LINE",
"125 324 LINE",
"257 400 LINE SMOOTH",
"262 403 OFFCURVE",
"266 409 OFFCURVE",
"266 416 CURVE SMOOTH",
"266 425 OFFCURVE",
"258 432 OFFCURVE",
"249 432 CURVE SMOOTH",
"246 432 OFFCURVE",
"243 432 OFFCURVE",
"240 430 CURVE",
"125 363 LINE",
"125 714 LINE SMOOTH",
"125 726 OFFCURVE",
"116 731 OFFCURVE",
"107 731 CURVE SMOOTH",
"98 731 OFFCURVE",
"89 726 OFFCURVE",
"89 714 CURVE SMOOTH",
"89 343 LINE",
"15 300 LINE",
"9 297 OFFCURVE",
"6 291 OFFCURVE",
"6 286 CURVE SMOOTH",
"6 276 OFFCURVE",
"15 267 OFFCURVE",
"23 267 CURVE SMOOTH",
"26 267 OFFCURVE",
"29 268 OFFCURVE",
"32 270 CURVE",
"89 303 LINE",
"89 18 LINE SMOOTH",
"89 6 OFFCURVE",
"98 0 OFFCURVE",
"107 0 CURVE SMOOTH"
);
}
);
};
hints = (
{
place = "{89, 36}";
},
{
horizontal = 1;
place = "{0, 36}";
},
{
horizontal = 1;
place = "{731, -20}";
target = down;
type = TopGhost;
}
);
layerId = UUID0;
paths = (
{
closed = 1;
nodes = (
"429 0 LINE SMOOTH",
"439 0 OFFCURVE",
"444 9 OFFCURVE",
"444 18 CURVE SMOOTH",
"444 27 OFFCURVE",
"439 36 OFFCURVE",
"429 36 CURVE SMOOTH",
"125 36 LINE",
"125 324 LINE",
"257 400 LINE SMOOTH",
"262 403 OFFCURVE",
"266 409 OFFCURVE",
"266 416 CURVE SMOOTH",
"266 425 OFFCURVE",
"258 432 OFFCURVE",
"249 432 CURVE SMOOTH",
"246 432 OFFCURVE",
"243 432 OFFCURVE",
"240 430 CURVE",
"125 363 LINE",
"125 714 LINE SMOOTH",
"125 726 OFFCURVE",
"116 731 OFFCURVE",
"107 731 CURVE SMOOTH",
"98 731 OFFCURVE",
"89 726 OFFCURVE",
"89 714 CURVE SMOOTH",
"89 343 LINE",
"15 300 LINE",
"9 297 OFFCURVE",
"6 291 OFFCURVE",
"6 286 CURVE SMOOTH",
"6 276 OFFCURVE",
"15 267 OFFCURVE",
"23 267 CURVE SMOOTH",
"26 267 OFFCURVE",
"29 268 OFFCURVE",
"32 270 CURVE",
"89 303 LINE",
"89 18 LINE SMOOTH",
"89 6 OFFCURVE",
"98 0 OFFCURVE",
"107 0 CURVE SMOOTH"
);
}
);
width = 459;
},
{
background = {
paths = (
{
closed = 1;
nodes = (
"444 0 LINE SMOOTH",
"474 0 OFFCURVE",
"489 34 OFFCURVE",
"489 68 CURVE SMOOTH",
"489 102 OFFCURVE",
"474 136 OFFCURVE",
"444 136 CURVE SMOOTH",
"216 136 LINE",
"216 326 LINE",
"308 369 LINE SMOOTH",
"321 375 OFFCURVE",
"327 388 OFFCURVE",
"327 403 CURVE SMOOTH",
"327 432 OFFCURVE",
"302 472 OFFCURVE",
"273 472 CURVE SMOOTH",
"269 472 OFFCURVE",
"265 471 OFFCURVE",
"261 469 CURVE SMOOTH",
"216 448 LINE",
"216 684 LINE SMOOTH",
"216 717 OFFCURVE",
"177 731 OFFCURVE",
"138 731 CURVE SMOOTH",
"99 731 OFFCURVE",
"60 717 OFFCURVE",
"60 684 CURVE SMOOTH",
"60 375 LINE",
"8 351 LINE SMOOTH",
"-5 345 OFFCURVE",
"-10 331 OFFCURVE",
"-10 317 CURVE SMOOTH",
"-10 285 OFFCURVE",
"14 248 OFFCURVE",
"42 248 CURVE SMOOTH",
"46 248 OFFCURVE",
"51 249 OFFCURVE",
"55 251 CURVE",
"60 253 LINE",
"60 48 LINE SMOOTH",
"60 16 OFFCURVE",
"94 0 OFFCURVE",
"128 0 CURVE SMOOTH"
);
}
);
};
hints = (
{
place = "{-10, 226}";
},
{
place = "{60, 156}";
},
{
horizontal = 1;
place = "{0, 136}";
},
{
horizontal = 1;
place = "{731, -20}";
target = down;
type = TopGhost;
}
);
layerId = "228CC867-ECE3-4F82-B853-1E58141B916C";
paths = (
{
closed = 1;
nodes = (
"444 0 LINE SMOOTH",
"474 0 OFFCURVE",
"489 34 OFFCURVE",
"489 68 CURVE SMOOTH",
"489 102 OFFCURVE",
"474 136 OFFCURVE",
"444 136 CURVE SMOOTH",
"216 136 LINE",
"216 326 LINE",
"308 369 LINE SMOOTH",
"321 375 OFFCURVE",
"327 388 OFFCURVE",
"327 403 CURVE SMOOTH",
"327 432 OFFCURVE",
"302 472 OFFCURVE",
"273 472 CURVE SMOOTH",
"269 472 OFFCURVE",
"265 471 OFFCURVE",
"261 469 CURVE SMOOTH",
"216 448 LINE",
"216 684 LINE SMOOTH",
"216 717 OFFCURVE",
"177 731 OFFCURVE",
"138 731 CURVE SMOOTH",
"99 731 OFFCURVE",
"60 717 OFFCURVE",
"60 684 CURVE SMOOTH",
"60 375 LINE",
"8 351 LINE SMOOTH",
"-5 345 OFFCURVE",
"-10 331 OFFCURVE",
"-10 317 CURVE SMOOTH",
"-10 285 OFFCURVE",
"14 248 OFFCURVE",
"42 248 CURVE SMOOTH",
"46 248 OFFCURVE",
"51 249 OFFCURVE",
"55 251 CURVE",
"60 253 LINE",
"60 48 LINE SMOOTH",
"60 16 OFFCURVE",
"94 0 OFFCURVE",
"128 0 CURVE SMOOTH"
);
}
);
width = 498;
}
);
leftKerningGroup = I;
rightKerningGroup = L;
unicode = 0141;
},
{
color = 4;
glyphname = M;
lastChange = "2016-11-26 19:38:57 +0000";
layers = (
{
anchors = (
{
name = bottom;
position = "{338, 0}";
},
{
name = top;
position = "{338, 730}";
}
);
background = {
paths = (
{
closed = 1;
nodes = (
"117 0 OFFCURVE",
"126 6 OFFCURVE",
"126 18 CURVE SMOOTH",
"126 643 LINE",
"314 279 LINE",
"320 266 OFFCURVE",
"327 260 OFFCURVE",
"333 260 CURVE SMOOTH",
"339 260 OFFCURVE",
"345 266 OFFCURVE",
"352 279 CURVE SMOOTH",
"541 643 LINE",
"541 18 LINE SMOOTH",
"541 6 OFFCURVE",
"550 0 OFFCURVE",
"559 0 CURVE SMOOTH",
"568 0 OFFCURVE",
"577 6 OFFCURVE",
"577 18 CURVE SMOOTH",
"577 714 LINE SMOOTH",
"577 727 OFFCURVE",
"569 731 OFFCURVE",
"559 731 CURVE SMOOTH",
"546 731 OFFCURVE",
"533 704 OFFCURVE",
"528 695 CURVE",
"333 313 LINE",
"139 695 LINE",
"134 704 OFFCURVE",
"121 731 OFFCURVE",
"108 731 CURVE SMOOTH",
"98 731 OFFCURVE",
"90 727 OFFCURVE",
"90 714 CURVE SMOOTH",
"90 18 LINE SMOOTH",
"90 6 OFFCURVE",
"99 0 OFFCURVE",
"108 0 CURVE SMOOTH"
);
}
);
};
hints = (
{
place = "{83, 36}";
},
{
place = "{534, 36}";
},
{
horizontal = 1;
place = "{0, 21}";
target = up;
type = BottomGhost;
},
{
horizontal = 1;
place = "{731, -20}";
target = down;
type = TopGhost;
}
);
layerId = UUID0;
paths = (
{
closed = 1;
nodes = (
"117 0 OFFCURVE",
"126 6 OFFCURVE",
"126 18 CURVE SMOOTH",
"126 645 LINE",
"318 279 LINE SMOOTH",
"324 268 OFFCURVE",
"330 264 OFFCURVE",
"337 264 CURVE SMOOTH",
"345 264 OFFCURVE",
"350 269 OFFCURVE",
"355 279 CURVE SMOOTH",
"549 645 LINE",
"549 18 LINE SMOOTH",
"549 6 OFFCURVE",
"558 0 OFFCURVE",
"567 0 CURVE SMOOTH",
"576 0 OFFCURVE",
"585 6 OFFCURVE",
"585 18 CURVE SMOOTH",
"585 708 LINE SMOOTH",
"585 722 OFFCURVE",
"577 730 OFFCURVE",
"567 730 CURVE SMOOTH",
"555 730 OFFCURVE",
"547 716 OFFCURVE",
"536 695 CURVE SMOOTH",
"337 313 LINE",
"139 695 LINE SMOOTH",
"132 708 OFFCURVE",
"123 730 OFFCURVE",
"107 730 CURVE SMOOTH",
"98 730 OFFCURVE",
"90 724 OFFCURVE",
"90 710 CURVE SMOOTH",
"90 18 LINE SMOOTH",
"90 6 OFFCURVE",
"99 0 OFFCURVE",
"108 0 CURVE SMOOTH"
);
}
);
width = 675;
},
{
anchors = (
{
name = bottom;
position = "{361, 0}";
},
{
name = top;
position = "{361, 730}";
}
);
background = {
paths = (
{
closed = 1;
nodes = (
"171 0 OFFCURVE",
"210 16 OFFCURVE",
"210 48 CURVE SMOOTH",
"210 432 LINE",
"305 258 LINE SMOOTH",
"317 235 OFFCURVE",
"336 229 OFFCURVE",
"354 229 CURVE SMOOTH",
"373 229 OFFCURVE",
"393 236 OFFCURVE",
"406 258 CURVE SMOOTH",
"502 422 LINE",
"502 48 LINE SMOOTH",
"502 16 OFFCURVE",
"541 0 OFFCURVE",
"580 0 CURVE SMOOTH",
"619 0 OFFCURVE",
"658 16 OFFCURVE",
"658 48 CURVE SMOOTH",
"658 652 LINE SMOOTH",
"658 709 OFFCURVE",
"620 730 OFFCURVE",
"580 730 CURVE SMOOTH",
"524 730 OFFCURVE",
"500 724 OFFCURVE",
"459 652 CURVE SMOOTH",
"356 472 LINE",
"253 652 LINE SMOOTH",
"212 724 OFFCURVE",
"188 730 OFFCURVE",
"132 730 CURVE SMOOTH",
"93 730 OFFCURVE",
"54 709 OFFCURVE",
"54 652 CURVE SMOOTH",
"54 48 LINE SMOOTH",
"54 16 OFFCURVE",
"93 0 OFFCURVE",
"132 0 CURVE SMOOTH"
);
}
);
};
hints = (
{
place = "{54, 156}";
},
{
place = "{502, 156}";
},
{
horizontal = 1;
place = "{0, 21}";
target = up;
type = BottomGhost;
},
{
horizontal = 1;
place = "{731, -20}";
target = down;
type = TopGhost;
}
);
layerId = "228CC867-ECE3-4F82-B853-1E58141B916C";
paths = (
{
closed = 1;
nodes = (
"171 0 OFFCURVE",
"210 16 OFFCURVE",
"210 48 CURVE SMOOTH",
"210 432 LINE",
"310 258 LINE SMOOTH",
"325 231 OFFCURVE",
"341 222 OFFCURVE",
"359 222 CURVE SMOOTH",
"378 222 OFFCURVE",
"394 230 OFFCURVE",
"411 258 CURVE SMOOTH",
"512 422 LINE",
"512 48 LINE SMOOTH",
"512 16 OFFCURVE",
"551 0 OFFCURVE",
"590 0 CURVE SMOOTH",
"629 0 OFFCURVE",
"668 16 OFFCURVE",
"668 48 CURVE SMOOTH",
"668 652 LINE SMOOTH",
"668 709 OFFCURVE",
"630 730 OFFCURVE",
"590 730 CURVE SMOOTH",
"537 730 OFFCURVE",
"513 725 OFFCURVE",
"473 653 CURVE SMOOTH",
"361 452 LINE",
"250 653 LINE SMOOTH",
"210 725 OFFCURVE",
"185 730 OFFCURVE",
"132 730 CURVE SMOOTH",
"93 730 OFFCURVE",
"54 709 OFFCURVE",
"54 652 CURVE SMOOTH",
"54 48 LINE SMOOTH",
"54 16 OFFCURVE",
"93 0 OFFCURVE",
"132 0 CURVE SMOOTH"
);
}
);
width = 722;
},
{
associatedMasterId = "228CC867-ECE3-4F82-B853-1E58141B916C";
background = {
paths = (
{
closed = 1;
nodes = (
"171 0 OFFCURVE",
"210 16 OFFCURVE",
"210 48 CURVE SMOOTH",
"210 433 LINE",
"305 259 LINE SMOOTH",
"317 236 OFFCURVE",
"336 230 OFFCURVE",
"354 230 CURVE SMOOTH",
"373 230 OFFCURVE",
"393 237 OFFCURVE",
"406 259 CURVE SMOOTH",
"502 423 LINE",
"502 48 LINE SMOOTH",
"502 16 OFFCURVE",
"541 0 OFFCURVE",
"580 0 CURVE SMOOTH",
"619 0 OFFCURVE",
"658 16 OFFCURVE",
"658 48 CURVE SMOOTH",
"658 653 LINE SMOOTH",
"658 710 OFFCURVE",
"620 731 OFFCURVE",
"580 731 CURVE SMOOTH",
"524 731 OFFCURVE",
"500 725 OFFCURVE",
"459 653 CURVE SMOOTH",
"356 473 LINE",
"253 653 LINE SMOOTH",
"212 725 OFFCURVE",
"188 731 OFFCURVE",
"132 731 CURVE SMOOTH",
"93 731 OFFCURVE",
"54 710 OFFCURVE",
"54 653 CURVE SMOOTH",
"54 48 LINE SMOOTH",
"54 16 OFFCURVE",
"93 0 OFFCURVE",
"132 0 CURVE SMOOTH"
);
}
);
};
hints = (
{
place = "{54, 156}";
},
{
place = "{502, 156}";
},
{
horizontal = 1;
place = "{0, 21}";
target = up;
type = BottomGhost;
},
{
horizontal = 1;
place = "{731, -20}";
target = down;
type = TopGhost;
}
);
layerId = "3ADA21C5-D507-447D-B5EC-F4144637D63C";
name = "Nov 25 16, 01:00";
paths = (
{
closed = 1;
nodes = (
"171 0 OFFCURVE",
"210 16 OFFCURVE",
"210 48 CURVE SMOOTH",
"210 432 LINE",
"305 258 LINE SMOOTH",
"317 235 OFFCURVE",
"336 229 OFFCURVE",
"354 229 CURVE SMOOTH",
"373 229 OFFCURVE",
"393 236 OFFCURVE",
"406 258 CURVE SMOOTH",
"502 422 LINE",
"502 48 LINE SMOOTH",
"502 16 OFFCURVE",
"541 0 OFFCURVE",
"580 0 CURVE SMOOTH",
"619 0 OFFCURVE",
"658 16 OFFCURVE",
"658 48 CURVE SMOOTH",
"658 652 LINE SMOOTH",
"658 709 OFFCURVE",
"620 730 OFFCURVE",
"580 730 CURVE SMOOTH",
"524 730 OFFCURVE",
"500 724 OFFCURVE",
"459 652 CURVE SMOOTH",
"356 472 LINE",
"253 652 LINE SMOOTH",
"212 724 OFFCURVE",
"188 730 OFFCURVE",
"132 730 CURVE SMOOTH",
"93 730 OFFCURVE",
"54 709 OFFCURVE",
"54 652 CURVE SMOOTH",
"54 48 LINE SMOOTH",
"54 16 OFFCURVE",
"93 0 OFFCURVE",
"132 0 CURVE SMOOTH"
);
}
);
width = 712;
},
{
associatedMasterId = "228CC867-ECE3-4F82-B853-1E58141B916C";
background = {
paths = (
{
closed = 1;
nodes = (
"171 0 OFFCURVE",
"210 16 OFFCURVE",
"210 48 CURVE SMOOTH",
"210 432 LINE",
"305 258 LINE SMOOTH",
"317 235 OFFCURVE",
"336 229 OFFCURVE",
"354 229 CURVE SMOOTH",
"373 229 OFFCURVE",
"393 236 OFFCURVE",
"406 258 CURVE SMOOTH",
"502 422 LINE",
"502 48 LINE SMOOTH",
"502 16 OFFCURVE",
"541 0 OFFCURVE",
"580 0 CURVE SMOOTH",
"619 0 OFFCURVE",
"658 16 OFFCURVE",
"658 48 CURVE SMOOTH",
"658 652 LINE SMOOTH",
"658 709 OFFCURVE",
"620 730 OFFCURVE",
"580 730 CURVE SMOOTH",
"524 730 OFFCURVE",
"500 724 OFFCURVE",
"459 652 CURVE SMOOTH",
"356 472 LINE",
"253 652 LINE SMOOTH",
"212 724 OFFCURVE",
"188 730 OFFCURVE",
"132 730 CURVE SMOOTH",
"93 730 OFFCURVE",
"54 709 OFFCURVE",
"54 652 CURVE SMOOTH",
"54 48 LINE SMOOTH",
"54 16 OFFCURVE",
"93 0 OFFCURVE",
"132 0 CURVE SMOOTH"
);
}
);
};
hints = (
{
place = "{54, 156}";
},
{
place = "{502, 156}";
},
{
horizontal = 1;
place = "{0, 21}";
target = up;
type = BottomGhost;
},
{
horizontal = 1;
place = "{731, -20}";
target = down;
type = TopGhost;
}
);
layerId = "2C0132F5-FE0E-4CE5-B59A-B21657480CB8";
name = "Nov 25 16, 01:02";
paths = (
{
closed = 1;
nodes = (
"171 0 OFFCURVE",
"210 16 OFFCURVE",
"210 48 CURVE SMOOTH",
"210 432 LINE",
"305 258 LINE SMOOTH",
"320 231 OFFCURVE",
"336 222 OFFCURVE",
"354 222 CURVE SMOOTH",
"373 222 OFFCURVE",
"390 230 OFFCURVE",
"406 258 CURVE SMOOTH",
"502 422 LINE",
"502 48 LINE SMOOTH",
"502 16 OFFCURVE",
"541 0 OFFCURVE",
"580 0 CURVE SMOOTH",
"619 0 OFFCURVE",
"658 16 OFFCURVE",
"658 48 CURVE SMOOTH",
"658 652 LINE SMOOTH",
"658 709 OFFCURVE",
"620 730 OFFCURVE",
"580 730 CURVE SMOOTH",
"527 730 OFFCURVE",
"502 726 OFFCURVE",
"466 652 CURVE SMOOTH",
"356 452 LINE",
"247 652 LINE SMOOTH",
"211 726 OFFCURVE",
"185 730 OFFCURVE",
"132 730 CURVE SMOOTH",
"93 730 OFFCURVE",
"54 709 OFFCURVE",
"54 652 CURVE SMOOTH",
"54 48 LINE SMOOTH",
"54 16 OFFCURVE",
"93 0 OFFCURVE",
"132 0 CURVE SMOOTH"
);
}
);
width = 712;
}
);
leftKerningGroup = I;
rightKerningGroup = I;
unicode = 004D;
},
{
color = 4;
glyphname = N;
lastChange = "2016-11-26 19:38:57 +0000";
layers = (
{
anchors = (
{
name = bottom;
position = "{292, 0}";
},
{
name = top;
position = "{292, 730}";
}
);
background = {
paths = (
{
closed = 1;
nodes = (
"117 0 OFFCURVE",
"126 6 OFFCURVE",
"126 18 CURVE SMOOTH",
"126 643 LINE",
"434 36 LINE SMOOTH",
"441 22 OFFCURVE",
"450 0 OFFCURVE",
"463 0 CURVE SMOOTH",
"472 0 OFFCURVE",
"481 6 OFFCURVE",
"481 18 CURVE SMOOTH",
"481 714 LINE SMOOTH",
"481 726 OFFCURVE",
"472 731 OFFCURVE",
"463 731 CURVE SMOOTH",
"454 731 OFFCURVE",
"445 726 OFFCURVE",
"445 714 CURVE SMOOTH",
"445 89 LINE",
"139 695 LINE",
"134 704 OFFCURVE",
"121 731 OFFCURVE",
"108 731 CURVE SMOOTH",
"98 731 OFFCURVE",
"90 727 OFFCURVE",
"90 714 CURVE SMOOTH",
"90 18 LINE SMOOTH",
"90 6 OFFCURVE",
"99 0 OFFCURVE",
"108 0 CURVE SMOOTH"
);
}
);
};
hints = (
{
place = "{83, 36}";
},
{
place = "{438, 36}";
},
{
horizontal = 1;
place = "{731, -20}";
target = down;
type = TopGhost;
},
{
horizontal = 1;
place = "{0, 21}";
target = up;
type = BottomGhost;
}
);
layerId = UUID0;
paths = (
{
closed = 1;
nodes = (
"117 0 OFFCURVE",
"126 6 OFFCURVE",
"126 18 CURVE SMOOTH",
"126 642 LINE",
"446 36 LINE SMOOTH",
"453 22 OFFCURVE",
"462 0 OFFCURVE",
"475 0 CURVE SMOOTH",
"484 0 OFFCURVE",
"493 6 OFFCURVE",
"493 18 CURVE SMOOTH",
"493 713 LINE SMOOTH",
"493 725 OFFCURVE",
"484 730 OFFCURVE",
"475 730 CURVE SMOOTH",
"466 730 OFFCURVE",
"457 725 OFFCURVE",
"457 713 CURVE SMOOTH",
"457 89 LINE",
"139 694 LINE SMOOTH",
"134 703 OFFCURVE",
"121 730 OFFCURVE",
"108 730 CURVE SMOOTH",
"98 730 OFFCURVE",
"90 726 OFFCURVE",
"90 713 CURVE SMOOTH",
"90 18 LINE SMOOTH",
"90 6 OFFCURVE",
"99 0 OFFCURVE",
"108 0 CURVE SMOOTH"
);
}
);
width = 583;
},
{
anchors = (
{
name = bottom;
position = "{317, 0}";
},
{
name = top;
position = "{317, 730}";
}
);
background = {
paths = (
{
closed = 1;
nodes = (
"171 0 OFFCURVE",
"210 16 OFFCURVE",
"210 48 CURVE SMOOTH",
"210 381 LINE",
"429 42 LINE SMOOTH",
"451 7 OFFCURVE",
"481 0 OFFCURVE",
"509 0 CURVE SMOOTH",
"551 0 OFFCURVE",
"579 16 OFFCURVE",
"579 50 CURVE SMOOTH",
"579 683 LINE SMOOTH",
"579 716 OFFCURVE",
"540 730 OFFCURVE",
"501 730 CURVE SMOOTH",
"462 730 OFFCURVE",
"423 716 OFFCURVE",
"423 683 CURVE SMOOTH",
"423 343 LINE",
"243 653 LINE SMOOTH",
"205 718 OFFCURVE",
"176 730 OFFCURVE",
"132 730 CURVE SMOOTH",
"87 730 OFFCURVE",
"54 718 OFFCURVE",
"54 674 CURVE SMOOTH",
"54 48 LINE SMOOTH",
"54 16 OFFCURVE",
"93 0 OFFCURVE",
"132 0 CURVE SMOOTH"
);
}
);
};
hints = (
{
place = "{54, 156}";
},
{
place = "{409, 156}";
},
{
horizontal = 1;
place = "{0, 21}";
target = up;
type = BottomGhost;
},
{
horizontal = 1;
place = "{731, -20}";
target = down;
type = TopGhost;
}
);
layerId = "228CC867-ECE3-4F82-B853-1E58141B916C";
paths = (
{
closed = 1;
nodes = (
"171 0 OFFCURVE",
"210 16 OFFCURVE",
"210 48 CURVE SMOOTH",
"210 367 LINE",
"424 50 LINE SMOOTH",
"447 16 OFFCURVE",
"482 0 OFFCURVE",
"514 0 CURVE SMOOTH",
"552 0 OFFCURVE",
"579 24 OFFCURVE",
"579 57 CURVE SMOOTH",
"579 683 LINE SMOOTH",
"579 716 OFFCURVE",
"540 730 OFFCURVE",
"501 730 CURVE SMOOTH",
"462 730 OFFCURVE",
"423 716 OFFCURVE",
"423 683 CURVE SMOOTH",
"423 328 LINE",
"225 653 LINE SMOOTH",
"184 721 OFFCURVE",
"161 730 OFFCURVE",
"123 730 CURVE SMOOTH",
"82 730 OFFCURVE",
"54 718 OFFCURVE",
"54 674 CURVE SMOOTH",
"54 48 LINE SMOOTH",
"54 16 OFFCURVE",
"93 0 OFFCURVE",
"132 0 CURVE SMOOTH"
);
}
);
width = 633;
},
{
associatedMasterId = "228CC867-ECE3-4F82-B853-1E58141B916C";
background = {
paths = (
{
closed = 1;
nodes = (
"171 0 OFFCURVE",
"210 16 OFFCURVE",
"210 48 CURVE SMOOTH",
"210 388 LINE",
"400 42 LINE SMOOTH",
"419 7 OFFCURVE",
"451 0 OFFCURVE",
"487 0 CURVE SMOOTH",
"526 0 OFFCURVE",
"565 16 OFFCURVE",
"565 48 CURVE SMOOTH",
"565 684 LINE SMOOTH",
"565 717 OFFCURVE",
"526 731 OFFCURVE",
"487 731 CURVE SMOOTH",
"448 731 OFFCURVE",
"409 717 OFFCURVE",
"409 684 CURVE SMOOTH",
"409 344 LINE",
"247 653 LINE SMOOTH",
"209 726 OFFCURVE",
"188 731 OFFCURVE",
"132 731 CURVE SMOOTH",
"93 731 OFFCURVE",
"54 716 OFFCURVE",
"54 683 CURVE SMOOTH",
"54 48 LINE SMOOTH",
"54 16 OFFCURVE",
"93 0 OFFCURVE",
"132 0 CURVE SMOOTH"
);
}
);
};
hints = (
{
place = "{54, 156}";
},
{
place = "{409, 156}";
},
{
horizontal = 1;
place = "{0, 21}";
target = up;
type = BottomGhost;
},
{
horizontal = 1;
place = "{731, -20}";
target = down;
type = TopGhost;
}
);
layerId = "B53B6440-45F5-4A56-A17C-18110547E52F";
name = "Nov 25 16, 00:55";
paths = (
{
closed = 1;
nodes = (
"171 0 OFFCURVE",
"210 16 OFFCURVE",
"210 48 CURVE SMOOTH",
"210 381 LINE",
"429 42 LINE SMOOTH",
"451 7 OFFCURVE",
"481 0 OFFCURVE",
"509 0 CURVE SMOOTH",
"551 0 OFFCURVE",
"579 16 OFFCURVE",
"579 50 CURVE SMOOTH",
"579 683 LINE SMOOTH",
"579 716 OFFCURVE",
"540 730 OFFCURVE",
"501 730 CURVE SMOOTH",
"462 730 OFFCURVE",
"423 716 OFFCURVE",
"423 683 CURVE SMOOTH",
"423 343 LINE",
"243 653 LINE SMOOTH",
"205 718 OFFCURVE",
"176 730 OFFCURVE",
"132 730 CURVE SMOOTH",
"87 730 OFFCURVE",
"54 718 OFFCURVE",
"54 674 CURVE SMOOTH",
"54 48 LINE SMOOTH",
"54 16 OFFCURVE",
"93 0 OFFCURVE",
"132 0 CURVE SMOOTH"
);
}
);
width = 633;
}
);
leftKerningGroup = I;
rightKerningGroup = I;
unicode = 004E;
},
{
color = 7;
glyphname = Eng;
lastChange = "2016-11-26 21:45:09 +0000";
layers = (
{
background = {
paths = (
{
closed = 1;
nodes = (
"451 -237 OFFCURVE",
"481 -159 OFFCURVE",
"481 -48 CURVE SMOOTH",
"481 714 LINE SMOOTH",
"481 726 OFFCURVE",
"472 731 OFFCURVE",
"463 731 CURVE SMOOTH",
"454 731 OFFCURVE",
"445 726 OFFCURVE",
"445 714 CURVE SMOOTH",
"445 89 LINE",
"139 695 LINE",
"134 704 OFFCURVE",
"121 731 OFFCURVE",
"108 731 CURVE SMOOTH",
"98 731 OFFCURVE",
"90 727 OFFCURVE",
"90 714 CURVE SMOOTH",
"90 18 LINE SMOOTH",
"90 6 OFFCURVE",
"99 0 OFFCURVE",
"108 0 CURVE SMOOTH",
"117 0 OFFCURVE",
"126 6 OFFCURVE",
"126 18 CURVE SMOOTH",
"126 643 LINE",
"434 36 LINE SMOOTH",
"443 18 OFFCURVE",
"446 7 OFFCURVE",
"446 0 CURVE SMOOTH",
"446 -48 LINE SMOOTH",
"446 -137 OFFCURVE",
"436 -202 OFFCURVE",
"359 -202 CURVE SMOOTH",
"349 -202 OFFCURVE",
"341 -209 OFFCURVE",
"341 -219 CURVE SMOOTH",
"341 -228 OFFCURVE",
"349 -237 OFFCURVE",
"359 -237 CURVE SMOOTH"
);
}
);
};
hints = (
{
place = "{83, 36}";
},
{
place = "{438, 36}";
},
{
horizontal = 1;
place = "{-237, 35}";
},
{
horizontal = 1;
place = "{731, -20}";
target = down;
type = TopGhost;
},
{
horizontal = 1;
place = "{0, 21}";
target = up;
type = BottomGhost;
}
);
layerId = UUID0;
paths = (
{
closed = 1;
nodes = (
"451 -237 OFFCURVE",
"481 -159 OFFCURVE",
"481 -48 CURVE SMOOTH",
"481 714 LINE SMOOTH",
"481 726 OFFCURVE",
"472 731 OFFCURVE",
"463 731 CURVE SMOOTH",
"454 731 OFFCURVE",
"445 726 OFFCURVE",
"445 714 CURVE SMOOTH",
"445 89 LINE",
"139 695 LINE",
"134 704 OFFCURVE",
"121 731 OFFCURVE",
"108 731 CURVE SMOOTH",
"98 731 OFFCURVE",
"90 727 OFFCURVE",
"90 714 CURVE SMOOTH",
"90 18 LINE SMOOTH",
"90 6 OFFCURVE",
"99 0 OFFCURVE",
"108 0 CURVE SMOOTH",
"117 0 OFFCURVE",
"126 6 OFFCURVE",
"126 18 CURVE SMOOTH",
"126 643 LINE",
"434 36 LINE SMOOTH",
"443 18 OFFCURVE",
"446 7 OFFCURVE",
"446 0 CURVE SMOOTH",
"446 -48 LINE SMOOTH",
"446 -137 OFFCURVE",
"436 -202 OFFCURVE",
"359 -202 CURVE SMOOTH",
"349 -202 OFFCURVE",
"341 -209 OFFCURVE",
"341 -219 CURVE SMOOTH",
"341 -228 OFFCURVE",
"349 -237 OFFCURVE",
"359 -237 CURVE SMOOTH"
);
}
);
width = 571;
},
{
background = {
paths = (
{
closed = 1;
nodes = (
"508 -217 OFFCURVE",
"565 -139 OFFCURVE",
"565 -28 CURVE SMOOTH",
"565 684 LINE SMOOTH",
"565 717 OFFCURVE",
"526 731 OFFCURVE",
"487 731 CURVE SMOOTH",
"448 731 OFFCURVE",
"409 717 OFFCURVE",
"409 684 CURVE SMOOTH",
"409 344 LINE",
"247 653 LINE SMOOTH",
"209 726 OFFCURVE",
"188 731 OFFCURVE",
"132 731 CURVE SMOOTH",
"93 731 OFFCURVE",
"54 716 OFFCURVE",
"54 683 CURVE SMOOTH",
"54 48 LINE SMOOTH",
"54 16 OFFCURVE",
"93 0 OFFCURVE",
"132 0 CURVE SMOOTH",
"171 0 OFFCURVE",
"210 16 OFFCURVE",
"210 48 CURVE SMOOTH",
"210 388 LINE",
"400 42 LINE SMOOTH",
"406 31 OFFCURVE",
"409 22 OFFCURVE",
"409 8 CURVE SMOOTH",
"409 -28 LINE SMOOTH",
"409 -62 OFFCURVE",
"405 -87 OFFCURVE",
"383 -87 CURVE SMOOTH",
"351 -87 OFFCURVE",
"325 -113 OFFCURVE",
"325 -154 CURVE SMOOTH",
"325 -185 OFFCURVE",
"340 -217 OFFCURVE",
"406 -217 CURVE SMOOTH"
);
}
);
};
hints = (
{
place = "{54, 156}";
},
{
place = "{325, 240}";
},
{
place = "{409, 156}";
},
{
horizontal = 1;
place = "{-217, 130}";
},
{
horizontal = 1;
place = "{731, -20}";
target = down;
type = TopGhost;
},
{
horizontal = 1;
place = "{0, 21}";
target = up;
type = BottomGhost;
}
);
layerId = "228CC867-ECE3-4F82-B853-1E58141B916C";
paths = (
{
closed = 1;
nodes = (
"508 -217 OFFCURVE",
"565 -139 OFFCURVE",
"565 -28 CURVE SMOOTH",
"565 684 LINE SMOOTH",
"565 717 OFFCURVE",
"526 731 OFFCURVE",
"487 731 CURVE SMOOTH",
"448 731 OFFCURVE",
"409 717 OFFCURVE",
"409 684 CURVE SMOOTH",
"409 344 LINE",
"247 653 LINE SMOOTH",
"209 726 OFFCURVE",
"188 731 OFFCURVE",
"132 731 CURVE SMOOTH",
"93 731 OFFCURVE",
"54 716 OFFCURVE",
"54 683 CURVE SMOOTH",
"54 48 LINE SMOOTH",
"54 16 OFFCURVE",
"93 0 OFFCURVE",
"132 0 CURVE SMOOTH",
"171 0 OFFCURVE",
"210 16 OFFCURVE",
"210 48 CURVE SMOOTH",
"210 388 LINE",
"400 42 LINE SMOOTH",
"406 31 OFFCURVE",
"409 22 OFFCURVE",
"409 8 CURVE SMOOTH",
"409 -28 LINE SMOOTH",
"409 -62 OFFCURVE",
"405 -87 OFFCURVE",
"383 -87 CURVE SMOOTH",
"351 -87 OFFCURVE",
"325 -113 OFFCURVE",
"325 -154 CURVE SMOOTH",
"325 -185 OFFCURVE",
"340 -217 OFFCURVE",
"406 -217 CURVE SMOOTH"
);
}
);
width = 620;
}
);
leftKerningGroup = I;
rightKerningGroup = I;
unicode = 014A;
},
{
color = 4;
glyphname = O;
lastChange = "2016-11-27 00:46:21 +0000";
layers = (
{
anchors = (
{
name = bottom;
position = "{283, 0}";
},
{
name = center;
position = "{283, 365}";
},
{
name = ogonek;
position = "{505, 10}";
},
{
name = top;
position = "{283, 730}";
},
{
name = topleft;
position = "{26, 730}";
},
{
name = topright;
position = "{541, 730}";
}
);
background = {
anchors = (
{
name = bottom;
position = "{278, 0}";
},
{
name = center;
position = "{278, 366}";
},
{
name = ogonek;
position = "{495, 10}";
},
{
name = top;
position = "{278, 731}";
},
{
name = topleft;
position = "{26, 731}";
},
{
name = topright;
position = "{371, 731}";
}
);
paths = (
{
closed = 1;
nodes = (
"387 -6 OFFCURVE",
"473 50 OFFCURVE",
"473 200 CURVE SMOOTH",
"473 525 LINE SMOOTH",
"473 675 OFFCURVE",
"387 731 OFFCURVE",
"277 731 CURVE SMOOTH",
"167 731 OFFCURVE",
"82 675 OFFCURVE",
"82 525 CURVE SMOOTH",
"82 200 LINE SMOOTH",
"82 50 OFFCURVE",
"167 -6 OFFCURVE",
"277 -6 CURVE SMOOTH"
);
},
{
closed = 1;
nodes = (
"177 30 OFFCURVE",
"118 84 OFFCURVE",
"118 200 CURVE SMOOTH",
"118 525 LINE SMOOTH",
"118 641 OFFCURVE",
"177 695 OFFCURVE",
"277 695 CURVE SMOOTH",
"377 695 OFFCURVE",
"437 641 OFFCURVE",
"437 525 CURVE SMOOTH",
"437 200 LINE SMOOTH",
"437 84 OFFCURVE",
"377 30 OFFCURVE",
"277 30 CURVE SMOOTH"
);
}
);
};
hints = (
{
place = "{76, 36}";
},
{
place = "{431, 36}";
},
{
horizontal = 1;
place = "{-6, 36}";
},
{
horizontal = 1;
place = "{695, 36}";
}
);
layerId = UUID0;
paths = (
{
closed = 1;
nodes = (
"396 -6 OFFCURVE",
"485 50 OFFCURVE",
"485 200 CURVE SMOOTH",
"485 530 LINE SMOOTH",
"485 680 OFFCURVE",
"396 736 OFFCURVE",
"283 736 CURVE SMOOTH",
"170 736 OFFCURVE",
"82 680 OFFCURVE",
"82 530 CURVE SMOOTH",
"82 200 LINE SMOOTH",
"82 50 OFFCURVE",
"170 -6 OFFCURVE",
"283 -6 CURVE SMOOTH"
);
},
{
closed = 1;
nodes = (
"179 30 OFFCURVE",
"118 84 OFFCURVE",
"118 200 CURVE SMOOTH",
"118 530 LINE SMOOTH",
"118 646 OFFCURVE",
"179 700 OFFCURVE",
"283 700 CURVE SMOOTH",
"387 700 OFFCURVE",
"449 646 OFFCURVE",
"449 530 CURVE SMOOTH",
"449 200 LINE SMOOTH",
"449 84 OFFCURVE",
"387 30 OFFCURVE",
"283 30 CURVE SMOOTH"
);
}
);
width = 567;
},
{
anchors = (
{
name = bottom;
position = "{298, 0}";
},
{
name = center;
position = "{298, 365}";
},
{
name = ogonek;
position = "{487, 10}";
},
{
name = top;
position = "{298, 730}";
},
{
name = topleft;
position = "{20, 730}";
},
{
name = topright;
position = "{577, 730}";
}
);
background = {
anchors = (
{
name = bottom;
position = "{292, 0}";
},
{
name = center;
position = "{292, 366}";
},
{
name = ogonek;
position = "{525, 10}";
},
{
name = top;
position = "{292, 731}";
},
{
name = topleft;
position = "{20, 731}";
},
{
name = topright;
position = "{406, 731}";
}
);
paths = (
{
closed = 1;
nodes = (
"429 -6 OFFCURVE",
"537 58 OFFCURVE",
"537 230 CURVE SMOOTH",
"537 495 LINE SMOOTH",
"537 667 OFFCURVE",
"429 731 OFFCURVE",
"291 731 CURVE SMOOTH",
"153 731 OFFCURVE",
"46 667 OFFCURVE",
"46 495 CURVE SMOOTH",
"46 230 LINE SMOOTH",
"46 58 OFFCURVE",
"153 -6 OFFCURVE",
"291 -6 CURVE SMOOTH"
);
},
{
closed = 1;
nodes = (
"235 130 OFFCURVE",
"202 161 OFFCURVE",
"202 230 CURVE SMOOTH",
"202 495 LINE SMOOTH",
"202 564 OFFCURVE",
"235 595 OFFCURVE",
"291 595 CURVE SMOOTH",
"347 595 OFFCURVE",
"381 564 OFFCURVE",
"381 495 CURVE SMOOTH",
"381 230 LINE SMOOTH",
"381 161 OFFCURVE",
"347 130 OFFCURVE",
"291 130 CURVE SMOOTH"
);
}
);
};
hints = (
{
place = "{46, 156}";
},
{
place = "{381, 156}";
},
{
horizontal = 1;
place = "{-6, 136}";
},
{
horizontal = 1;
place = "{595, 136}";
}
);
layerId = "228CC867-ECE3-4F82-B853-1E58141B916C";
paths = (
{
closed = 1;
nodes = (
"440 -6 OFFCURVE",
"551 58 OFFCURVE",
"551 230 CURVE SMOOTH",
"551 500 LINE SMOOTH",
"551 672 OFFCURVE",
"440 736 OFFCURVE",
"298 736 CURVE SMOOTH",
"156 736 OFFCURVE",
"46 672 OFFCURVE",
"46 500 CURVE SMOOTH",
"46 230 LINE SMOOTH",
"46 58 OFFCURVE",
"156 -6 OFFCURVE",
"298 -6 CURVE SMOOTH"
);
},
{
closed = 1;
nodes = (
"238 130 OFFCURVE",
"202 161 OFFCURVE",
"202 230 CURVE SMOOTH",
"202 500 LINE SMOOTH",
"202 569 OFFCURVE",
"238 600 OFFCURVE",
"298 600 CURVE SMOOTH",
"358 600 OFFCURVE",
"395 569 OFFCURVE",
"395 500 CURVE SMOOTH",
"395 230 LINE SMOOTH",
"395 161 OFFCURVE",
"358 130 OFFCURVE",
"298 130 CURVE SMOOTH"
);
}
);
width = 597;
}
);
leftKerningGroup = O;
rightKerningGroup = O;
unicode = 004F;
},
{
color = 0;
glyphname = OE;
lastChange = "2016-11-26 22:40:52 +0000";
layers = (
{
background = {
paths = (
{
closed = 1;
nodes = (
"344 -6 OFFCURVE",
"403 15 OFFCURVE",
"438 66 CURVE",
"438 18 LINE SMOOTH",
"438 6 OFFCURVE",
"447 0 OFFCURVE",
"456 0 CURVE SMOOTH",
"810 0 LINE SMOOTH",
"822 0 OFFCURVE",
"827 9 OFFCURVE",
"827 17 CURVE SMOOTH",
"827 27 OFFCURVE",
"821 36 OFFCURVE",
"810 36 CURVE SMOOTH",
"472 36 LINE",
"472 348 LINE",
"632 348 LINE SMOOTH",
"644 348 OFFCURVE",
"649 357 OFFCURVE",
"649 365 CURVE SMOOTH",
"649 375 OFFCURVE",
"643 384 OFFCURVE",
"632 384 CURVE SMOOTH",
"472 384 LINE",
"472 695 LINE",
"810 695 LINE SMOOTH",
"821 695 OFFCURVE",
"827 704 OFFCURVE",
"827 714 CURVE SMOOTH",
"827 722 OFFCURVE",
"822 731 OFFCURVE",
"810 731 CURVE SMOOTH",
"456 731 LINE SMOOTH",
"447 731 OFFCURVE",
"438 725 OFFCURVE",
"438 713 CURVE SMOOTH",
"438 659 LINE",
"403 710 OFFCURVE",
"344 731 OFFCURVE",
"277 731 CURVE SMOOTH",
"167 731 OFFCURVE",
"82 675 OFFCURVE",
"82 525 CURVE SMOOTH",
"82 200 LINE SMOOTH",
"82 50 OFFCURVE",
"167 -6 OFFCURVE",
"277 -6 CURVE SMOOTH"
);
},
{
closed = 1;
nodes = (
"177 30 OFFCURVE",
"118 84 OFFCURVE",
"118 200 CURVE SMOOTH",
"118 525 LINE SMOOTH",
"118 641 OFFCURVE",
"177 695 OFFCURVE",
"277 695 CURVE SMOOTH",
"377 695 OFFCURVE",
"437 641 OFFCURVE",
"437 525 CURVE SMOOTH",
"437 200 LINE SMOOTH",
"437 84 OFFCURVE",
"377 30 OFFCURVE",
"277 30 CURVE SMOOTH"
);
}
);
};
hints = (
{
place = "{76, 36}";
},
{
place = "{431, 35}";
},
{
horizontal = 1;
place = "{-6, 42}";
},
{
horizontal = 1;
place = "{348, 36}";
},
{
horizontal = 1;
place = "{695, 36}";
},
{
horizontal = 1;
place = "{0, 21}";
target = up;
type = BottomGhost;
}
);
layerId = UUID0;
paths = (
{
closed = 1;
nodes = (
"344 -6 OFFCURVE",
"403 15 OFFCURVE",
"438 66 CURVE",
"438 18 LINE SMOOTH",
"438 6 OFFCURVE",
"447 0 OFFCURVE",
"456 0 CURVE SMOOTH",
"810 0 LINE SMOOTH",
"822 0 OFFCURVE",
"827 9 OFFCURVE",
"827 17 CURVE SMOOTH",
"827 27 OFFCURVE",
"821 36 OFFCURVE",
"810 36 CURVE SMOOTH",
"472 36 LINE",
"472 348 LINE",
"632 348 LINE SMOOTH",
"644 348 OFFCURVE",
"649 357 OFFCURVE",
"649 365 CURVE SMOOTH",
"649 375 OFFCURVE",
"643 384 OFFCURVE",
"632 384 CURVE SMOOTH",
"472 384 LINE",
"472 695 LINE",
"810 695 LINE SMOOTH",
"821 695 OFFCURVE",
"827 704 OFFCURVE",
"827 714 CURVE SMOOTH",
"827 722 OFFCURVE",
"822 731 OFFCURVE",
"810 731 CURVE SMOOTH",
"456 731 LINE SMOOTH",
"447 731 OFFCURVE",
"438 725 OFFCURVE",
"438 713 CURVE SMOOTH",
"438 659 LINE",
"403 710 OFFCURVE",
"344 731 OFFCURVE",
"277 731 CURVE SMOOTH",
"167 731 OFFCURVE",
"82 675 OFFCURVE",
"82 525 CURVE SMOOTH",
"82 200 LINE SMOOTH",
"82 50 OFFCURVE",
"167 -6 OFFCURVE",
"277 -6 CURVE SMOOTH"
);
},
{
closed = 1;
nodes = (
"177 30 OFFCURVE",
"118 84 OFFCURVE",
"118 200 CURVE SMOOTH",
"118 525 LINE SMOOTH",
"118 641 OFFCURVE",
"177 695 OFFCURVE",
"277 695 CURVE SMOOTH",
"377 695 OFFCURVE",
"437 641 OFFCURVE",
"437 525 CURVE SMOOTH",
"437 200 LINE SMOOTH",
"437 84 OFFCURVE",
"377 30 OFFCURVE",
"277 30 CURVE SMOOTH"
);
}
);
width = 853;
},
{
background = {
paths = (
{
closed = 1;
nodes = (
"315 -6 OFFCURVE",
"378 18 OFFCURVE",
"403 68 CURVE",
"403 48 LINE SMOOTH",
"403 16 OFFCURVE",
"437 0 OFFCURVE",
"471 0 CURVE SMOOTH",
"765 0 LINE SMOOTH",
"798 0 OFFCURVE",
"812 35 OFFCURVE",
"812 67 CURVE SMOOTH",
"812 104 OFFCURVE",
"795 136 OFFCURVE",
"765 136 CURVE SMOOTH",
"539 136 LINE",
"539 306 LINE",
"647 306 LINE SMOOTH",
"680 306 OFFCURVE",
"694 338 OFFCURVE",
"694 365 CURVE SMOOTH",
"694 397 OFFCURVE",
"677 426 OFFCURVE",
"647 426 CURVE SMOOTH",
"539 426 LINE",
"539 595 LINE",
"765 595 LINE SMOOTH",
"795 595 OFFCURVE",
"812 627 OFFCURVE",
"812 664 CURVE SMOOTH",
"812 696 OFFCURVE",
"798 731 OFFCURVE",
"765 731 CURVE SMOOTH",
"471 731 LINE SMOOTH",
"437 731 OFFCURVE",
"403 715 OFFCURVE",
"403 683 CURVE SMOOTH",
"403 657 LINE",
"378 706 OFFCURVE",
"315 731 OFFCURVE",
"262 731 CURVE SMOOTH",
"136 731 OFFCURVE",
"47 667 OFFCURVE",
"47 495 CURVE SMOOTH",
"47 230 LINE SMOOTH",
"47 58 OFFCURVE",
"136 -6 OFFCURVE",
"262 -6 CURVE SMOOTH"
);
},
{
closed = 1;
nodes = (
"236 130 OFFCURVE",
"203 161 OFFCURVE",
"203 230 CURVE SMOOTH",
"203 495 LINE SMOOTH",
"203 564 OFFCURVE",
"236 595 OFFCURVE",
"292 595 CURVE SMOOTH",
"348 595 OFFCURVE",
"382 564 OFFCURVE",
"382 495 CURVE SMOOTH",
"382 230 LINE SMOOTH",
"382 161 OFFCURVE",
"348 130 OFFCURVE",
"292 130 CURVE SMOOTH"
);
}
);
};
hints = (
{
place = "{47, 156}";
},
{
place = "{382, 157}";
},
{
horizontal = 1;
place = "{0, 136}";
},
{
horizontal = 1;
place = "{306, 120}";
},
{
horizontal = 1;
place = "{595, 136}";
},
{
horizontal = 1;
place = "{-6, 21}";
target = up;
type = BottomGhost;
}
);
layerId = "228CC867-ECE3-4F82-B853-1E58141B916C";
paths = (
{
closed = 1;
nodes = (
"315 -6 OFFCURVE",
"378 18 OFFCURVE",
"403 68 CURVE",
"403 48 LINE SMOOTH",
"403 16 OFFCURVE",
"437 0 OFFCURVE",
"471 0 CURVE SMOOTH",
"765 0 LINE SMOOTH",
"798 0 OFFCURVE",
"812 35 OFFCURVE",
"812 67 CURVE SMOOTH",
"812 104 OFFCURVE",
"795 136 OFFCURVE",
"765 136 CURVE SMOOTH",
"539 136 LINE",
"539 306 LINE",
"647 306 LINE SMOOTH",
"680 306 OFFCURVE",
"694 338 OFFCURVE",
"694 365 CURVE SMOOTH",
"694 397 OFFCURVE",
"677 426 OFFCURVE",
"647 426 CURVE SMOOTH",
"539 426 LINE",
"539 595 LINE",
"765 595 LINE SMOOTH",
"795 595 OFFCURVE",
"812 627 OFFCURVE",
"812 664 CURVE SMOOTH",
"812 696 OFFCURVE",
"798 731 OFFCURVE",
"765 731 CURVE SMOOTH",
"471 731 LINE SMOOTH",
"437 731 OFFCURVE",
"403 715 OFFCURVE",
"403 683 CURVE SMOOTH",
"403 657 LINE",
"378 706 OFFCURVE",
"315 731 OFFCURVE",
"262 731 CURVE SMOOTH",
"136 731 OFFCURVE",
"47 667 OFFCURVE",
"47 495 CURVE SMOOTH",
"47 230 LINE SMOOTH",
"47 58 OFFCURVE",
"136 -6 OFFCURVE",
"262 -6 CURVE SMOOTH"
);
},
{
closed = 1;
nodes = (
"236 130 OFFCURVE",
"203 161 OFFCURVE",
"203 230 CURVE SMOOTH",
"203 495 LINE SMOOTH",
"203 564 OFFCURVE",
"236 595 OFFCURVE",
"292 595 CURVE SMOOTH",
"348 595 OFFCURVE",
"382 564 OFFCURVE",
"382 495 CURVE SMOOTH",
"382 230 LINE SMOOTH",
"382 161 OFFCURVE",
"348 130 OFFCURVE",
"292 130 CURVE SMOOTH"
);
}
);
width = 826;
}
);
leftKerningGroup = O;
rightKerningGroup = E;
unicode = 0152;
},
{
color = 4;
glyphname = P;
lastChange = "2016-11-26 19:38:57 +0000";
layers = (
{
anchors = (
{
name = bottom;
position = "{249, 0}";
},
{
name = top;
position = "{249, 730}";
}
);
background = {
paths = (
{
closed = 1;
nodes = (
"117 0 OFFCURVE",
"126 6 OFFCURVE",
"126 18 CURVE SMOOTH",
"126 306 LINE",
"285 306 LINE SMOOTH",
"395 306 OFFCURVE",
"481 363 OFFCURVE",
"481 513 CURVE SMOOTH",
"481 525 LINE SMOOTH",
"481 675 OFFCURVE",
"395 731 OFFCURVE",
"285 731 CURVE SMOOTH",
"108 731 LINE",
"97 730 OFFCURVE",
"90 723 OFFCURVE",
"90 714 CURVE SMOOTH",
"90 18 LINE SMOOTH",
"90 6 OFFCURVE",
"99 0 OFFCURVE",
"108 0 CURVE SMOOTH"
);
},
{
closed = 1;
nodes = (
"126 695 LINE",
"285 695 LINE SMOOTH",
"385 695 OFFCURVE",
"445 641 OFFCURVE",
"445 525 CURVE SMOOTH",
"445 513 LINE SMOOTH",
"445 397 OFFCURVE",
"385 342 OFFCURVE",
"285 342 CURVE SMOOTH",
"126 342 LINE"
);
}
);
};
hints = (
{
place = "{83, 36}";
},
{
place = "{438, 36}";
},
{
horizontal = 1;
place = "{306, 36}";
},
{
horizontal = 1;
place = "{695, 36}";
},
{
horizontal = 1;
place = "{0, 21}";
target = up;
type = BottomGhost;
}
);
layerId = UUID0;
paths = (
{
closed = 1;
nodes = (
"117 0 OFFCURVE",
"126 6 OFFCURVE",
"126 18 CURVE SMOOTH",
"126 305 LINE",
"269 305 LINE SMOOTH",
"372 305 OFFCURVE",
"451 362 OFFCURVE",
"451 512 CURVE SMOOTH",
"451 524 LINE SMOOTH",
"451 674 OFFCURVE",
"372 730 OFFCURVE",
"270 730 CURVE SMOOTH",
"107 730 LINE",
"97 729 OFFCURVE",
"90 722 OFFCURVE",
"90 713 CURVE SMOOTH",
"90 18 LINE SMOOTH",
"90 6 OFFCURVE",
"99 0 OFFCURVE",
"108 0 CURVE SMOOTH"
);
},
{
closed = 1;
nodes = (
"126 694 LINE",
"269 694 LINE SMOOTH",
"361 694 OFFCURVE",
"415 640 OFFCURVE",
"415 524 CURVE SMOOTH",
"415 512 LINE SMOOTH",
"415 396 OFFCURVE",
"361 341 OFFCURVE",
"269 341 CURVE SMOOTH",
"126 341 LINE"
);
}
);
width = 493;
},
{
anchors = (
{
name = bottom;
position = "{280, 0}";
},
{
name = top;
position = "{280, 730}";
}
);
background = {
paths = (
{
closed = 1;
nodes = (
"171 0 OFFCURVE",
"210 16 OFFCURVE",
"210 48 CURVE SMOOTH",
"210 264 LINE",
"309 264 LINE SMOOTH",
"447 264 OFFCURVE",
"555 328 OFFCURVE",
"555 496 CURVE SMOOTH",
"555 501 LINE SMOOTH",
"555 669 OFFCURVE",
"451 731 OFFCURVE",
"319 731 CURVE SMOOTH",
"112 731 LINE SMOOTH",
"77 731 OFFCURVE",
"54 709 OFFCURVE",
"54 684 CURVE SMOOTH",
"54 48 LINE SMOOTH",
"54 16 OFFCURVE",
"93 0 OFFCURVE",
"132 0 CURVE SMOOTH"
);
},
{
closed = 1;
nodes = (
"210 595 LINE",
"309 595 LINE SMOOTH",
"365 595 OFFCURVE",
"399 563 OFFCURVE",
"399 495 CURVE SMOOTH",
"399 484 LINE SMOOTH",
"399 416 OFFCURVE",
"365 384 OFFCURVE",
"309 384 CURVE SMOOTH",
"210 384 LINE"
);
}
);
};
hints = (
{
place = "{54, 156}";
},
{
place = "{399, 156}";
},
{
horizontal = 1;
place = "{264, 120}";
},
{
horizontal = 1;
place = "{595, 136}";
},
{
horizontal = 1;
place = "{0, 21}";
target = up;
type = BottomGhost;
}
);
layerId = "228CC867-ECE3-4F82-B853-1E58141B916C";
paths = (
{
closed = 1;
nodes = (
"171 0 OFFCURVE",
"210 16 OFFCURVE",
"210 48 CURVE SMOOTH",
"210 263 LINE",
"304 263 LINE SMOOTH",
"439 263 OFFCURVE",
"545 327 OFFCURVE",
"545 495 CURVE SMOOTH",
"545 500 LINE SMOOTH",
"545 668 OFFCURVE",
"443 730 OFFCURVE",
"314 730 CURVE SMOOTH",
"112 730 LINE SMOOTH",
"77 730 OFFCURVE",
"54 708 OFFCURVE",
"54 683 CURVE SMOOTH",
"54 48 LINE SMOOTH",
"54 16 OFFCURVE",
"93 0 OFFCURVE",
"132 0 CURVE SMOOTH"
);
},
{
closed = 1;
nodes = (
"210 594 LINE",
"304 594 LINE SMOOTH",
"357 594 OFFCURVE",
"389 562 OFFCURVE",
"389 494 CURVE SMOOTH",
"389 483 LINE SMOOTH",
"389 415 OFFCURVE",
"357 383 OFFCURVE",
"304 383 CURVE SMOOTH",
"210 383 LINE"
);
}
);
width = 559;
},
{
associatedMasterId = "228CC867-ECE3-4F82-B853-1E58141B916C";
background = {
paths = (
{
closed = 1;
nodes = (
"171 0 OFFCURVE",
"210 16 OFFCURVE",
"210 48 CURVE SMOOTH",
"210 264 LINE",
"309 264 LINE SMOOTH",
"447 264 OFFCURVE",
"555 328 OFFCURVE",
"555 496 CURVE SMOOTH",
"555 501 LINE SMOOTH",
"555 669 OFFCURVE",
"451 731 OFFCURVE",
"319 731 CURVE SMOOTH",
"112 731 LINE SMOOTH",
"77 731 OFFCURVE",
"54 709 OFFCURVE",
"54 684 CURVE SMOOTH",
"54 48 LINE SMOOTH",
"54 16 OFFCURVE",
"93 0 OFFCURVE",
"132 0 CURVE SMOOTH"
);
},
{
closed = 1;
nodes = (
"210 595 LINE",
"309 595 LINE SMOOTH",
"365 595 OFFCURVE",
"399 563 OFFCURVE",
"399 495 CURVE SMOOTH",
"399 484 LINE SMOOTH",
"399 416 OFFCURVE",
"365 384 OFFCURVE",
"309 384 CURVE SMOOTH",
"210 384 LINE"
);
}
);
};
hints = (
{
place = "{54, 156}";
},
{
place = "{399, 156}";
},
{
horizontal = 1;
place = "{264, 120}";
},
{
horizontal = 1;
place = "{595, 136}";
},
{
horizontal = 1;
place = "{0, 21}";
target = up;
type = BottomGhost;
}
);
layerId = "0A2A706B-623F-497A-9612-844967AB4200";
name = "Nov 17 16, 21:37";
paths = (
{
closed = 1;
nodes = (
"171 0 OFFCURVE",
"210 16 OFFCURVE",
"210 48 CURVE SMOOTH",
"210 264 LINE",
"309 264 LINE SMOOTH",
"447 264 OFFCURVE",
"555 328 OFFCURVE",
"555 496 CURVE SMOOTH",
"555 501 LINE SMOOTH",
"555 669 OFFCURVE",
"451 731 OFFCURVE",
"319 731 CURVE SMOOTH",
"112 731 LINE SMOOTH",
"77 731 OFFCURVE",
"54 709 OFFCURVE",
"54 684 CURVE SMOOTH",
"54 48 LINE SMOOTH",
"54 16 OFFCURVE",
"93 0 OFFCURVE",
"132 0 CURVE SMOOTH"
);
},
{
closed = 1;
nodes = (
"210 595 LINE",
"309 595 LINE SMOOTH",
"365 595 OFFCURVE",
"399 563 OFFCURVE",
"399 495 CURVE SMOOTH",
"399 484 LINE SMOOTH",
"399 416 OFFCURVE",
"365 384 OFFCURVE",
"309 384 CURVE SMOOTH",
"210 384 LINE"
);
}
);
width = 569;
},
{
associatedMasterId = UUID0;
background = {
paths = (
{
closed = 1;
nodes = (
"110 0 OFFCURVE",
"119 6 OFFCURVE",
"119 18 CURVE SMOOTH",
"119 306 LINE",
"278 306 LINE SMOOTH",
"388 306 OFFCURVE",
"474 363 OFFCURVE",
"474 513 CURVE SMOOTH",
"474 525 LINE SMOOTH",
"474 675 OFFCURVE",
"388 731 OFFCURVE",
"278 731 CURVE SMOOTH",
"101 731 LINE",
"90 730 OFFCURVE",
"83 723 OFFCURVE",
"83 714 CURVE SMOOTH",
"83 18 LINE SMOOTH",
"83 6 OFFCURVE",
"92 0 OFFCURVE",
"101 0 CURVE SMOOTH"
);
},
{
closed = 1;
nodes = (
"119 695 LINE",
"278 695 LINE SMOOTH",
"378 695 OFFCURVE",
"438 641 OFFCURVE",
"438 525 CURVE SMOOTH",
"438 513 LINE SMOOTH",
"438 397 OFFCURVE",
"378 342 OFFCURVE",
"278 342 CURVE SMOOTH",
"119 342 LINE"
);
}
);
};
hints = (
{
place = "{83, 36}";
},
{
place = "{438, 36}";
},
{
horizontal = 1;
place = "{306, 36}";
},
{
horizontal = 1;
place = "{695, 36}";
},
{
horizontal = 1;
place = "{0, 21}";
target = up;
type = BottomGhost;
}
);
layerId = "8FA61016-9DE8-498B-8349-1FBD3C59D977";
name = "Nov 17 16, 21:37";
paths = (
{
closed = 1;
nodes = (
"110 0 OFFCURVE",
"119 6 OFFCURVE",
"119 18 CURVE SMOOTH",
"119 306 LINE",
"278 306 LINE SMOOTH",
"388 306 OFFCURVE",
"474 363 OFFCURVE",
"474 513 CURVE SMOOTH",
"474 525 LINE SMOOTH",
"474 675 OFFCURVE",
"388 731 OFFCURVE",
"278 731 CURVE SMOOTH",
"101 731 LINE",
"90 730 OFFCURVE",
"83 723 OFFCURVE",
"83 714 CURVE SMOOTH",
"83 18 LINE SMOOTH",
"83 6 OFFCURVE",
"92 0 OFFCURVE",
"101 0 CURVE SMOOTH"
);
},
{
closed = 1;
nodes = (
"119 695 LINE",
"278 695 LINE SMOOTH",
"378 695 OFFCURVE",
"438 641 OFFCURVE",
"438 525 CURVE SMOOTH",
"438 513 LINE SMOOTH",
"438 397 OFFCURVE",
"378 342 OFFCURVE",
"278 342 CURVE SMOOTH",
"119 342 LINE"
);
}
);
width = 513;
}
);
leftKerningGroup = I;
unicode = 0050;
},
{
color = 4;
glyphname = Thorn;
lastChange = "2016-11-26 22:29:33 +0000";
layers = (
{
background = {
paths = (
{
closed = 1;
nodes = (
"117 0 OFFCURVE",
"125 9 OFFCURVE",
"125 18 CURVE SMOOTH",
"125 212 LINE",
"142 166 OFFCURVE",
"210 134 OFFCURVE",
"273 134 CURVE SMOOTH",
"352 134 OFFCURVE",
"439 185 OFFCURVE",
"439 281 CURVE SMOOTH",
"439 473 LINE SMOOTH",
"439 569 OFFCURVE",
"355 618 OFFCURVE",
"268 618 CURVE SMOOTH",
"194 618 OFFCURVE",
"148 583 OFFCURVE",
"125 542 CURVE",
"125 714 LINE SMOOTH",
"125 724 OFFCURVE",
"118 731 OFFCURVE",
"107 731 CURVE SMOOTH",
"98 731 OFFCURVE",
"90 726 OFFCURVE",
"90 715 CURVE SMOOTH",
"90 18 LINE SMOOTH",
"90 9 OFFCURVE",
"98 0 OFFCURVE",
"108 0 CURVE SMOOTH"
);
},
{
closed = 1;
nodes = (
"186 169 OFFCURVE",
"125 227 OFFCURVE",
"125 281 CURVE SMOOTH",
"125 473 LINE SMOOTH",
"125 538 OFFCURVE",
"193 583 OFFCURVE",
"270 583 CURVE SMOOTH",
"337 583 OFFCURVE",
"404 548 OFFCURVE",
"404 473 CURVE SMOOTH",
"404 281 LINE SMOOTH",
"404 204 OFFCURVE",
"336 169 OFFCURVE",
"270 169 CURVE SMOOTH"
);
}
);
};
hints = (
{
place = "{83, 35}";
},
{
place = "{397, 35}";
},
{
horizontal = 1;
place = "{134, 35}";
},
{
horizontal = 1;
place = "{583, 35}";
},
{
horizontal = 1;
place = "{0, 21}";
target = up;
type = BottomGhost;
},
{
horizontal = 1;
place = "{731, -20}";
target = down;
type = TopGhost;
}
);
layerId = UUID0;
paths = (
{
closed = 1;
nodes = (
"90 6 OFFCURVE",
"99 0 OFFCURVE",
"108 0 CURVE SMOOTH",
"117 0 OFFCURVE",
"126 6 OFFCURVE",
"126 18 CURVE SMOOTH",
"126 153 LINE",
"269 153 LINE SMOOTH",
"372 153 OFFCURVE",
"451 210 OFFCURVE",
"451 360 CURVE SMOOTH",
"451 372 LINE SMOOTH",
"451 521 OFFCURVE",
"372 577 OFFCURVE",
"270 577 CURVE SMOOTH",
"126 577 LINE",
"126 713 LINE SMOOTH",
"126 725 OFFCURVE",
"117 730 OFFCURVE",
"108 730 CURVE SMOOTH",
"99 730 OFFCURVE",
"90 725 OFFCURVE",
"90 713 CURVE SMOOTH",
"90 18 LINE SMOOTH"
);
},
{
closed = 1;
nodes = (
"126 541 LINE",
"269 541 LINE SMOOTH",
"361 541 OFFCURVE",
"415 487 OFFCURVE",
"415 372 CURVE SMOOTH",
"415 360 LINE SMOOTH",
"415 244 OFFCURVE",
"361 189 OFFCURVE",
"269 189 CURVE SMOOTH",
"126 189 LINE"
);
}
);
width = 493;
},
{
background = {
paths = (
{
closed = 1;
nodes = (
"174 0 OFFCURVE",
"209 24 OFFCURVE",
"209 48 CURVE SMOOTH",
"209 211 LINE",
"228 170 OFFCURVE",
"280 131 OFFCURVE",
"339 131 CURVE SMOOTH",
"432 131 OFFCURVE",
"513 232 OFFCURVE",
"513 343 CURVE SMOOTH",
"513 413 LINE SMOOTH",
"513 528 OFFCURVE",
"435 623 OFFCURVE",
"334 623 CURVE SMOOTH",
"276 623 OFFCURVE",
"230 586 OFFCURVE",
"209 547 CURVE",
"209 701 LINE SMOOTH",
"209 729 OFFCURVE",
"175 748 OFFCURVE",
"128 748 CURVE SMOOTH",
"87 748 OFFCURVE",
"54 729 OFFCURVE",
"54 701 CURVE SMOOTH",
"54 48 LINE SMOOTH",
"54 24 OFFCURVE",
"86 0 OFFCURVE",
"130 0 CURVE SMOOTH"
);
},
{
closed = 1;
nodes = (
"240 266 OFFCURVE",
"209 313 OFFCURVE",
"209 330 CURVE SMOOTH",
"209 413 LINE SMOOTH",
"209 460 OFFCURVE",
"246 488 OFFCURVE",
"282 488 CURVE SMOOTH",
"324 488 OFFCURVE",
"358 451 OFFCURVE",
"358 413 CURVE SMOOTH",
"358 343 LINE SMOOTH",
"358 304 OFFCURVE",
"323 266 OFFCURVE",
"284 266 CURVE SMOOTH"
);
}
);
};
hints = (
{
place = "{54, 155}";
},
{
place = "{358, 155}";
},
{
horizontal = 1;
place = "{131, 135}";
},
{
horizontal = 1;
place = "{488, 135}";
},
{
horizontal = 1;
place = "{748, -20}";
target = down;
type = TopGhost;
},
{
horizontal = 1;
place = "{0, 21}";
target = up;
type = BottomGhost;
}
);
layerId = "228CC867-ECE3-4F82-B853-1E58141B916C";
paths = (
{
closed = 1;
nodes = (
"54 16 OFFCURVE",
"93 0 OFFCURVE",
"132 0 CURVE SMOOTH",
"171 0 OFFCURVE",
"210 16 OFFCURVE",
"210 48 CURVE SMOOTH",
"210 131 LINE",
"304 131 LINE SMOOTH",
"439 131 OFFCURVE",
"545 195 OFFCURVE",
"545 363 CURVE SMOOTH",
"545 369 LINE SMOOTH",
"545 537 OFFCURVE",
"443 599 OFFCURVE",
"314 599 CURVE SMOOTH",
"210 599 LINE",
"210 683 LINE SMOOTH",
"210 716 OFFCURVE",
"171 730 OFFCURVE",
"132 730 CURVE SMOOTH",
"93 730 OFFCURVE",
"54 716 OFFCURVE",
"54 683 CURVE SMOOTH",
"54 48 LINE SMOOTH"
);
},
{
closed = 1;
nodes = (
"210 471 LINE",
"304 471 LINE SMOOTH",
"357 471 OFFCURVE",
"389 439 OFFCURVE",
"389 371 CURVE SMOOTH",
"389 359 LINE SMOOTH",
"389 291 OFFCURVE",
"357 259 OFFCURVE",
"304 259 CURVE SMOOTH",
"210 259 LINE"
);
}
);
width = 559;
}
);
leftKerningGroup = I;
leftMetricsKey = P;
rightMetricsKey = P;
unicode = 00DE;
},
{
color = 4;
glyphname = Q;
lastChange = "2016-11-26 19:38:57 +0000";
layers = (
{
anchors = (
{
name = bottom;
position = "{278, 0}";
},
{
name = top;
position = "{278, 730}";
}
);
background = {
paths = (
{
closed = 1;
nodes = (
"281 -109 OFFCURVE",
"290 -103 OFFCURVE",
"290 -91 CURVE SMOOTH",
"290 -5 LINE",
"391 0 OFFCURVE",
"467 58 OFFCURVE",
"467 200 CURVE SMOOTH",
"467 525 LINE SMOOTH",
"467 675 OFFCURVE",
"381 731 OFFCURVE",
"271 731 CURVE SMOOTH",
"161 731 OFFCURVE",
"76 675 OFFCURVE",
"76 525 CURVE SMOOTH",
"76 200 LINE SMOOTH",
"76 57 OFFCURVE",
"152 0 OFFCURVE",
"254 -5 CURVE",
"254 -91 LINE SMOOTH",
"254 -103 OFFCURVE",
"263 -109 OFFCURVE",
"272 -109 CURVE SMOOTH"
);
},
{
closed = 1;
nodes = (
"164 36 OFFCURVE",
"112 90 OFFCURVE",
"112 200 CURVE SMOOTH",
"112 525 LINE SMOOTH",
"112 641 OFFCURVE",
"171 695 OFFCURVE",
"271 695 CURVE SMOOTH",
"371 695 OFFCURVE",
"431 641 OFFCURVE",
"431 525 CURVE SMOOTH",
"431 200 LINE SMOOTH",
"431 91 OFFCURVE",
"378 37 OFFCURVE",
"290 31 CURVE",
"290 114 LINE SMOOTH",
"290 126 OFFCURVE",
"281 131 OFFCURVE",
"272 131 CURVE SMOOTH",
"263 131 OFFCURVE",
"254 126 OFFCURVE",
"254 114 CURVE SMOOTH",
"254 30 LINE"
);
}
);
};
components = (
{
name = O;
}
);
hints = (
{
place = "{76, 36}";
},
{
place = "{254, 36}";
},
{
place = "{431, 36}";
},
{
horizontal = 1;
place = "{-5, 35}";
},
{
horizontal = 1;
place = "{695, 36}";
},
{
horizontal = 1;
place = "{-109, 21}";
target = up;
type = BottomGhost;
}
);
layerId = UUID0;
paths = (
{
closed = 1;
nodes = (
"287 -109 OFFCURVE",
"296 -103 OFFCURVE",
"296 -91 CURVE SMOOTH",
"296 114 LINE SMOOTH",
"296 126 OFFCURVE",
"287 131 OFFCURVE",
"278 131 CURVE SMOOTH",
"269 131 OFFCURVE",
"260 126 OFFCURVE",
"260 114 CURVE SMOOTH",
"260 -91 LINE SMOOTH",
"260 -103 OFFCURVE",
"269 -109 OFFCURVE",
"278 -109 CURVE SMOOTH"
);
}
);
width = 561;
},
{
anchors = (
{
name = bottom;
position = "{299, 0}";
},
{
name = top;
position = "{299, 730}";
}
);
background = {
components = (
{
name = O;
}
);
paths = (
{
closed = 1;
nodes = (
"322 -109 OFFCURVE",
"346 -93 OFFCURVE",
"346 -61 CURVE SMOOTH",
"346 184 LINE SMOOTH",
"346 217 OFFCURVE",
"322 231 OFFCURVE",
"298 231 CURVE SMOOTH",
"274 231 OFFCURVE",
"250 217 OFFCURVE",
"250 184 CURVE SMOOTH",
"250 -61 LINE SMOOTH",
"250 -93 OFFCURVE",
"274 -109 OFFCURVE",
"298 -109 CURVE SMOOTH"
);
}
);
};
components = (
{
name = O;
}
);
hints = (
{
place = "{46, 156}";
},
{
place = "{243, 96}";
},
{
place = "{381, 156}";
},
{
horizontal = 1;
place = "{595, 136}";
},
{
horizontal = 1;
place = "{-109, 21}";
target = up;
type = BottomGhost;
}
);
layerId = "228CC867-ECE3-4F82-B853-1E58141B916C";
paths = (
{
closed = 1;
nodes = (
"325 -109 OFFCURVE",
"351 -93 OFFCURVE",
"351 -61 CURVE SMOOTH",
"351 184 LINE SMOOTH",
"351 217 OFFCURVE",
"325 231 OFFCURVE",
"298 231 CURVE SMOOTH",
"272 231 OFFCURVE",
"245 217 OFFCURVE",
"245 184 CURVE SMOOTH",
"245 -61 LINE SMOOTH",
"245 -93 OFFCURVE",
"272 -109 OFFCURVE",
"298 -109 CURVE SMOOTH"
);
}
);
width = 597;
},
{
associatedMasterId = "228CC867-ECE3-4F82-B853-1E58141B916C";
background = {
paths = (
{
closed = 1;
nodes = (
"315 -109 OFFCURVE",
"339 -93 OFFCURVE",
"339 -61 CURVE SMOOTH",
"339 -3 LINE",
"453 11 OFFCURVE",
"537 78 OFFCURVE",
"537 230 CURVE SMOOTH",
"537 495 LINE SMOOTH",
"537 668 OFFCURVE",
"429 731 OFFCURVE",
"291 731 CURVE SMOOTH",
"153 731 OFFCURVE",
"46 668 OFFCURVE",
"46 495 CURVE SMOOTH",
"46 230 LINE SMOOTH",
"46 78 OFFCURVE",
"129 11 OFFCURVE",
"243 -3 CURVE",
"243 -61 LINE SMOOTH",
"243 -93 OFFCURVE",
"267 -109 OFFCURVE",
"291 -109 CURVE SMOOTH"
);
},
{
closed = 1;
nodes = (
"216 155 OFFCURVE",
"202 184 OFFCURVE",
"202 230 CURVE SMOOTH",
"202 495 LINE SMOOTH",
"202 563 OFFCURVE",
"235 595 OFFCURVE",
"291 595 CURVE SMOOTH",
"347 595 OFFCURVE",
"381 563 OFFCURVE",
"381 495 CURVE SMOOTH",
"381 230 LINE SMOOTH",
"381 184 OFFCURVE",
"365 155 OFFCURVE",
"339 140 CURVE",
"339 184 LINE SMOOTH",
"339 217 OFFCURVE",
"315 231 OFFCURVE",
"291 231 CURVE SMOOTH",
"267 231 OFFCURVE",
"243 217 OFFCURVE",
"243 184 CURVE SMOOTH",
"243 140 LINE"
);
}
);
};
hints = (
{
place = "{46, 156}";
},
{
place = "{243, 96}";
},
{
place = "{381, 156}";
},
{
horizontal = 1;
place = "{595, 136}";
},
{
horizontal = 1;
place = "{-109, 21}";
target = up;
type = BottomGhost;
}
);
layerId = "116CE621-E40E-4800-BD67-9C903361FC43";
name = "Nov 20 16, 13:31";
paths = (
{
closed = 1;
nodes = (
"322 -109 OFFCURVE",
"346 -93 OFFCURVE",
"346 -61 CURVE SMOOTH",
"346 -3 LINE",
"464 11 OFFCURVE",
"551 78 OFFCURVE",
"551 230 CURVE SMOOTH",
"551 495 LINE SMOOTH",
"551 668 OFFCURVE",
"440 731 OFFCURVE",
"298 731 CURVE SMOOTH",
"156 731 OFFCURVE",
"46 668 OFFCURVE",
"46 495 CURVE SMOOTH",
"46 230 LINE SMOOTH",
"46 78 OFFCURVE",
"132 11 OFFCURVE",
"250 -3 CURVE",
"250 -61 LINE SMOOTH",
"250 -93 OFFCURVE",
"274 -109 OFFCURVE",
"298 -109 CURVE SMOOTH"
);
},
{
closed = 1;
nodes = (
"218 155 OFFCURVE",
"202 184 OFFCURVE",
"202 230 CURVE SMOOTH",
"202 495 LINE SMOOTH",
"202 563 OFFCURVE",
"238 595 OFFCURVE",
"298 595 CURVE SMOOTH",
"358 595 OFFCURVE",
"395 563 OFFCURVE",
"395 495 CURVE SMOOTH",
"395 230 LINE SMOOTH",
"395 184 OFFCURVE",
"377 155 OFFCURVE",
"346 140 CURVE",
"346 184 LINE SMOOTH",
"346 217 OFFCURVE",
"322 231 OFFCURVE",
"298 231 CURVE SMOOTH",
"274 231 OFFCURVE",
"250 217 OFFCURVE",
"250 184 CURVE SMOOTH",
"250 140 LINE"
);
}
);
width = 597;
},
{
associatedMasterId = UUID0;
background = {
paths = (
{
closed = 1;
nodes = (
"281 -109 OFFCURVE",
"290 -103 OFFCURVE",
"290 -91 CURVE SMOOTH",
"290 -5 LINE",
"391 0 OFFCURVE",
"467 58 OFFCURVE",
"467 200 CURVE SMOOTH",
"467 525 LINE SMOOTH",
"467 675 OFFCURVE",
"381 731 OFFCURVE",
"271 731 CURVE SMOOTH",
"161 731 OFFCURVE",
"76 675 OFFCURVE",
"76 525 CURVE SMOOTH",
"76 200 LINE SMOOTH",
"76 57 OFFCURVE",
"152 0 OFFCURVE",
"254 -5 CURVE",
"254 -91 LINE SMOOTH",
"254 -103 OFFCURVE",
"263 -109 OFFCURVE",
"272 -109 CURVE SMOOTH"
);
},
{
closed = 1;
nodes = (
"164 36 OFFCURVE",
"112 90 OFFCURVE",
"112 200 CURVE SMOOTH",
"112 525 LINE SMOOTH",
"112 641 OFFCURVE",
"171 695 OFFCURVE",
"271 695 CURVE SMOOTH",
"371 695 OFFCURVE",
"431 641 OFFCURVE",
"431 525 CURVE SMOOTH",
"431 200 LINE SMOOTH",
"431 91 OFFCURVE",
"378 37 OFFCURVE",
"290 31 CURVE",
"290 114 LINE SMOOTH",
"290 126 OFFCURVE",
"281 131 OFFCURVE",
"272 131 CURVE SMOOTH",
"263 131 OFFCURVE",
"254 126 OFFCURVE",
"254 114 CURVE SMOOTH",
"254 30 LINE"
);
}
);
};
hints = (
{
place = "{76, 36}";
},
{
place = "{254, 36}";
},
{
place = "{431, 36}";
},
{
horizontal = 1;
place = "{-5, 35}";
},
{
horizontal = 1;
place = "{695, 36}";
},
{
horizontal = 1;
place = "{-109, 21}";
target = up;
type = BottomGhost;
}
);
layerId = "5B55105F-896D-470A-A9A1-DB90216E71A7";
name = "Nov 20 16, 13:31";
paths = (
{
closed = 1;
nodes = (
"287 -109 OFFCURVE",
"296 -103 OFFCURVE",
"296 -91 CURVE SMOOTH",
"296 -5 LINE",
"401 0 OFFCURVE",
"479 58 OFFCURVE",
"479 200 CURVE SMOOTH",
"479 525 LINE SMOOTH",
"479 675 OFFCURVE",
"390 731 OFFCURVE",
"277 731 CURVE SMOOTH",
"164 731 OFFCURVE",
"76 675 OFFCURVE",
"76 525 CURVE SMOOTH",
"76 200 LINE SMOOTH",
"76 57 OFFCURVE",
"154 0 OFFCURVE",
"260 -5 CURVE",
"260 -91 LINE SMOOTH",
"260 -103 OFFCURVE",
"269 -109 OFFCURVE",
"278 -109 CURVE SMOOTH"
);
},
{
closed = 1;
nodes = (
"166 36 OFFCURVE",
"112 90 OFFCURVE",
"112 200 CURVE SMOOTH",
"112 525 LINE SMOOTH",
"112 641 OFFCURVE",
"173 695 OFFCURVE",
"277 695 CURVE SMOOTH",
"381 695 OFFCURVE",
"443 641 OFFCURVE",
"443 525 CURVE SMOOTH",
"443 200 LINE SMOOTH",
"443 91 OFFCURVE",
"388 37 OFFCURVE",
"296 31 CURVE",
"296 114 LINE SMOOTH",
"296 126 OFFCURVE",
"287 131 OFFCURVE",
"278 131 CURVE SMOOTH",
"269 131 OFFCURVE",
"260 126 OFFCURVE",
"260 114 CURVE SMOOTH",
"260 30 LINE"
);
}
);
width = 555;
}
);
leftKerningGroup = O;
rightKerningGroup = O;
unicode = 0051;
},
{
color = 4;
glyphname = R;
lastChange = "2016-11-26 19:38:57 +0000";
layers = (
{
anchors = (
{
name = bottom;
position = "{257, 0}";
},
{
name = top;
position = "{257, 730}";
}
);
background = {
anchors = (
{
name = bottom;
position = "{262, 0}";
},
{
name = top;
position = "{262, 731}";
}
);
paths = (
{
closed = 1;
nodes = (
"473 0 OFFCURVE",
"481 8 OFFCURVE",
"481 18 CURVE SMOOTH",
"481 21 OFFCURVE",
"480 25 OFFCURVE",
"478 29 CURVE SMOOTH",
"313 350 LINE",
"406 361 OFFCURVE",
"481 412 OFFCURVE",
"481 540 CURVE SMOOTH",
"481 685 OFFCURVE",
"385 731 OFFCURVE",
"275 731 CURVE SMOOTH",
"108 731 LINE",
"97 730 OFFCURVE",
"90 723 OFFCURVE",
"90 714 CURVE SMOOTH",
"90 18 LINE SMOOTH",
"90 6 OFFCURVE",
"99 0 OFFCURVE",
"108 0 CURVE SMOOTH",
"117 0 OFFCURVE",
"126 6 OFFCURVE",
"126 18 CURVE SMOOTH",
"126 348 LINE",
"274 348 LINE",
"434 36 LINE SMOOTH",
"441 22 OFFCURVE",
"449 0 OFFCURVE",
"463 0 CURVE SMOOTH"
);
},
{
closed = 1;
nodes = (
"126 695 LINE",
"275 695 LINE SMOOTH",
"375 695 OFFCURVE",
"445 651 OFFCURVE",
"445 540 CURVE SMOOTH",
"445 429 OFFCURVE",
"375 384 OFFCURVE",
"275 384 CURVE SMOOTH",
"126 384 LINE"
);
}
);
};
hints = (
{
place = "{83, 36}";
},
{
place = "{438, 36}";
},
{
horizontal = 1;
place = "{348, 36}";
},
{
horizontal = 1;
place = "{695, 36}";
},
{
horizontal = 1;
place = "{0, 21}";
target = up;
type = BottomGhost;
}
);
layerId = UUID0;
paths = (
{
closed = 1;
nodes = (
"117 0 OFFCURVE",
"126 6 OFFCURVE",
"126 18 CURVE SMOOTH",
"126 347 LINE",
"268 347 LINE SMOOTH",
"369 347 OFFCURVE",
"471 398 OFFCURVE",
"471 543 CURVE SMOOTH",
"471 682 OFFCURVE",
"378 730 OFFCURVE",
"270 730 CURVE SMOOTH",
"108 730 LINE SMOOTH",
"97 729 OFFCURVE",
"90 722 OFFCURVE",
"90 713 CURVE SMOOTH",
"90 18 LINE SMOOTH",
"90 6 OFFCURVE",
"99 0 OFFCURVE",
"108 0 CURVE SMOOTH"
);
},
{
closed = 1;
nodes = (
"463 0 OFFCURVE",
"471 5 OFFCURVE",
"471 16 CURVE SMOOTH",
"471 21 OFFCURVE",
"469 27 OFFCURVE",
"465 34 CURVE SMOOTH",
"285 359 LINE",
"249 357 LINE",
"423 35 LINE SMOOTH",
"431 21 OFFCURVE",
"445 0 OFFCURVE",
"457 0 CURVE SMOOTH"
);
},
{
closed = 1;
nodes = (
"126 694 LINE",
"270 694 LINE SMOOTH",
"367 694 OFFCURVE",
"435 650 OFFCURVE",
"435 539 CURVE SMOOTH",
"435 428 OFFCURVE",
"367 381 OFFCURVE",
"270 381 CURVE SMOOTH",
"126 381 LINE"
);
}
);
width = 509;
},
{
anchors = (
{
name = bottom;
position = "{287, 0}";
},
{
name = top;
position = "{287, 730}";
}
);
background = {
paths = (
{
closed = 1;
nodes = (
"171 0 OFFCURVE",
"210 16 OFFCURVE",
"210 48 CURVE SMOOTH",
"210 289 LINE",
"328 289 LINE SMOOTH",
"447 289 OFFCURVE",
"545 368 OFFCURVE",
"545 517 CURVE SMOOTH",
"545 680 OFFCURVE",
"439 731 OFFCURVE",
"304 731 CURVE SMOOTH",
"102 731 LINE SMOOTH",
"73 731 OFFCURVE",
"54 709 OFFCURVE",
"54 684 CURVE SMOOTH",
"54 48 LINE SMOOTH",
"54 16 OFFCURVE",
"93 0 OFFCURVE",
"132 0 CURVE SMOOTH"
);
},
{
closed = 1;
nodes = (
"499 -6 OFFCURVE",
"551 36 OFFCURVE",
"551 75 CURVE SMOOTH",
"551 80 OFFCURVE",
"550 87 OFFCURVE",
"546 93 CURVE",
"382 328 LINE",
"224 303 LINE",
"404 23 LINE SMOOTH",
"417 2 OFFCURVE",
"433 -6 OFFCURVE",
"453 -6 CURVE SMOOTH"
);
},
{
closed = 1;
nodes = (
"210 595 LINE",
"304 595 LINE SMOOTH",
"357 595 OFFCURVE",
"389 572 OFFCURVE",
"389 502 CURVE SMOOTH",
"389 432 OFFCURVE",
"357 409 OFFCURVE",
"304 409 CURVE SMOOTH",
"210 409 LINE"
);
}
);
};
hints = (
{
place = "{54, 156}";
},
{
place = "{399, 156}";
},
{
horizontal = 1;
place = "{289, 120}";
},
{
horizontal = 1;
place = "{595, 136}";
},
{
horizontal = 1;
place = "{0, 21}";
target = up;
type = BottomGhost;
},
{
horizontal = 1;
place = "{-6, 21}";
target = up;
type = BottomGhost;
}
);
layerId = "228CC867-ECE3-4F82-B853-1E58141B916C";
paths = (
{
closed = 1;
nodes = (
"171 0 OFFCURVE",
"210 16 OFFCURVE",
"210 48 CURVE SMOOTH",
"210 289 LINE",
"328 289 LINE SMOOTH",
"447 289 OFFCURVE",
"545 366 OFFCURVE",
"545 519 CURVE SMOOTH",
"545 678 OFFCURVE",
"439 730 OFFCURVE",
"304 730 CURVE SMOOTH",
"102 730 LINE SMOOTH",
"73 730 OFFCURVE",
"54 708 OFFCURVE",
"54 683 CURVE SMOOTH",
"54 48 LINE SMOOTH",
"54 16 OFFCURVE",
"93 0 OFFCURVE",
"132 0 CURVE SMOOTH"
);
},
{
closed = 1;
nodes = (
"530 0 OFFCURVE",
"561 19 OFFCURVE",
"561 48 CURVE SMOOTH",
"561 63 OFFCURVE",
"553 78 OFFCURVE",
"540 96 CURVE SMOOTH",
"367 347 LINE",
"229 305 LINE",
"399 39 LINE SMOOTH",
"416 12 OFFCURVE",
"453 0 OFFCURVE",
"487 0 CURVE SMOOTH"
);
},
{
closed = 1;
nodes = (
"210 594 LINE",
"304 594 LINE SMOOTH",
"357 594 OFFCURVE",
"389 571 OFFCURVE",
"389 501 CURVE SMOOTH",
"389 431 OFFCURVE",
"357 408 OFFCURVE",
"304 408 CURVE SMOOTH",
"210 408 LINE"
);
}
);
width = 574;
},
{
anchors = (
{
name = bottom;
position = "{288, 0}";
},
{
name = top;
position = "{288, 731}";
}
);
associatedMasterId = "228CC867-ECE3-4F82-B853-1E58141B916C";
background = {
anchors = (
{
name = bottom;
position = "{292, 0}";
},
{
name = top;
position = "{292, 731}";
}
);
paths = (
{
closed = 1;
nodes = (
"509 -6 OFFCURVE",
"561 36 OFFCURVE",
"561 75 CURVE SMOOTH",
"561 80 OFFCURVE",
"560 87 OFFCURVE",
"556 93 CURVE",
"434 314 LINE",
"504 341 OFFCURVE",
"555 405 OFFCURVE",
"555 517 CURVE SMOOTH",
"555 680 OFFCURVE",
"446 731 OFFCURVE",
"309 731 CURVE SMOOTH",
"102 731 LINE SMOOTH",
"73 731 OFFCURVE",
"54 709 OFFCURVE",
"54 684 CURVE SMOOTH",
"54 48 LINE SMOOTH",
"54 16 OFFCURVE",
"93 0 OFFCURVE",
"132 0 CURVE SMOOTH",
"171 0 OFFCURVE",
"210 16 OFFCURVE",
"210 48 CURVE SMOOTH",
"210 289 LINE",
"276 289 LINE",
"413 23 LINE SMOOTH",
"424 2 OFFCURVE",
"443 -6 OFFCURVE",
"463 -6 CURVE SMOOTH"
);
},
{
closed = 1;
nodes = (
"210 595 LINE",
"309 595 LINE SMOOTH",
"365 595 OFFCURVE",
"399 572 OFFCURVE",
"399 502 CURVE SMOOTH",
"399 432 OFFCURVE",
"365 409 OFFCURVE",
"309 409 CURVE SMOOTH",
"210 409 LINE"
);
}
);
};
hints = (
{
place = "{54, 156}";
},
{
place = "{399, 156}";
},
{
horizontal = 1;
place = "{289, 120}";
},
{
horizontal = 1;
place = "{595, 136}";
},
{
horizontal = 1;
place = "{0, 21}";
target = up;
type = BottomGhost;
},
{
horizontal = 1;
place = "{-6, 21}";
target = up;
type = BottomGhost;
}
);
layerId = "26A54BB1-8C08-4053-B390-7F406C40C6A5";
name = "Nov 17 16, 22:55";
paths = (
{
closed = 1;
nodes = (
"499 -6 OFFCURVE",
"551 36 OFFCURVE",
"551 75 CURVE SMOOTH",
"551 80 OFFCURVE",
"550 87 OFFCURVE",
"546 93 CURVE",
"429 314 LINE",
"496 341 OFFCURVE",
"545 405 OFFCURVE",
"545 517 CURVE SMOOTH",
"545 680 OFFCURVE",
"439 731 OFFCURVE",
"304 731 CURVE SMOOTH",
"102 731 LINE SMOOTH",
"73 731 OFFCURVE",
"54 709 OFFCURVE",
"54 684 CURVE SMOOTH",
"54 48 LINE SMOOTH",
"54 16 OFFCURVE",
"93 0 OFFCURVE",
"132 0 CURVE SMOOTH",
"171 0 OFFCURVE",
"210 16 OFFCURVE",
"210 48 CURVE SMOOTH",
"210 289 LINE",
"271 289 LINE",
"404 23 LINE SMOOTH",
"414 2 OFFCURVE",
"433 -6 OFFCURVE",
"453 -6 CURVE SMOOTH"
);
},
{
closed = 1;
nodes = (
"210 595 LINE",
"304 595 LINE SMOOTH",
"357 595 OFFCURVE",
"389 572 OFFCURVE",
"389 502 CURVE SMOOTH",
"389 432 OFFCURVE",
"357 409 OFFCURVE",
"304 409 CURVE SMOOTH",
"210 409 LINE"
);
}
);
width = 574;
},
{
anchors = (
{
name = bottom;
position = "{255, 0}";
},
{
name = top;
position = "{255, 731}";
}
);
associatedMasterId = UUID0;
background = {
hints = (
{
place = "{83, 36}";
},
{
place = "{438, 36}";
},
{
horizontal = 1;
place = "{348, 36}";
},
{
horizontal = 1;
place = "{695, 36}";
},
{
horizontal = 1;
place = "{0, 21}";
target = up;
type = BottomGhost;
}
);
paths = (
{
closed = 1;
nodes = (
"466 0 OFFCURVE",
"474 8 OFFCURVE",
"474 18 CURVE SMOOTH",
"474 21 OFFCURVE",
"473 25 OFFCURVE",
"471 29 CURVE SMOOTH",
"306 350 LINE",
"399 361 OFFCURVE",
"474 412 OFFCURVE",
"474 540 CURVE SMOOTH",
"474 685 OFFCURVE",
"378 731 OFFCURVE",
"268 731 CURVE SMOOTH",
"101 731 LINE",
"90 730 OFFCURVE",
"83 723 OFFCURVE",
"83 714 CURVE SMOOTH",
"83 18 LINE SMOOTH",
"83 6 OFFCURVE",
"92 0 OFFCURVE",
"101 0 CURVE SMOOTH",
"110 0 OFFCURVE",
"119 6 OFFCURVE",
"119 18 CURVE SMOOTH",
"119 348 LINE",
"267 348 LINE",
"427 36 LINE SMOOTH",
"434 22 OFFCURVE",
"442 0 OFFCURVE",
"456 0 CURVE SMOOTH"
);
},
{
closed = 1;
nodes = (
"119 695 LINE",
"268 695 LINE SMOOTH",
"368 695 OFFCURVE",
"438 651 OFFCURVE",
"438 540 CURVE SMOOTH",
"438 429 OFFCURVE",
"368 384 OFFCURVE",
"268 384 CURVE SMOOTH",
"119 384 LINE"
);
}
);
};
layerId = "DCC6F19B-3248-4E50-87D1-71DF134EB656";
name = "Nov 17 16, 22:55";
paths = (
{
closed = 1;
nodes = (
"466 0 OFFCURVE",
"474 8 OFFCURVE",
"474 18 CURVE SMOOTH",
"474 21 OFFCURVE",
"473 25 OFFCURVE",
"471 29 CURVE SMOOTH",
"306 350 LINE",
"399 361 OFFCURVE",
"474 412 OFFCURVE",
"474 540 CURVE SMOOTH",
"474 685 OFFCURVE",
"378 731 OFFCURVE",
"268 731 CURVE SMOOTH",
"101 731 LINE",
"90 730 OFFCURVE",
"83 723 OFFCURVE",
"83 714 CURVE SMOOTH",
"83 18 LINE SMOOTH",
"83 6 OFFCURVE",
"92 0 OFFCURVE",
"101 0 CURVE SMOOTH",
"110 0 OFFCURVE",
"119 6 OFFCURVE",
"119 18 CURVE SMOOTH",
"119 348 LINE",
"267 348 LINE",
"427 36 LINE SMOOTH",
"434 22 OFFCURVE",
"442 0 OFFCURVE",
"456 0 CURVE SMOOTH"
);
},
{
closed = 1;
nodes = (
"119 695 LINE",
"268 695 LINE SMOOTH",
"368 695 OFFCURVE",
"438 651 OFFCURVE",
"438 540 CURVE SMOOTH",
"438 429 OFFCURVE",
"368 384 OFFCURVE",
"268 384 CURVE SMOOTH",
"119 384 LINE"
);
}
);
width = 499;
},
{
anchors = (
{
name = bottom;
position = "{288, 0}";
},
{
name = top;
position = "{288, 731}";
}
);
associatedMasterId = "228CC867-ECE3-4F82-B853-1E58141B916C";
background = {
anchors = (
{
name = bottom;
position = "{292, 0}";
},
{
name = top;
position = "{292, 731}";
}
);
paths = (
{
closed = 1;
nodes = (
"509 -6 OFFCURVE",
"561 36 OFFCURVE",
"561 75 CURVE SMOOTH",
"561 80 OFFCURVE",
"560 87 OFFCURVE",
"556 93 CURVE",
"434 314 LINE",
"504 341 OFFCURVE",
"555 405 OFFCURVE",
"555 517 CURVE SMOOTH",
"555 680 OFFCURVE",
"446 731 OFFCURVE",
"309 731 CURVE SMOOTH",
"102 731 LINE SMOOTH",
"73 731 OFFCURVE",
"54 709 OFFCURVE",
"54 684 CURVE SMOOTH",
"54 48 LINE SMOOTH",
"54 16 OFFCURVE",
"93 0 OFFCURVE",
"132 0 CURVE SMOOTH",
"171 0 OFFCURVE",
"210 16 OFFCURVE",
"210 48 CURVE SMOOTH",
"210 289 LINE",
"276 289 LINE",
"413 23 LINE SMOOTH",
"424 2 OFFCURVE",
"443 -6 OFFCURVE",
"463 -6 CURVE SMOOTH"
);
},
{
closed = 1;
nodes = (
"210 595 LINE",
"309 595 LINE SMOOTH",
"365 595 OFFCURVE",
"399 572 OFFCURVE",
"399 502 CURVE SMOOTH",
"399 432 OFFCURVE",
"365 409 OFFCURVE",
"309 409 CURVE SMOOTH",
"210 409 LINE"
);
}
);
};
hints = (
{
place = "{54, 156}";
},
{
place = "{399, 156}";
},
{
horizontal = 1;
place = "{289, 120}";
},
{
horizontal = 1;
place = "{595, 136}";
},
{
horizontal = 1;
place = "{0, 21}";
target = up;
type = BottomGhost;
},
{
horizontal = 1;
place = "{-6, 21}";
target = up;
type = BottomGhost;
}
);
layerId = "E8C888BF-1FCD-454B-AC6B-8020A126E6CB";
name = "Nov 18 16, 03:39";
paths = (
{
closed = 1;
nodes = (
"171 0 OFFCURVE",
"210 16 OFFCURVE",
"210 48 CURVE SMOOTH",
"210 289 LINE",
"328 289 LINE SMOOTH",
"447 289 OFFCURVE",
"545 368 OFFCURVE",
"545 517 CURVE SMOOTH",
"545 680 OFFCURVE",
"439 731 OFFCURVE",
"304 731 CURVE SMOOTH",
"102 731 LINE SMOOTH",
"73 731 OFFCURVE",
"54 709 OFFCURVE",
"54 684 CURVE SMOOTH",
"54 48 LINE SMOOTH",
"54 16 OFFCURVE",
"93 0 OFFCURVE",
"132 0 CURVE SMOOTH"
);
},
{
closed = 1;
nodes = (
"499 -6 OFFCURVE",
"551 36 OFFCURVE",
"551 75 CURVE SMOOTH",
"551 80 OFFCURVE",
"550 87 OFFCURVE",
"546 93 CURVE",
"382 328 LINE",
"224 303 LINE",
"404 23 LINE SMOOTH",
"417 2 OFFCURVE",
"433 -6 OFFCURVE",
"453 -6 CURVE SMOOTH"
);
},
{
closed = 1;
nodes = (
"210 595 LINE",
"304 595 LINE SMOOTH",
"357 595 OFFCURVE",
"389 572 OFFCURVE",
"389 502 CURVE SMOOTH",
"389 432 OFFCURVE",
"357 409 OFFCURVE",
"304 409 CURVE SMOOTH",
"210 409 LINE"
);
}
);
width = 574;
}
);
leftKerningGroup = I;
rightKerningGroup = R;
unicode = 0052;
},
{
color = 0;
glyphname = S;
lastChange = "2016-11-27 01:26:18 +0000";
layers = (
{
anchors = (
{
name = bottom;
position = "{229, 0}";
},
{
name = top;
position = "{229, 730}";
}
);
background = {
anchors = (
{
name = bottom;
position = "{229, 0}";
},
{
name = top;
position = "{229, 731}";
}
);
paths = (
{
closed = 1;
nodes = (
"326 -6 OFFCURVE",
"407 55 OFFCURVE",
"407 192 CURVE SMOOTH",
"407 460 OFFCURVE",
"105 345 OFFCURVE",
"105 558 CURVE SMOOTH",
"105 668 OFFCURVE",
"184 695 OFFCURVE",
"249 695 CURVE SMOOTH",
"341 695 OFFCURVE",
"363 645 OFFCURVE",
"378 645 CURVE SMOOTH",
"387 645 OFFCURVE",
"395 659 OFFCURVE",
"395 667 CURVE SMOOTH",
"395 689 OFFCURVE",
"334 731 OFFCURVE",
"248 731 CURVE SMOOTH",
"178 731 OFFCURVE",
"69 702 OFFCURVE",
"69 555 CURVE SMOOTH",
"69 312 OFFCURVE",
"371 432 OFFCURVE",
"371 189 CURVE SMOOTH",
"371 88 OFFCURVE",
"315 30 OFFCURVE",
"212 30 CURVE SMOOTH",
"92 30 OFFCURVE",
"79 106 OFFCURVE",
"63 106 CURVE SMOOTH",
"53 106 OFFCURVE",
"45 95 OFFCURVE",
"45 85 CURVE SMOOTH",
"45 58 OFFCURVE",
"103 -6 OFFCURVE",
"215 -6 CURVE SMOOTH"
);
}
);
};
hints = (
{
place = "{42, 54}";
},
{
place = "{60, 36}";
},
{
place = "{397, 36}";
},
{
horizontal = 1;
place = "{-6, 36}";
},
{
horizontal = 1;
place = "{695, 36}";
},
{
horizontal = 1;
place = "{-6, 122}";
}
);
layerId = UUID0;
paths = (
{
closed = 1;
nodes = (
"327 -6 OFFCURVE",
"407 55 OFFCURVE",
"407 193 CURVE SMOOTH",
"407 463 OFFCURVE",
"104 343 OFFCURVE",
"104 564 CURVE SMOOTH",
"104 673 OFFCURVE",
"178 701 OFFCURVE",
"249 701 CURVE SMOOTH",
"341 701 OFFCURVE",
"364 651 OFFCURVE",
"379 651 CURVE SMOOTH",
"388 651 OFFCURVE",
"395 664 OFFCURVE",
"395 672 CURVE SMOOTH",
"395 694 OFFCURVE",
"336 736 OFFCURVE",
"250 736 CURVE SMOOTH",
"180 736 OFFCURVE",
"69 707 OFFCURVE",
"69 559 CURVE SMOOTH",
"69 314 OFFCURVE",
"372 435 OFFCURVE",
"372 190 CURVE SMOOTH",
"372 88 OFFCURVE",
"317 29 OFFCURVE",
"224 29 CURVE SMOOTH",
"93 29 OFFCURVE",
"79 107 OFFCURVE",
"63 107 CURVE SMOOTH",
"53 107 OFFCURVE",
"45 96 OFFCURVE",
"45 86 CURVE SMOOTH",
"45 58 OFFCURVE",
"104 -6 OFFCURVE",
"218 -6 CURVE SMOOTH"
);
}
);
width = 459;
},
{
anchors = (
{
name = bottom;
position = "{247, 0}";
},
{
name = top;
position = "{247, 730}";
}
);
background = {
anchors = (
{
name = bottom;
position = "{247, 0}";
},
{
name = top;
position = "{247, 731}";
}
);
paths = (
{
closed = 1;
nodes = (
"374 -10 OFFCURVE",
"470 68 OFFCURVE",
"470 211 CURVE SMOOTH",
"470 460 OFFCURVE",
"190 431 OFFCURVE",
"190 539 CURVE SMOOTH",
"190 571 OFFCURVE",
"209 603 OFFCURVE",
"272 603 CURVE SMOOTH",
"337 603 OFFCURVE",
"368 564 OFFCURVE",
"399 564 CURVE SMOOTH",
"434 564 OFFCURVE",
"455 608 OFFCURVE",
"455 640 CURVE SMOOTH",
"455 720 OFFCURVE",
"318 737 OFFCURVE",
"266 737 CURVE SMOOTH",
"155 737 OFFCURVE",
"34 679 OFFCURVE",
"34 531 CURVE SMOOTH",
"34 301 OFFCURVE",
"314 343 OFFCURVE",
"314 200 CURVE SMOOTH",
"314 142 OFFCURVE",
"270 124 OFFCURVE",
"240 124 CURVE SMOOTH",
"161 124 OFFCURVE",
"124 204 OFFCURVE",
"83 204 CURVE SMOOTH",
"49 204 OFFCURVE",
"19 153 OFFCURVE",
"19 119 CURVE SMOOTH",
"19 54 OFFCURVE",
"124 -10 OFFCURVE",
"242 -10 CURVE SMOOTH"
);
}
);
};
hints = (
{
place = "{37, 156}";
},
{
place = "{354, 156}";
},
{
horizontal = 1;
place = "{-10, 140}";
},
{
horizontal = 1;
place = "{567, 170}";
},
{
horizontal = 1;
place = "{605, 132}";
},
{
horizontal = 1;
place = "{-10, 214}";
}
);
layerId = "228CC867-ECE3-4F82-B853-1E58141B916C";
paths = (
{
closed = 1;
nodes = (
"383 -6 OFFCURVE",
"470 81 OFFCURVE",
"470 216 CURVE SMOOTH",
"470 459 OFFCURVE",
"190 432 OFFCURVE",
"190 542 CURVE SMOOTH",
"190 570 OFFCURVE",
"209 603 OFFCURVE",
"271 603 CURVE SMOOTH",
"338 603 OFFCURVE",
"367 564 OFFCURVE",
"399 564 CURVE SMOOTH",
"434 564 OFFCURVE",
"455 608 OFFCURVE",
"455 640 CURVE SMOOTH",
"455 720 OFFCURVE",
"320 737 OFFCURVE",
"262 737 CURVE SMOOTH",
"156 737 OFFCURVE",
"34 679 OFFCURVE",
"34 530 CURVE SMOOTH",
"34 304 OFFCURVE",
"314 345 OFFCURVE",
"314 202 CURVE SMOOTH",
"314 148 OFFCURVE",
"273 128 OFFCURVE",
"234 128 CURVE SMOOTH",
"162 128 OFFCURVE",
"117 193 OFFCURVE",
"76 193 CURVE SMOOTH",
"40 193 OFFCURVE",
"19 145 OFFCURVE",
"19 117 CURVE SMOOTH",
"19 51 OFFCURVE",
"130 -6 OFFCURVE",
"243 -6 CURVE SMOOTH"
);
}
);
width = 493;
},
{
anchors = (
{
name = bottom;
position = "{241, 0}";
},
{
name = top;
position = "{241, 731}";
}
);
associatedMasterId = UUID0;
background = {
anchors = (
{
name = bottom;
position = "{241, 0}";
},
{
name = top;
position = "{241, 731}";
}
);
paths = (
{
closed = 1;
nodes = (
"350 -6 OFFCURVE",
"433 53 OFFCURVE",
"433 195 CURVE SMOOTH",
"433 480 OFFCURVE",
"96 346 OFFCURVE",
"96 561 CURVE SMOOTH",
"96 669 OFFCURVE",
"181 695 OFFCURVE",
"256 695 CURVE SMOOTH",
"346 695 OFFCURVE",
"383 657 OFFCURVE",
"397 657 CURVE SMOOTH",
"406 657 OFFCURVE",
"415 671 OFFCURVE",
"415 679 CURVE SMOOTH",
"415 702 OFFCURVE",
"339 731 OFFCURVE",
"257 731 CURVE SMOOTH",
"175 731 OFFCURVE",
"60 703 OFFCURVE",
"60 558 CURVE SMOOTH",
"60 310 OFFCURVE",
"397 447 OFFCURVE",
"397 192 CURVE SMOOTH",
"397 86 OFFCURVE",
"339 30 OFFCURVE",
"230 30 CURVE SMOOTH",
"95 30 OFFCURVE",
"78 116 OFFCURVE",
"59 116 CURVE SMOOTH",
"52 116 OFFCURVE",
"42 105 OFFCURVE",
"42 95 CURVE SMOOTH",
"42 68 OFFCURVE",
"107 -6 OFFCURVE",
"235 -6 CURVE SMOOTH"
);
}
);
};
hints = (
{
place = "{42, 54}";
},
{
place = "{60, 36}";
},
{
place = "{397, 36}";
},
{
horizontal = 1;
place = "{-6, 36}";
},
{
horizontal = 1;
place = "{695, 36}";
},
{
horizontal = 1;
place = "{-6, 122}";
}
);
layerId = "2BB7DB36-AA4D-4EE3-AFB1-0E3D3A706E06";
name = "Nov 17 16, 20:46";
paths = (
{
closed = 1;
nodes = (
"350 -6 OFFCURVE",
"433 53 OFFCURVE",
"433 195 CURVE SMOOTH",
"433 480 OFFCURVE",
"96 346 OFFCURVE",
"96 561 CURVE SMOOTH",
"96 669 OFFCURVE",
"181 695 OFFCURVE",
"256 695 CURVE SMOOTH",
"346 695 OFFCURVE",
"383 657 OFFCURVE",
"397 657 CURVE SMOOTH",
"406 657 OFFCURVE",
"415 671 OFFCURVE",
"415 679 CURVE SMOOTH",
"415 702 OFFCURVE",
"339 731 OFFCURVE",
"257 731 CURVE SMOOTH",
"175 731 OFFCURVE",
"60 703 OFFCURVE",
"60 558 CURVE SMOOTH",
"60 310 OFFCURVE",
"397 447 OFFCURVE",
"397 192 CURVE SMOOTH",
"397 86 OFFCURVE",
"339 30 OFFCURVE",
"230 30 CURVE SMOOTH",
"95 30 OFFCURVE",
"78 116 OFFCURVE",
"59 116 CURVE SMOOTH",
"52 116 OFFCURVE",
"42 105 OFFCURVE",
"42 95 CURVE SMOOTH",
"42 68 OFFCURVE",
"107 -6 OFFCURVE",
"235 -6 CURVE SMOOTH"
);
}
);
width = 481;
},
{
anchors = (
{
name = bottom;
position = "{267, 0}";
},
{
name = top;
position = "{267, 731}";
}
);
associatedMasterId = "228CC867-ECE3-4F82-B853-1E58141B916C";
background = {
anchors = (
{
name = bottom;
position = "{267, 0}";
},
{
name = top;
position = "{267, 731}";
}
);
paths = (
{
closed = 1;
nodes = (
"405 -10 OFFCURVE",
"510 68 OFFCURVE",
"510 212 CURVE SMOOTH",
"510 464 OFFCURVE",
"193 445 OFFCURVE",
"193 545 CURVE SMOOTH",
"193 576 OFFCURVE",
"222 605 OFFCURVE",
"293 605 CURVE SMOOTH",
"375 605 OFFCURVE",
"394 567 OFFCURVE",
"430 567 CURVE SMOOTH",
"474 567 OFFCURVE",
"492 622 OFFCURVE",
"492 649 CURVE SMOOTH",
"492 727 OFFCURVE",
"346 737 OFFCURVE",
"293 737 CURVE SMOOTH",
"168 737 OFFCURVE",
"37 680 OFFCURVE",
"37 530 CURVE SMOOTH",
"37 296 OFFCURVE",
"354 317 OFFCURVE",
"354 196 CURVE SMOOTH",
"354 148 OFFCURVE",
"303 130 OFFCURVE",
"257 130 CURVE SMOOTH",
"164 130 OFFCURVE",
"134 204 OFFCURVE",
"87 204 CURVE SMOOTH",
"49 204 OFFCURVE",
"19 154 OFFCURVE",
"19 120 CURVE SMOOTH",
"19 54 OFFCURVE",
"129 -10 OFFCURVE",
"260 -10 CURVE SMOOTH"
);
}
);
};
hints = (
{
place = "{37, 156}";
},
{
place = "{354, 156}";
},
{
horizontal = 1;
place = "{-10, 140}";
},
{
horizontal = 1;
place = "{567, 170}";
},
{
horizontal = 1;
place = "{605, 132}";
},
{
horizontal = 1;
place = "{-10, 214}";
}
);
layerId = "ECE3C693-5B1E-460E-A43F-CD2A42DE47C4";
name = "Nov 17 16, 20:48";
paths = (
{
closed = 1;
nodes = (
"405 -10 OFFCURVE",
"510 68 OFFCURVE",
"510 212 CURVE SMOOTH",
"510 464 OFFCURVE",
"193 445 OFFCURVE",
"193 545 CURVE SMOOTH",
"193 576 OFFCURVE",
"222 605 OFFCURVE",
"293 605 CURVE SMOOTH",
"375 605 OFFCURVE",
"394 567 OFFCURVE",
"430 567 CURVE SMOOTH",
"474 567 OFFCURVE",
"492 622 OFFCURVE",
"492 649 CURVE SMOOTH",
"492 727 OFFCURVE",
"346 737 OFFCURVE",
"293 737 CURVE SMOOTH",
"168 737 OFFCURVE",
"37 680 OFFCURVE",
"37 530 CURVE SMOOTH",
"37 296 OFFCURVE",
"354 317 OFFCURVE",
"354 196 CURVE SMOOTH",
"354 148 OFFCURVE",
"303 130 OFFCURVE",
"257 130 CURVE SMOOTH",
"164 130 OFFCURVE",
"134 204 OFFCURVE",
"87 204 CURVE SMOOTH",
"49 204 OFFCURVE",
"19 154 OFFCURVE",
"19 120 CURVE SMOOTH",
"19 54 OFFCURVE",
"129 -10 OFFCURVE",
"260 -10 CURVE SMOOTH"
);
}
);
width = 533;
},
{
anchors = (
{
name = bottom;
position = "{247, 0}";
},
{
name = top;
position = "{247, 731}";
}
);
associatedMasterId = "228CC867-ECE3-4F82-B853-1E58141B916C";
background = {
anchors = (
{
name = bottom;
position = "{267, 0}";
},
{
name = top;
position = "{267, 731}";
}
);
paths = (
{
closed = 1;
nodes = (
"405 -10 OFFCURVE",
"510 68 OFFCURVE",
"510 212 CURVE SMOOTH",
"510 464 OFFCURVE",
"193 445 OFFCURVE",
"193 545 CURVE SMOOTH",
"193 576 OFFCURVE",
"222 605 OFFCURVE",
"293 605 CURVE SMOOTH",
"375 605 OFFCURVE",
"394 567 OFFCURVE",
"430 567 CURVE SMOOTH",
"474 567 OFFCURVE",
"492 622 OFFCURVE",
"492 649 CURVE SMOOTH",
"492 727 OFFCURVE",
"346 737 OFFCURVE",
"293 737 CURVE SMOOTH",
"168 737 OFFCURVE",
"37 680 OFFCURVE",
"37 530 CURVE SMOOTH",
"37 296 OFFCURVE",
"354 317 OFFCURVE",
"354 196 CURVE SMOOTH",
"354 148 OFFCURVE",
"303 130 OFFCURVE",
"257 130 CURVE SMOOTH",
"164 130 OFFCURVE",
"134 204 OFFCURVE",
"87 204 CURVE SMOOTH",
"49 204 OFFCURVE",
"19 154 OFFCURVE",
"19 120 CURVE SMOOTH",
"19 54 OFFCURVE",
"129 -10 OFFCURVE",
"260 -10 CURVE SMOOTH"
);
}
);
};
hints = (
{
place = "{37, 156}";
},
{
place = "{354, 156}";
},
{
horizontal = 1;
place = "{-10, 140}";
},
{
horizontal = 1;
place = "{567, 170}";
},
{
horizontal = 1;
place = "{605, 132}";
},
{
horizontal = 1;
place = "{-10, 214}";
}
);
layerId = "FCF88B47-7867-4F17-BB78-9A9B83DA4B7B";
name = "Nov 20 16, 12:49";
paths = (
{
closed = 1;
nodes = (
"374 -10 OFFCURVE",
"470 68 OFFCURVE",
"470 211 CURVE SMOOTH",
"470 460 OFFCURVE",
"190 431 OFFCURVE",
"190 539 CURVE SMOOTH",
"190 572 OFFCURVE",
"209 605 OFFCURVE",
"272 605 CURVE SMOOTH",
"337 605 OFFCURVE",
"368 566 OFFCURVE",
"399 566 CURVE SMOOTH",
"434 566 OFFCURVE",
"455 609 OFFCURVE",
"455 640 CURVE SMOOTH",
"455 720 OFFCURVE",
"318 737 OFFCURVE",
"266 737 CURVE SMOOTH",
"155 737 OFFCURVE",
"34 679 OFFCURVE",
"34 531 CURVE SMOOTH",
"34 301 OFFCURVE",
"314 343 OFFCURVE",
"314 200 CURVE SMOOTH",
"314 142 OFFCURVE",
"270 124 OFFCURVE",
"240 124 CURVE SMOOTH",
"161 124 OFFCURVE",
"124 204 OFFCURVE",
"83 204 CURVE SMOOTH",
"49 204 OFFCURVE",
"19 153 OFFCURVE",
"19 119 CURVE SMOOTH",
"19 54 OFFCURVE",
"124 -10 OFFCURVE",
"242 -10 CURVE SMOOTH"
);
}
);
width = 493;
},
{
anchors = (
{
name = bottom;
position = "{226, 0}";
},
{
name = top;
position = "{226, 731}";
}
);
associatedMasterId = UUID0;
background = {
anchors = (
{
name = bottom;
position = "{241, 0}";
},
{
name = top;
position = "{241, 731}";
}
);
paths = (
{
closed = 1;
nodes = (
"350 -6 OFFCURVE",
"433 53 OFFCURVE",
"433 195 CURVE SMOOTH",
"433 480 OFFCURVE",
"96 346 OFFCURVE",
"96 561 CURVE SMOOTH",
"96 669 OFFCURVE",
"181 695 OFFCURVE",
"256 695 CURVE SMOOTH",
"346 695 OFFCURVE",
"383 657 OFFCURVE",
"397 657 CURVE SMOOTH",
"406 657 OFFCURVE",
"415 671 OFFCURVE",
"415 679 CURVE SMOOTH",
"415 702 OFFCURVE",
"339 731 OFFCURVE",
"257 731 CURVE SMOOTH",
"175 731 OFFCURVE",
"60 703 OFFCURVE",
"60 558 CURVE SMOOTH",
"60 310 OFFCURVE",
"397 447 OFFCURVE",
"397 192 CURVE SMOOTH",
"397 86 OFFCURVE",
"339 30 OFFCURVE",
"230 30 CURVE SMOOTH",
"95 30 OFFCURVE",
"78 116 OFFCURVE",
"59 116 CURVE SMOOTH",
"52 116 OFFCURVE",
"42 105 OFFCURVE",
"42 95 CURVE SMOOTH",
"42 68 OFFCURVE",
"107 -6 OFFCURVE",
"235 -6 CURVE SMOOTH"
);
}
);
};
hints = (
{
place = "{42, 54}";
},
{
place = "{60, 36}";
},
{
place = "{397, 36}";
},
{
horizontal = 1;
place = "{-6, 36}";
},
{
horizontal = 1;
place = "{695, 36}";
},
{
horizontal = 1;
place = "{-6, 122}";
}
);
layerId = "0AEF57F9-CEDE-4B0C-9917-1E5BDB940F6F";
name = "Nov 23 16, 02:14";
paths = (
{
closed = 1;
nodes = (
"323 -6 OFFCURVE",
"404 55 OFFCURVE",
"404 192 CURVE SMOOTH",
"404 460 OFFCURVE",
"102 345 OFFCURVE",
"102 558 CURVE SMOOTH",
"102 668 OFFCURVE",
"181 695 OFFCURVE",
"246 695 CURVE SMOOTH",
"338 695 OFFCURVE",
"360 645 OFFCURVE",
"375 645 CURVE SMOOTH",
"384 645 OFFCURVE",
"392 659 OFFCURVE",
"392 667 CURVE SMOOTH",
"392 689 OFFCURVE",
"331 731 OFFCURVE",
"245 731 CURVE SMOOTH",
"175 731 OFFCURVE",
"66 702 OFFCURVE",
"66 555 CURVE SMOOTH",
"66 312 OFFCURVE",
"368 432 OFFCURVE",
"368 189 CURVE SMOOTH",
"368 88 OFFCURVE",
"312 30 OFFCURVE",
"209 30 CURVE SMOOTH",
"89 30 OFFCURVE",
"76 106 OFFCURVE",
"60 106 CURVE SMOOTH",
"50 106 OFFCURVE",
"42 95 OFFCURVE",
"42 85 CURVE SMOOTH",
"42 58 OFFCURVE",
"100 -6 OFFCURVE",
"212 -6 CURVE SMOOTH"
);
}
);
width = 452;
}
);
leftKerningGroup = S;
rightKerningGroup = S;
unicode = 0053;
},
{
color = 4;
glyphname = T;
lastChange = "2016-11-26 19:38:57 +0000";
layers = (
{
anchors = (
{
name = bottom;
position = "{229, 0}";
},
{
name = center;
position = "{229, 365}";
},
{
name = top;
position = "{229, 730}";
}
);
background = {
paths = (
{
closed = 1;
nodes = (
"238 0 OFFCURVE",
"247 6 OFFCURVE",
"247 18 CURVE SMOOTH",
"247 695 LINE",
"424 695 LINE SMOOTH",
"437 695 OFFCURVE",
"442 705 OFFCURVE",
"442 714 CURVE SMOOTH",
"442 723 OFFCURVE",
"436 731 OFFCURVE",
"424 731 CURVE SMOOTH",
"33 731 LINE SMOOTH",
"22 731 OFFCURVE",
"15 722 OFFCURVE",
"15 713 CURVE SMOOTH",
"15 704 OFFCURVE",
"22 695 OFFCURVE",
"33 695 CURVE SMOOTH",
"211 695 LINE",
"211 18 LINE SMOOTH",
"211 6 OFFCURVE",
"220 0 OFFCURVE",
"229 0 CURVE SMOOTH"
);
}
);
};
hints = (
{
place = "{210, 36}";
},
{
horizontal = 1;
place = "{695, 36}";
},
{
horizontal = 1;
place = "{0, 21}";
target = up;
type = BottomGhost;
}
);
layerId = UUID0;
paths = (
{
closed = 1;
nodes = (
"238 0 OFFCURVE",
"247 6 OFFCURVE",
"247 18 CURVE SMOOTH",
"247 694 LINE",
"424 694 LINE SMOOTH",
"437 694 OFFCURVE",
"442 704 OFFCURVE",
"442 713 CURVE SMOOTH",
"442 722 OFFCURVE",
"436 730 OFFCURVE",
"424 730 CURVE SMOOTH",
"33 730 LINE SMOOTH",
"22 730 OFFCURVE",
"15 721 OFFCURVE",
"15 712 CURVE SMOOTH",
"15 703 OFFCURVE",
"22 694 OFFCURVE",
"33 694 CURVE SMOOTH",
"211 694 LINE",
"211 18 LINE SMOOTH",
"211 6 OFFCURVE",
"220 0 OFFCURVE",
"229 0 CURVE SMOOTH"
);
}
);
width = 457;
},
{
anchors = (
{
name = bottom;
position = "{271, 0}";
},
{
name = center;
position = "{271, 365}";
},
{
name = top;
position = "{271, 730}";
}
);
background = {
paths = (
{
closed = 1;
nodes = (
"310 0 OFFCURVE",
"349 16 OFFCURVE",
"349 48 CURVE SMOOTH",
"349 591 LINE",
"487 591 LINE SMOOTH",
"517 591 OFFCURVE",
"534 624 OFFCURVE",
"534 662 CURVE SMOOTH",
"534 695 OFFCURVE",
"520 731 OFFCURVE",
"487 731 CURVE SMOOTH",
"55 731 LINE SMOOTH",
"22 731 OFFCURVE",
"8 695 OFFCURVE",
"8 662 CURVE SMOOTH",
"8 624 OFFCURVE",
"25 591 OFFCURVE",
"55 591 CURVE SMOOTH",
"193 591 LINE",
"193 48 LINE SMOOTH",
"193 16 OFFCURVE",
"232 0 OFFCURVE",
"271 0 CURVE SMOOTH"
);
}
);
};
hints = (
{
place = "{193, 156}";
},
{
horizontal = 1;
place = "{591, 140}";
},
{
horizontal = 1;
place = "{0, 21}";
target = up;
type = BottomGhost;
}
);
layerId = "228CC867-ECE3-4F82-B853-1E58141B916C";
paths = (
{
closed = 1;
nodes = (
"310 0 OFFCURVE",
"349 16 OFFCURVE",
"349 48 CURVE SMOOTH",
"349 590 LINE",
"487 590 LINE SMOOTH",
"517 590 OFFCURVE",
"534 623 OFFCURVE",
"534 661 CURVE SMOOTH",
"534 694 OFFCURVE",
"520 730 OFFCURVE",
"487 730 CURVE SMOOTH",
"55 730 LINE SMOOTH",
"22 730 OFFCURVE",
"8 694 OFFCURVE",
"8 661 CURVE SMOOTH",
"8 623 OFFCURVE",
"25 590 OFFCURVE",
"55 590 CURVE SMOOTH",
"193 590 LINE",
"193 48 LINE SMOOTH",
"193 16 OFFCURVE",
"232 0 OFFCURVE",
"271 0 CURVE SMOOTH"
);
}
);
width = 542;
}
);
leftKerningGroup = T;
rightKerningGroup = T;
unicode = 0054;
},
{
color = 7;
glyphname = Tbar;
lastChange = "2016-11-26 21:45:09 +0000";
layers = (
{
background = {
paths = (
{
closed = 1;
nodes = (
"240 0 OFFCURVE",
"249 6 OFFCURVE",
"249 18 CURVE SMOOTH",
"249 347 LINE",
"396 347 LINE SMOOTH",
"409 347 OFFCURVE",
"414 357 OFFCURVE",
"414 366 CURVE SMOOTH",
"414 375 OFFCURVE",
"408 383 OFFCURVE",
"396 383 CURVE SMOOTH",
"249 383 LINE",
"249 695 LINE",
"426 695 LINE SMOOTH",
"439 695 OFFCURVE",
"444 705 OFFCURVE",
"444 714 CURVE SMOOTH",
"444 723 OFFCURVE",
"438 731 OFFCURVE",
"426 731 CURVE SMOOTH",
"35 731 LINE SMOOTH",
"24 731 OFFCURVE",
"17 722 OFFCURVE",
"17 713 CURVE SMOOTH",
"17 704 OFFCURVE",
"24 695 OFFCURVE",
"35 695 CURVE SMOOTH",
"213 695 LINE",
"213 383 LINE",
"65 383 LINE SMOOTH",
"54 383 OFFCURVE",
"47 374 OFFCURVE",
"47 365 CURVE SMOOTH",
"47 356 OFFCURVE",
"54 347 OFFCURVE",
"65 347 CURVE SMOOTH",
"213 347 LINE",
"213 18 LINE SMOOTH",
"213 6 OFFCURVE",
"222 0 OFFCURVE",
"231 0 CURVE SMOOTH"
);
}
);
};
hints = (
{
place = "{212, 36}";
},
{
horizontal = 1;
place = "{347, 36}";
},
{
horizontal = 1;
place = "{695, 36}";
},
{
horizontal = 1;
place = "{0, 21}";
target = up;
type = BottomGhost;
}
);
layerId = UUID0;
paths = (
{
closed = 1;
nodes = (
"240 0 OFFCURVE",
"249 6 OFFCURVE",
"249 18 CURVE SMOOTH",
"249 347 LINE",
"396 347 LINE SMOOTH",
"409 347 OFFCURVE",
"414 357 OFFCURVE",
"414 366 CURVE SMOOTH",
"414 375 OFFCURVE",
"408 383 OFFCURVE",
"396 383 CURVE SMOOTH",
"249 383 LINE",
"249 695 LINE",
"426 695 LINE SMOOTH",
"439 695 OFFCURVE",
"444 705 OFFCURVE",
"444 714 CURVE SMOOTH",
"444 723 OFFCURVE",
"438 731 OFFCURVE",
"426 731 CURVE SMOOTH",
"35 731 LINE SMOOTH",
"24 731 OFFCURVE",
"17 722 OFFCURVE",
"17 713 CURVE SMOOTH",
"17 704 OFFCURVE",
"24 695 OFFCURVE",
"35 695 CURVE SMOOTH",
"213 695 LINE",
"213 383 LINE",
"65 383 LINE SMOOTH",
"54 383 OFFCURVE",
"47 374 OFFCURVE",
"47 365 CURVE SMOOTH",
"47 356 OFFCURVE",
"54 347 OFFCURVE",
"65 347 CURVE SMOOTH",
"213 347 LINE",
"213 18 LINE SMOOTH",
"213 6 OFFCURVE",
"222 0 OFFCURVE",
"231 0 CURVE SMOOTH"
);
}
);
width = 461;
},
{
background = {
paths = (
{
closed = 1;
nodes = (
"310 0 OFFCURVE",
"349 16 OFFCURVE",
"349 48 CURVE SMOOTH",
"349 310 LINE",
"416 310 LINE SMOOTH",
"441 310 OFFCURVE",
"454 336 OFFCURVE",
"454 365 CURVE SMOOTH",
"454 392 OFFCURVE",
"441 420 OFFCURVE",
"416 420 CURVE SMOOTH",
"349 420 LINE",
"349 591 LINE",
"487 591 LINE SMOOTH",
"517 591 OFFCURVE",
"534 624 OFFCURVE",
"534 662 CURVE SMOOTH",
"534 695 OFFCURVE",
"520 731 OFFCURVE",
"487 731 CURVE SMOOTH",
"55 731 LINE SMOOTH",
"22 731 OFFCURVE",
"8 695 OFFCURVE",
"8 662 CURVE SMOOTH",
"8 624 OFFCURVE",
"25 591 OFFCURVE",
"55 591 CURVE SMOOTH",
"193 591 LINE",
"193 420 LINE",
"125 420 LINE SMOOTH",
"100 420 OFFCURVE",
"87 392 OFFCURVE",
"87 365 CURVE SMOOTH",
"87 337 OFFCURVE",
"100 310 OFFCURVE",
"125 310 CURVE SMOOTH",
"193 310 LINE",
"193 48 LINE SMOOTH",
"193 16 OFFCURVE",
"232 0 OFFCURVE",
"271 0 CURVE SMOOTH"
);
}
);
};
hints = (
{
place = "{193, 156}";
},
{
horizontal = 1;
place = "{310, 110}";
},
{
horizontal = 1;
place = "{591, 140}";
},
{
horizontal = 1;
place = "{0, 21}";
target = up;
type = BottomGhost;
}
);
layerId = "228CC867-ECE3-4F82-B853-1E58141B916C";
paths = (
{
closed = 1;
nodes = (
"310 0 OFFCURVE",
"349 16 OFFCURVE",
"349 48 CURVE SMOOTH",
"349 310 LINE",
"416 310 LINE SMOOTH",
"441 310 OFFCURVE",
"454 336 OFFCURVE",
"454 365 CURVE SMOOTH",
"454 392 OFFCURVE",
"441 420 OFFCURVE",
"416 420 CURVE SMOOTH",
"349 420 LINE",
"349 591 LINE",
"487 591 LINE SMOOTH",
"517 591 OFFCURVE",
"534 624 OFFCURVE",
"534 662 CURVE SMOOTH",
"534 695 OFFCURVE",
"520 731 OFFCURVE",
"487 731 CURVE SMOOTH",
"55 731 LINE SMOOTH",
"22 731 OFFCURVE",
"8 695 OFFCURVE",
"8 662 CURVE SMOOTH",
"8 624 OFFCURVE",
"25 591 OFFCURVE",
"55 591 CURVE SMOOTH",
"193 591 LINE",
"193 420 LINE",
"125 420 LINE SMOOTH",
"100 420 OFFCURVE",
"87 392 OFFCURVE",
"87 365 CURVE SMOOTH",
"87 337 OFFCURVE",
"100 310 OFFCURVE",
"125 310 CURVE SMOOTH",
"193 310 LINE",
"193 48 LINE SMOOTH",
"193 16 OFFCURVE",
"232 0 OFFCURVE",
"271 0 CURVE SMOOTH"
);
}
);
width = 542;
}
);
leftKerningGroup = T;
rightKerningGroup = T;
unicode = 0166;
},
{
color = 4;
glyphname = U;
lastChange = "2016-11-27 00:46:31 +0000";
layers = (
{
anchors = (
{
name = bottom;
position = "{285, 0}";
},
{
name = ogonek;
position = "{511, 10}";
},
{
name = top;
position = "{285, 730}";
},
{
name = topright;
position = "{547, 730}";
}
);
background = {
anchors = (
{
name = bottom;
position = "{281, 0}";
},
{
name = ogonek;
position = "{322, 10}";
},
{
name = top;
position = "{281, 731}";
},
{
name = topright;
position = "{524, 731}";
}
);
paths = (
{
closed = 1;
nodes = (
"390 -6 OFFCURVE",
"476 50 OFFCURVE",
"476 200 CURVE SMOOTH",
"476 714 LINE SMOOTH",
"476 726 OFFCURVE",
"467 731 OFFCURVE",
"458 731 CURVE SMOOTH",
"449 731 OFFCURVE",
"440 726 OFFCURVE",
"440 714 CURVE SMOOTH",
"440 200 LINE SMOOTH",
"440 84 OFFCURVE",
"380 30 OFFCURVE",
"280 30 CURVE SMOOTH",
"180 30 OFFCURVE",
"121 84 OFFCURVE",
"121 200 CURVE SMOOTH",
"121 714 LINE SMOOTH",
"121 726 OFFCURVE",
"112 731 OFFCURVE",
"103 731 CURVE SMOOTH",
"94 731 OFFCURVE",
"85 726 OFFCURVE",
"85 714 CURVE SMOOTH",
"85 200 LINE SMOOTH",
"85 50 OFFCURVE",
"170 -6 OFFCURVE",
"280 -6 CURVE SMOOTH"
);
}
);
};
hints = (
{
place = "{79, 36}";
},
{
place = "{434, 36}";
},
{
horizontal = 1;
place = "{-6, 36}";
},
{
horizontal = 1;
place = "{731, -20}";
target = down;
type = TopGhost;
}
);
layerId = UUID0;
paths = (
{
closed = 1;
nodes = (
"399 -6 OFFCURVE",
"488 50 OFFCURVE",
"488 200 CURVE SMOOTH",
"488 713 LINE SMOOTH",
"488 725 OFFCURVE",
"479 730 OFFCURVE",
"470 730 CURVE SMOOTH",
"461 730 OFFCURVE",
"452 725 OFFCURVE",
"452 713 CURVE SMOOTH",
"452 200 LINE SMOOTH",
"452 84 OFFCURVE",
"390 30 OFFCURVE",
"286 30 CURVE SMOOTH",
"182 30 OFFCURVE",
"121 84 OFFCURVE",
"121 200 CURVE SMOOTH",
"121 713 LINE SMOOTH",
"121 725 OFFCURVE",
"112 730 OFFCURVE",
"103 730 CURVE SMOOTH",
"94 730 OFFCURVE",
"85 725 OFFCURVE",
"85 713 CURVE SMOOTH",
"85 200 LINE SMOOTH",
"85 50 OFFCURVE",
"173 -6 OFFCURVE",
"286 -6 CURVE SMOOTH"
);
}
);
width = 573;
},
{
anchors = (
{
name = bottom;
position = "{310, 0}";
},
{
name = ogonek;
position = "{558, 10}";
},
{
name = top;
position = "{310, 730}";
},
{
name = topright;
position = "{600, 730}";
}
);
background = {
anchors = (
{
name = bottom;
position = "{303, 0}";
},
{
name = ogonek;
position = "{349, 10}";
},
{
name = top;
position = "{303, 731}";
},
{
name = topright;
position = "{569, 731}";
}
);
paths = (
{
closed = 1;
nodes = (
"444 -6 OFFCURVE",
"555 58 OFFCURVE",
"555 230 CURVE SMOOTH",
"555 684 LINE SMOOTH",
"555 717 OFFCURVE",
"515 731 OFFCURVE",
"477 731 CURVE SMOOTH",
"437 731 OFFCURVE",
"399 717 OFFCURVE",
"399 684 CURVE SMOOTH",
"399 230 LINE SMOOTH",
"399 162 OFFCURVE",
"363 130 OFFCURVE",
"303 130 CURVE SMOOTH",
"243 130 OFFCURVE",
"207 162 OFFCURVE",
"207 230 CURVE SMOOTH",
"207 684 LINE SMOOTH",
"207 717 OFFCURVE",
"167 731 OFFCURVE",
"129 731 CURVE SMOOTH",
"89 731 OFFCURVE",
"51 717 OFFCURVE",
"51 684 CURVE SMOOTH",
"51 230 LINE SMOOTH",
"51 58 OFFCURVE",
"161 -6 OFFCURVE",
"303 -6 CURVE SMOOTH"
);
}
);
};
hints = (
{
place = "{51, 156}";
},
{
place = "{399, 156}";
},
{
horizontal = 1;
place = "{-6, 136}";
},
{
horizontal = 1;
place = "{731, -20}";
target = down;
type = TopGhost;
}
);
layerId = "228CC867-ECE3-4F82-B853-1E58141B916C";
paths = (
{
closed = 1;
nodes = (
"455 -6 OFFCURVE",
"569 58 OFFCURVE",
"569 230 CURVE SMOOTH",
"569 683 LINE SMOOTH",
"569 716 OFFCURVE",
"529 730 OFFCURVE",
"491 730 CURVE SMOOTH",
"451 730 OFFCURVE",
"413 716 OFFCURVE",
"413 683 CURVE SMOOTH",
"413 230 LINE SMOOTH",
"413 162 OFFCURVE",
"374 130 OFFCURVE",
"310 130 CURVE SMOOTH",
"246 130 OFFCURVE",
"207 162 OFFCURVE",
"207 230 CURVE SMOOTH",
"207 683 LINE SMOOTH",
"207 716 OFFCURVE",
"167 730 OFFCURVE",
"129 730 CURVE SMOOTH",
"89 730 OFFCURVE",
"51 716 OFFCURVE",
"51 683 CURVE SMOOTH",
"51 230 LINE SMOOTH",
"51 58 OFFCURVE",
"164 -6 OFFCURVE",
"310 -6 CURVE SMOOTH"
);
}
);
width = 620;
}
);
leftKerningGroup = U;
rightKerningGroup = U;
unicode = 0055;
},
{
color = 4;
glyphname = V;
lastChange = "2016-11-26 19:38:57 +0000";
layers = (
{
anchors = (
{
name = bottom;
position = "{262, 0}";
},
{
name = top;
position = "{262, 730}";
}
);
background = {
paths = (
{
closed = 1;
nodes = (
"270 -6 OFFCURVE",
"278 -1 OFFCURVE",
"281 8 CURVE SMOOTH",
"496 709 LINE",
"496 711 OFFCURVE",
"497 712 OFFCURVE",
"497 714 CURVE SMOOTH",
"497 723 OFFCURVE",
"487 731 OFFCURVE",
"477 731 CURVE SMOOTH",
"470 731 OFFCURVE",
"464 727 OFFCURVE",
"461 718 CURVE SMOOTH",
"262 70 LINE",
"62 718 LINE SMOOTH",
"59 727 OFFCURVE",
"52 731 OFFCURVE",
"44 731 CURVE SMOOTH",
"35 731 OFFCURVE",
"26 725 OFFCURVE",
"26 715 CURVE SMOOTH",
"26 713 OFFCURVE",
"26 711 OFFCURVE",
"27 709 CURVE",
"244 8 LINE SMOOTH",
"247 -2 OFFCURVE",
"254 -6 OFFCURVE",
"262 -6 CURVE SMOOTH"
);
}
);
};
hints = (
{
horizontal = 1;
place = "{731, -20}";
target = down;
type = TopGhost;
},
{
horizontal = 1;
place = "{-6, 21}";
target = up;
type = BottomGhost;
}
);
layerId = UUID0;
paths = (
{
closed = 1;
nodes = (
"270 -6 OFFCURVE",
"278 -1 OFFCURVE",
"281 8 CURVE SMOOTH",
"496 714 LINE",
"496 716 OFFCURVE",
"497 717 OFFCURVE",
"497 719 CURVE SMOOTH",
"497 728 OFFCURVE",
"487 736 OFFCURVE",
"477 736 CURVE SMOOTH",
"470 736 OFFCURVE",
"464 732 OFFCURVE",
"461 723 CURVE SMOOTH",
"262 70 LINE",
"62 723 LINE SMOOTH",
"59 732 OFFCURVE",
"52 736 OFFCURVE",
"44 736 CURVE SMOOTH",
"35 736 OFFCURVE",
"26 730 OFFCURVE",
"26 720 CURVE SMOOTH",
"26 718 OFFCURVE",
"26 716 OFFCURVE",
"27 714 CURVE",
"244 8 LINE SMOOTH",
"247 -2 OFFCURVE",
"254 -6 OFFCURVE",
"262 -6 CURVE SMOOTH"
);
}
);
width = 523;
},
{
anchors = (
{
name = bottom;
position = "{296, 0}";
},
{
name = top;
position = "{296, 730}";
}
);
background = {
paths = (
{
closed = 1;
nodes = (
"341 -6 OFFCURVE",
"386 11 OFFCURVE",
"397 46 CURVE SMOOTH",
"583 656 LINE",
"584 660 OFFCURVE",
"585 664 OFFCURVE",
"585 667 CURVE SMOOTH",
"585 704 OFFCURVE",
"528 731 OFFCURVE",
"485 731 CURVE SMOOTH",
"460 731 OFFCURVE",
"440 723 OFFCURVE",
"434 702 CURVE SMOOTH",
"295 189 LINE",
"155 702 LINE SMOOTH",
"149 723 OFFCURVE",
"129 731 OFFCURVE",
"104 731 CURVE SMOOTH",
"61 731 OFFCURVE",
"4 704 OFFCURVE",
"4 667 CURVE SMOOTH",
"4 664 OFFCURVE",
"5 660 OFFCURVE",
"6 656 CURVE",
"193 46 LINE SMOOTH",
"204 11 OFFCURVE",
"249 -6 OFFCURVE",
"295 -6 CURVE SMOOTH"
);
}
);
};
hints = (
{
horizontal = 1;
place = "{608, 21}";
target = up;
type = BottomGhost;
},
{
horizontal = 1;
place = "{-129, -20}";
target = down;
type = TopGhost;
}
);
layerId = "228CC867-ECE3-4F82-B853-1E58141B916C";
paths = (
{
closed = 1;
nodes = (
"342 -6 OFFCURVE",
"388 11 OFFCURVE",
"398 46 CURVE SMOOTH",
"572 628 LINE SMOOTH",
"580 654 OFFCURVE",
"585 674 OFFCURVE",
"585 689 CURVE SMOOTH",
"585 718 OFFCURVE",
"567 730 OFFCURVE",
"509 730 CURVE SMOOTH",
"476 730 OFFCURVE",
"443 726 OFFCURVE",
"435 698 CURVE SMOOTH",
"296 189 LINE",
"157 698 LINE SMOOTH",
"149 726 OFFCURVE",
"115 730 OFFCURVE",
"81 730 CURVE SMOOTH",
"24 730 OFFCURVE",
"3 719 OFFCURVE",
"3 689 CURVE SMOOTH",
"3 674 OFFCURVE",
"8 654 OFFCURVE",
"16 628 CURVE SMOOTH",
"194 46 LINE",
"205 11 OFFCURVE",
"250 -6 OFFCURVE",
"296 -6 CURVE SMOOTH"
);
}
);
width = 591;
},
{
associatedMasterId = "228CC867-ECE3-4F82-B853-1E58141B916C";
background = {
paths = (
{
closed = 1;
nodes = (
"341 -6 OFFCURVE",
"386 11 OFFCURVE",
"397 46 CURVE SMOOTH",
"583 656 LINE",
"584 660 OFFCURVE",
"585 664 OFFCURVE",
"585 667 CURVE SMOOTH",
"585 704 OFFCURVE",
"528 731 OFFCURVE",
"485 731 CURVE SMOOTH",
"460 731 OFFCURVE",
"440 723 OFFCURVE",
"434 702 CURVE SMOOTH",
"295 189 LINE",
"155 702 LINE SMOOTH",
"149 723 OFFCURVE",
"129 731 OFFCURVE",
"104 731 CURVE SMOOTH",
"61 731 OFFCURVE",
"4 704 OFFCURVE",
"4 667 CURVE SMOOTH",
"4 664 OFFCURVE",
"5 660 OFFCURVE",
"6 656 CURVE",
"193 46 LINE SMOOTH",
"204 11 OFFCURVE",
"249 -6 OFFCURVE",
"295 -6 CURVE SMOOTH"
);
}
);
};
hints = (
{
horizontal = 1;
place = "{-6, 21}";
target = up;
type = BottomGhost;
},
{
horizontal = 1;
place = "{731, -20}";
target = down;
type = TopGhost;
}
);
layerId = "2FF74DD4-8522-4DC6-AFB4-5F38910EBF1E";
name = "Nov 18 16, 03:25";
paths = (
{
closed = 1;
nodes = (
"341 -6 OFFCURVE",
"386 11 OFFCURVE",
"397 46 CURVE SMOOTH",
"583 656 LINE",
"584 660 OFFCURVE",
"585 664 OFFCURVE",
"585 667 CURVE SMOOTH",
"585 704 OFFCURVE",
"528 731 OFFCURVE",
"485 731 CURVE SMOOTH",
"460 731 OFFCURVE",
"440 723 OFFCURVE",
"434 702 CURVE SMOOTH",
"295 189 LINE",
"155 702 LINE SMOOTH",
"149 723 OFFCURVE",
"129 731 OFFCURVE",
"104 731 CURVE SMOOTH",
"61 731 OFFCURVE",
"4 704 OFFCURVE",
"4 667 CURVE SMOOTH",
"4 664 OFFCURVE",
"5 660 OFFCURVE",
"6 656 CURVE",
"193 46 LINE SMOOTH",
"204 11 OFFCURVE",
"249 -6 OFFCURVE",
"295 -6 CURVE SMOOTH"
);
}
);
width = 589;
}
);
unicode = 0056;
},
{
color = 4;
glyphname = W;
lastChange = "2016-11-26 19:38:57 +0000";
layers = (
{
anchors = (
{
name = bottom;
position = "{402, 0}";
},
{
name = top;
position = "{402, 730}";
}
);
background = {
paths = (
{
closed = 1;
nodes = (
"253 -6 OFFCURVE",
"260 -1 OFFCURVE",
"263 8 CURVE",
"372 400 LINE",
"482 8 LINE",
"484 -2 OFFCURVE",
"492 -6 OFFCURVE",
"500 -6 CURVE SMOOTH",
"509 -6 OFFCURVE",
"516 -1 OFFCURVE",
"519 8 CURVE",
"714 709 LINE",
"715 712 OFFCURVE",
"715 713 OFFCURVE",
"715 715 CURVE SMOOTH",
"715 726 OFFCURVE",
"707 731 OFFCURVE",
"698 731 CURVE SMOOTH",
"690 731 OFFCURVE",
"681 726 OFFCURVE",
"679 718 CURVE SMOOTH",
"500 70 LINE",
"392 455 LINE SMOOTH",
"388 469 OFFCURVE",
"382 472 OFFCURVE",
"372 472 CURVE SMOOTH",
"362 472 OFFCURVE",
"354 469 OFFCURVE",
"350 455 CURVE SMOOTH",
"244 70 LINE",
"64 718 LINE SMOOTH",
"62 726 OFFCURVE",
"53 731 OFFCURVE",
"45 731 CURVE SMOOTH",
"36 731 OFFCURVE",
"28 726 OFFCURVE",
"28 715 CURVE SMOOTH",
"28 713 OFFCURVE",
"28 712 OFFCURVE",
"29 709 CURVE",
"226 8 LINE",
"228 -2 OFFCURVE",
"236 -6 OFFCURVE",
"244 -6 CURVE SMOOTH"
);
}
);
};
hints = (
{
horizontal = 1;
place = "{731, -20}";
target = down;
type = TopGhost;
},
{
horizontal = 1;
place = "{-6, 21}";
target = up;
type = BottomGhost;
},
{
horizontal = 1;
place = "{472, -20}";
target = down;
type = TopGhost;
}
);
layerId = UUID0;
paths = (
{
closed = 1;
nodes = (
"244 -6 OFFCURVE",
"251 -1 OFFCURVE",
"254 8 CURVE",
"402 631 LINE",
"549 8 LINE",
"551 -2 OFFCURVE",
"559 -6 OFFCURVE",
"567 -6 CURVE SMOOTH",
"576 -6 OFFCURVE",
"581 -1 OFFCURVE",
"584 8 CURVE",
"774 715 LINE",
"775 718 OFFCURVE",
"775 719 OFFCURVE",
"775 721 CURVE SMOOTH",
"775 732 OFFCURVE",
"767 737 OFFCURVE",
"758 737 CURVE SMOOTH",
"750 737 OFFCURVE",
"741 732 OFFCURVE",
"739 724 CURVE SMOOTH",
"567 74 LINE",
"424 691 LINE SMOOTH",
"421 705 OFFCURVE",
"413 708 OFFCURVE",
"403 708 CURVE SMOOTH",
"393 708 OFFCURVE",
"384 705 OFFCURVE",
"381 691 CURVE SMOOTH",
"235 74 LINE",
"64 724 LINE SMOOTH",
"62 732 OFFCURVE",
"53 737 OFFCURVE",
"45 737 CURVE SMOOTH",
"36 737 OFFCURVE",
"28 732 OFFCURVE",
"28 721 CURVE SMOOTH",
"28 719 OFFCURVE",
"28 718 OFFCURVE",
"29 715 CURVE",
"219 8 LINE",
"221 -2 OFFCURVE",
"227 -6 OFFCURVE",
"235 -6 CURVE SMOOTH"
);
}
);
width = 803;
},
{
anchors = (
{
name = bottom;
position = "{442, 0}";
},
{
name = top;
position = "{442, 730}";
}
);
background = {
paths = (
{
closed = 1;
nodes = (
"297 -6 OFFCURVE",
"346 11 OFFCURVE",
"356 48 CURVE SMOOTH",
"444 372 LINE",
"532 48 LINE SMOOTH",
"542 11 OFFCURVE",
"590 -6 OFFCURVE",
"638 -6 CURVE SMOOTH",
"686 -6 OFFCURVE",
"736 12 OFFCURVE",
"744 49 CURVE SMOOTH",
"880 653 LINE SMOOTH",
"881 656 OFFCURVE",
"882 661 OFFCURVE",
"882 666 CURVE SMOOTH",
"882 702 OFFCURVE",
"823 731 OFFCURVE",
"776 731 CURVE SMOOTH",
"751 731 OFFCURVE",
"730 723 OFFCURVE",
"726 701 CURVE SMOOTH",
"636 232 LINE",
"521 655 LINE SMOOTH",
"513 683 OFFCURVE",
"479 698 OFFCURVE",
"443 698 CURVE SMOOTH",
"408 698 OFFCURVE",
"373 683 OFFCURVE",
"366 655 CURVE SMOOTH",
"252 231 LINE",
"161 701 LINE SMOOTH",
"157 723 OFFCURVE",
"136 731 OFFCURVE",
"112 731 CURVE SMOOTH",
"64 731 OFFCURVE",
"5 702 OFFCURVE",
"5 666 CURVE SMOOTH",
"5 661 OFFCURVE",
"6 656 OFFCURVE",
"7 653 CURVE SMOOTH",
"143 48 LINE SMOOTH",
"151 11 OFFCURVE",
"201 -6 OFFCURVE",
"250 -6 CURVE SMOOTH"
);
}
);
};
hints = (
{
horizontal = 1;
place = "{731, -20}";
target = down;
type = TopGhost;
},
{
horizontal = 1;
place = "{-6, 21}";
target = up;
type = BottomGhost;
}
);
layerId = "228CC867-ECE3-4F82-B853-1E58141B916C";
paths = (
{
closed = 1;
nodes = (
"295 -6 OFFCURVE",
"342 11 OFFCURVE",
"352 47 CURVE SMOOTH",
"442 379 LINE",
"531 47 LINE SMOOTH",
"541 11 OFFCURVE",
"589 -6 OFFCURVE",
"636 -6 CURVE SMOOTH",
"683 -6 OFFCURVE",
"732 12 OFFCURVE",
"739 48 CURVE",
"869 631 LINE SMOOTH",
"875 656 OFFCURVE",
"880 676 OFFCURVE",
"880 691 CURVE SMOOTH",
"880 724 OFFCURVE",
"852 731 OFFCURVE",
"796 731 CURVE SMOOTH",
"759 731 OFFCURVE",
"731 728 OFFCURVE",
"724 693 CURVE SMOOTH",
"633 228 LINE",
"517 656 LINE SMOOTH",
"509 684 OFFCURVE",
"477 698 OFFCURVE",
"441 698 CURVE SMOOTH",
"407 698 OFFCURVE",
"372 683 OFFCURVE",
"365 656 CURVE SMOOTH",
"251 227 LINE",
"156 698 LINE SMOOTH",
"150 726 OFFCURVE",
"116 730 OFFCURVE",
"81 730 CURVE SMOOTH",
"26 730 OFFCURVE",
"3 719 OFFCURVE",
"3 689 CURVE SMOOTH",
"3 676 OFFCURVE",
"6 655 OFFCURVE",
"12 630 CURVE SMOOTH",
"144 47 LINE SMOOTH",
"152 11 OFFCURVE",
"201 -6 OFFCURVE",
"248 -6 CURVE SMOOTH"
);
}
);
width = 884;
},
{
associatedMasterId = UUID0;
background = {
paths = (
{
closed = 1;
nodes = (
"251 -6 OFFCURVE",
"258 -1 OFFCURVE",
"261 8 CURVE",
"370 400 LINE",
"480 8 LINE",
"482 -2 OFFCURVE",
"490 -6 OFFCURVE",
"498 -6 CURVE SMOOTH",
"507 -6 OFFCURVE",
"514 -1 OFFCURVE",
"517 8 CURVE",
"712 709 LINE",
"713 712 OFFCURVE",
"713 713 OFFCURVE",
"713 715 CURVE SMOOTH",
"713 726 OFFCURVE",
"705 731 OFFCURVE",
"696 731 CURVE SMOOTH",
"688 731 OFFCURVE",
"679 726 OFFCURVE",
"677 718 CURVE SMOOTH",
"498 70 LINE",
"390 455 LINE SMOOTH",
"386 469 OFFCURVE",
"380 472 OFFCURVE",
"370 472 CURVE SMOOTH",
"360 472 OFFCURVE",
"352 469 OFFCURVE",
"348 455 CURVE SMOOTH",
"242 70 LINE",
"62 718 LINE SMOOTH",
"60 726 OFFCURVE",
"51 731 OFFCURVE",
"43 731 CURVE SMOOTH",
"34 731 OFFCURVE",
"26 726 OFFCURVE",
"26 715 CURVE SMOOTH",
"26 713 OFFCURVE",
"26 712 OFFCURVE",
"27 709 CURVE",
"224 8 LINE",
"226 -2 OFFCURVE",
"234 -6 OFFCURVE",
"242 -6 CURVE SMOOTH"
);
}
);
};
hints = (
{
horizontal = 1;
place = "{731, -20}";
target = down;
type = TopGhost;
},
{
horizontal = 1;
place = "{-6, 21}";
target = up;
type = BottomGhost;
},
{
horizontal = 1;
place = "{472, -20}";
target = down;
type = TopGhost;
}
);
layerId = "68DCEE0C-9778-404C-A70B-D0C0E3747734";
name = "Nov 17 16, 20:58";
paths = (
{
closed = 1;
nodes = (
"251 -6 OFFCURVE",
"258 -1 OFFCURVE",
"261 8 CURVE",
"370 400 LINE",
"480 8 LINE",
"482 -2 OFFCURVE",
"490 -6 OFFCURVE",
"498 -6 CURVE SMOOTH",
"507 -6 OFFCURVE",
"514 -1 OFFCURVE",
"517 8 CURVE",
"712 709 LINE",
"713 712 OFFCURVE",
"713 713 OFFCURVE",
"713 715 CURVE SMOOTH",
"713 726 OFFCURVE",
"705 731 OFFCURVE",
"696 731 CURVE SMOOTH",
"688 731 OFFCURVE",
"679 726 OFFCURVE",
"677 718 CURVE SMOOTH",
"498 70 LINE",
"390 455 LINE SMOOTH",
"386 469 OFFCURVE",
"380 472 OFFCURVE",
"370 472 CURVE SMOOTH",
"360 472 OFFCURVE",
"352 469 OFFCURVE",
"348 455 CURVE SMOOTH",
"242 70 LINE",
"62 718 LINE SMOOTH",
"60 726 OFFCURVE",
"51 731 OFFCURVE",
"43 731 CURVE SMOOTH",
"34 731 OFFCURVE",
"26 726 OFFCURVE",
"26 715 CURVE SMOOTH",
"26 713 OFFCURVE",
"26 712 OFFCURVE",
"27 709 CURVE",
"224 8 LINE",
"226 -2 OFFCURVE",
"234 -6 OFFCURVE",
"242 -6 CURVE SMOOTH"
);
}
);
width = 739;
},
{
associatedMasterId = "228CC867-ECE3-4F82-B853-1E58141B916C";
background = {
paths = (
{
closed = 1;
nodes = (
"352 -6 OFFCURVE",
"400 11 OFFCURVE",
"408 46 CURVE SMOOTH",
"460 283 LINE",
"512 46 LINE SMOOTH",
"520 11 OFFCURVE",
"568 -6 OFFCURVE",
"613 -6 CURVE SMOOTH",
"659 -6 OFFCURVE",
"704 11 OFFCURVE",
"716 46 CURVE SMOOTH",
"915 656 LINE SMOOTH",
"916 659 OFFCURVE",
"917 664 OFFCURVE",
"917 669 CURVE SMOOTH",
"917 703 OFFCURVE",
"861 731 OFFCURVE",
"816 731 CURVE SMOOTH",
"792 731 OFFCURVE",
"772 723 OFFCURVE",
"766 702 CURVE SMOOTH",
"614 189 LINE",
"535 527 LINE SMOOTH",
"529 554 OFFCURVE",
"494 568 OFFCURVE",
"460 568 CURVE SMOOTH",
"426 568 OFFCURVE",
"391 554 OFFCURVE",
"385 527 CURVE SMOOTH",
"306 189 LINE",
"154 702 LINE SMOOTH",
"148 723 OFFCURVE",
"128 731 OFFCURVE",
"104 731 CURVE SMOOTH",
"59 731 OFFCURVE",
"3 703 OFFCURVE",
"3 669 CURVE SMOOTH",
"3 664 OFFCURVE",
"4 659 OFFCURVE",
"5 656 CURVE SMOOTH",
"204 46 LINE SMOOTH",
"215 11 OFFCURVE",
"261 -6 OFFCURVE",
"307 -6 CURVE SMOOTH"
);
}
);
};
hints = (
{
horizontal = 1;
place = "{731, -20}";
target = down;
type = TopGhost;
},
{
horizontal = 1;
place = "{-6, 21}";
target = up;
type = BottomGhost;
}
);
layerId = "AC48FA95-E9F9-48E5-AC4A-D9C52A7C1AB3";
name = "Nov 17 16, 21:02";
paths = (
{
closed = 1;
nodes = (
"352 -6 OFFCURVE",
"400 11 OFFCURVE",
"408 46 CURVE SMOOTH",
"460 283 LINE",
"512 46 LINE SMOOTH",
"520 11 OFFCURVE",
"568 -6 OFFCURVE",
"613 -6 CURVE SMOOTH",
"659 -6 OFFCURVE",
"704 11 OFFCURVE",
"716 46 CURVE SMOOTH",
"915 656 LINE SMOOTH",
"916 659 OFFCURVE",
"917 664 OFFCURVE",
"917 669 CURVE SMOOTH",
"917 703 OFFCURVE",
"861 731 OFFCURVE",
"816 731 CURVE SMOOTH",
"792 731 OFFCURVE",
"772 723 OFFCURVE",
"766 702 CURVE SMOOTH",
"614 189 LINE",
"535 527 LINE SMOOTH",
"529 554 OFFCURVE",
"494 568 OFFCURVE",
"460 568 CURVE SMOOTH",
"426 568 OFFCURVE",
"391 554 OFFCURVE",
"385 527 CURVE SMOOTH",
"306 189 LINE",
"154 702 LINE SMOOTH",
"148 723 OFFCURVE",
"128 731 OFFCURVE",
"104 731 CURVE SMOOTH",
"59 731 OFFCURVE",
"3 703 OFFCURVE",
"3 669 CURVE SMOOTH",
"3 664 OFFCURVE",
"4 659 OFFCURVE",
"5 656 CURVE SMOOTH",
"204 46 LINE SMOOTH",
"215 11 OFFCURVE",
"261 -6 OFFCURVE",
"307 -6 CURVE SMOOTH"
);
}
);
width = 920;
},
{
associatedMasterId = "228CC867-ECE3-4F82-B853-1E58141B916C";
background = {
paths = (
{
closed = 1;
nodes = (
"352 -6 OFFCURVE",
"400 11 OFFCURVE",
"408 46 CURVE SMOOTH",
"460 283 LINE",
"512 46 LINE SMOOTH",
"520 11 OFFCURVE",
"568 -6 OFFCURVE",
"613 -6 CURVE SMOOTH",
"659 -6 OFFCURVE",
"704 11 OFFCURVE",
"716 46 CURVE SMOOTH",
"915 656 LINE SMOOTH",
"916 659 OFFCURVE",
"917 664 OFFCURVE",
"917 669 CURVE SMOOTH",
"917 703 OFFCURVE",
"861 731 OFFCURVE",
"816 731 CURVE SMOOTH",
"792 731 OFFCURVE",
"772 723 OFFCURVE",
"766 702 CURVE SMOOTH",
"614 189 LINE",
"535 527 LINE SMOOTH",
"529 554 OFFCURVE",
"494 568 OFFCURVE",
"460 568 CURVE SMOOTH",
"426 568 OFFCURVE",
"391 554 OFFCURVE",
"385 527 CURVE SMOOTH",
"306 189 LINE",
"154 702 LINE SMOOTH",
"148 723 OFFCURVE",
"128 731 OFFCURVE",
"104 731 CURVE SMOOTH",
"59 731 OFFCURVE",
"3 703 OFFCURVE",
"3 669 CURVE SMOOTH",
"3 664 OFFCURVE",
"4 659 OFFCURVE",
"5 656 CURVE SMOOTH",
"204 46 LINE SMOOTH",
"215 11 OFFCURVE",
"261 -6 OFFCURVE",
"307 -6 CURVE SMOOTH"
);
}
);
};
hints = (
{
horizontal = 1;
place = "{731, -20}";
target = down;
type = TopGhost;
},
{
horizontal = 1;
place = "{-6, 21}";
target = up;
type = BottomGhost;
}
);
layerId = "BEEC3BBB-7684-4BE0-8FDE-DABAAA89269E";
name = "Nov 18 16, 04:05";
paths = (
{
closed = 1;
nodes = (
"295 -6 OFFCURVE",
"344 11 OFFCURVE",
"354 48 CURVE SMOOTH",
"442 372 LINE",
"530 48 LINE SMOOTH",
"540 11 OFFCURVE",
"588 -6 OFFCURVE",
"636 -6 CURVE SMOOTH",
"684 -6 OFFCURVE",
"734 12 OFFCURVE",
"742 49 CURVE SMOOTH",
"878 653 LINE SMOOTH",
"879 656 OFFCURVE",
"880 661 OFFCURVE",
"880 666 CURVE SMOOTH",
"880 702 OFFCURVE",
"821 731 OFFCURVE",
"774 731 CURVE SMOOTH",
"749 731 OFFCURVE",
"728 723 OFFCURVE",
"724 701 CURVE SMOOTH",
"634 232 LINE",
"519 655 LINE SMOOTH",
"511 683 OFFCURVE",
"477 698 OFFCURVE",
"441 698 CURVE SMOOTH",
"406 698 OFFCURVE",
"371 683 OFFCURVE",
"364 655 CURVE SMOOTH",
"250 231 LINE",
"159 701 LINE SMOOTH",
"155 723 OFFCURVE",
"134 731 OFFCURVE",
"110 731 CURVE SMOOTH",
"62 731 OFFCURVE",
"3 702 OFFCURVE",
"3 666 CURVE SMOOTH",
"3 661 OFFCURVE",
"4 656 OFFCURVE",
"5 653 CURVE SMOOTH",
"141 48 LINE SMOOTH",
"149 11 OFFCURVE",
"199 -6 OFFCURVE",
"248 -6 CURVE SMOOTH"
);
}
);
width = 883;
},
{
associatedMasterId = "228CC867-ECE3-4F82-B853-1E58141B916C";
background = {
paths = (
{
closed = 1;
nodes = (
"295 -6 OFFCURVE",
"344 11 OFFCURVE",
"354 48 CURVE SMOOTH",
"442 372 LINE",
"530 48 LINE SMOOTH",
"540 11 OFFCURVE",
"588 -6 OFFCURVE",
"636 -6 CURVE SMOOTH",
"684 -6 OFFCURVE",
"734 12 OFFCURVE",
"742 49 CURVE SMOOTH",
"878 653 LINE SMOOTH",
"879 656 OFFCURVE",
"880 661 OFFCURVE",
"880 666 CURVE SMOOTH",
"880 702 OFFCURVE",
"821 731 OFFCURVE",
"774 731 CURVE SMOOTH",
"749 731 OFFCURVE",
"728 723 OFFCURVE",
"724 701 CURVE SMOOTH",
"634 232 LINE",
"519 655 LINE SMOOTH",
"511 683 OFFCURVE",
"477 698 OFFCURVE",
"441 698 CURVE SMOOTH",
"406 698 OFFCURVE",
"371 683 OFFCURVE",
"364 655 CURVE SMOOTH",
"250 231 LINE",
"159 701 LINE SMOOTH",
"155 723 OFFCURVE",
"134 731 OFFCURVE",
"110 731 CURVE SMOOTH",
"62 731 OFFCURVE",
"3 702 OFFCURVE",
"3 666 CURVE SMOOTH",
"3 661 OFFCURVE",
"4 656 OFFCURVE",
"5 653 CURVE SMOOTH",
"141 48 LINE SMOOTH",
"149 11 OFFCURVE",
"199 -6 OFFCURVE",
"248 -6 CURVE SMOOTH"
);
}
);
};
hints = (
{
horizontal = 1;
place = "{731, -20}";
target = down;
type = TopGhost;
},
{
horizontal = 1;
place = "{-6, 21}";
target = up;
type = BottomGhost;
}
);
layerId = "9C023B41-6DC2-40EA-91C4-0320732133AD";
name = "Nov 18 16, 04:05";
paths = (
{
closed = 1;
nodes = (
"295 -6 OFFCURVE",
"344 11 OFFCURVE",
"354 48 CURVE SMOOTH",
"442 372 LINE",
"530 48 LINE SMOOTH",
"540 11 OFFCURVE",
"588 -6 OFFCURVE",
"636 -6 CURVE SMOOTH",
"684 -6 OFFCURVE",
"734 12 OFFCURVE",
"742 49 CURVE SMOOTH",
"878 653 LINE SMOOTH",
"879 656 OFFCURVE",
"880 661 OFFCURVE",
"880 666 CURVE SMOOTH",
"880 702 OFFCURVE",
"821 731 OFFCURVE",
"774 731 CURVE SMOOTH",
"749 731 OFFCURVE",
"728 723 OFFCURVE",
"724 701 CURVE SMOOTH",
"634 232 LINE",
"519 655 LINE SMOOTH",
"511 683 OFFCURVE",
"477 698 OFFCURVE",
"441 698 CURVE SMOOTH",
"406 698 OFFCURVE",
"371 683 OFFCURVE",
"364 655 CURVE SMOOTH",
"250 231 LINE",
"159 701 LINE SMOOTH",
"155 723 OFFCURVE",
"134 731 OFFCURVE",
"110 731 CURVE SMOOTH",
"62 731 OFFCURVE",
"3 702 OFFCURVE",
"3 666 CURVE SMOOTH",
"3 661 OFFCURVE",
"4 656 OFFCURVE",
"5 653 CURVE SMOOTH",
"141 48 LINE SMOOTH",
"149 11 OFFCURVE",
"199 -6 OFFCURVE",
"248 -6 CURVE SMOOTH"
);
}
);
width = 883;
}
);
leftKerningGroup = W;
rightKerningGroup = W;
unicode = 0057;
},
